<svg width="233" height="50" viewBox="0 0 233 50" fill="none" xmlns="http://www.w3.org/2000/svg">
<path fill-rule="evenodd" clip-rule="evenodd" d="M67.3279 0.761421H82.71V17.3858H67.3279V0.761421ZM82.71 21.7005V49.1117H67.3279V21.7005H82.71ZM174.624 32.9949L188.115 33.1218C188.115 35.533 188.619 37.0558 189.502 37.6904C190.258 38.198 191.141 38.4518 192.275 38.4518C193.41 38.5787 196.94 38.5787 202.866 38.7056C209.044 38.7056 212.827 38.7056 213.962 38.5787C215.222 38.5787 216.231 38.3249 216.861 38.0711C217.996 37.5635 218.501 36.4213 218.501 34.3909C218.501 32.9949 218.122 31.9797 217.366 31.4721C216.609 30.9645 215.096 30.7107 212.701 30.7107C210.936 30.7107 207.027 30.5838 201.227 30.33C195.301 30.0761 191.393 29.8223 189.502 29.8223C185.971 29.6954 183.324 29.3147 181.432 28.8071C179.541 28.2995 178.028 27.2843 177.019 26.1421C175.254 24.1117 174.246 20.5584 174.246 15.736C174.246 10.2792 175.254 6.47208 177.398 4.18782C178.911 2.41117 181.432 1.26904 184.584 0.888325C187.863 0.380711 194.545 0.126904 204.505 0.126904C211.566 0.126904 216.483 0.380711 219.383 0.761421C223.796 1.39594 226.822 2.66497 228.461 4.44162C230.1 6.34518 230.983 9.39086 230.983 13.8325C230.983 14.2132 230.983 14.9746 230.983 16.1168H216.861C216.861 14.7208 216.735 13.8325 216.483 13.3249C216.357 12.8173 215.979 12.4365 215.475 12.0558C214.844 11.6751 213.709 11.4213 212.196 11.2944C210.557 11.1675 207.279 11.1675 202.11 11.1675C195.932 11.1675 192.149 11.4213 190.762 11.802C189.376 12.1827 188.745 13.3249 188.745 15.1015C188.745 16.7513 189.376 17.8934 190.762 18.2741C191.897 18.5279 197.067 18.9086 206.271 19.1624C214.088 19.4162 219.257 19.6701 221.779 19.9239C224.426 20.3046 226.444 20.8122 228.083 21.7005C229.848 22.7157 231.109 24.2386 231.865 26.1421C232.622 28.0457 233 30.7107 233 34.1371C233 38.7056 232.37 42.132 231.235 44.2893C230.352 45.9391 229.091 47.0812 227.452 47.9695C225.813 48.731 223.544 49.3655 220.518 49.6193C217.366 49.8731 211.44 50 202.866 50C195.68 50 190.258 49.7462 186.854 49.4924C183.45 49.1117 181.432 48.4772 179.667 47.4619C175.885 45.3046 174.876 42.0051 174.876 37.8173L174.624 32.9949ZM154.955 0.761421H170.337V17.3858H154.955V0.761421ZM170.337 21.7005V49.1117H154.955V21.7005H170.337ZM118.769 21.7005H150.416C150.416 22.4619 150.542 22.9695 150.542 22.9695C150.542 29.8223 150.542 34.8985 150.164 38.3249C149.66 43.9086 146.255 47.335 140.582 48.4772C138.06 48.9848 135.286 49.3655 132.134 49.4924C128.982 49.6193 124.065 49.7462 117.635 49.7462C109.313 49.7462 103.514 49.4924 100.109 49.1117C96.7051 48.6041 93.9313 47.7157 92.04 46.4467C90.6531 45.5584 89.6445 44.2893 88.888 42.8934C88.1315 41.4975 87.6272 39.5939 87.375 37.1827C87.1228 35.0254 86.9967 30.5838 86.9967 24.1117C86.9967 19.6701 87.1228 16.3706 87.375 14.0863C87.6272 11.802 88.1315 9.89848 88.7619 8.12183C90.1488 4.44162 93.0487 2.15736 97.5877 1.26904C102.505 0.380711 110.07 0 120.282 0C126.334 0 131.126 0.126904 134.656 0.507614C138.186 0.761421 141.086 1.26904 143.356 2.03046C147.012 3.17259 149.281 5.71066 150.038 9.51777C150.416 11.4213 150.668 14.0863 150.668 17.3858H136.043C136.043 15.9899 135.917 15.1015 135.791 14.5939C135.664 14.0863 135.412 13.7056 134.908 13.3249C134.025 12.6904 132.386 12.3096 129.739 12.1827C127.091 12.1827 123.561 12.1827 118.769 12.1827C113.726 12.1827 110.07 12.3096 107.926 12.5635C105.783 12.8173 104.27 13.198 103.514 13.8325C102.757 14.467 102.127 15.6091 101.874 17.132C101.622 18.6548 101.496 21.1929 101.496 24.8731C101.496 28.934 101.622 31.8528 101.874 33.3756C102.127 35.0254 102.631 36.1675 103.514 36.802C104.27 37.4366 105.405 37.8173 106.666 37.9442C107.926 38.0711 111.961 38.198 118.769 38.3249C125.452 38.3249 129.486 38.198 130.873 38.0711C132.26 37.9442 133.395 37.8173 134.278 37.4366C135.034 37.1827 135.538 36.6751 135.791 35.9137C136.043 35.1523 136.295 34.1371 136.295 32.7411C136.295 32.4873 136.295 32.1066 136.295 31.3452H118.769V21.7005ZM14.3734 36.802H34.7987C38.5812 36.802 41.355 36.6751 43.1201 36.4213C44.8853 36.1675 46.1461 35.7868 46.9026 35.1523C47.6591 34.5178 48.2895 33.3756 48.5417 31.8528C48.9199 30.33 49.046 28.1726 49.046 25.1269C49.046 22.0812 48.9199 19.9239 48.6677 18.401C48.4156 16.8782 47.9113 15.736 47.1548 14.9746C46.3983 14.0863 45.1374 13.5787 43.6245 13.3249C42.1115 13.0711 39.0855 12.9442 34.6726 12.9442H14.3734V36.802ZM0 49.1117V0.761421H34.6726C40.8507 0.761421 44.8853 0.761421 46.7765 0.888325C48.6677 1.01523 50.6851 1.26904 52.7024 1.64975C57.4935 2.66497 60.6456 5.32995 62.1586 9.89848C62.6629 11.5482 63.0411 13.4518 63.2933 15.3553C63.4194 17.2589 63.5455 20.3046 63.5455 24.2386C63.5455 28.5533 63.6715 31.8528 63.4194 34.0102C63.1672 36.2944 62.789 38.198 62.1586 40.1015C60.7716 44.2893 57.4935 46.9543 53.0806 47.9695C50.9372 48.4772 48.7938 48.731 46.3983 48.8579C44.0027 48.9848 40.0942 49.1117 34.7987 49.1117H0Z" fill="#D2D2D2" fill-opacity="0.93"/>
</svg>
