<svg width="232" height="69" viewBox="0 0 232 69" fill="none" xmlns="http://www.w3.org/2000/svg">
<path d="M40.8933 41.502C37.1955 45.1983 31.2028 45.1983 27.5065 41.502C23.8087 37.8056 23.8087 31.8115 27.5065 28.1152C31.2028 24.4189 37.1955 24.4189 40.8933 28.1152C44.5896 31.8115 44.5896 37.8056 40.8933 41.502Z" fill="black"/>
<path d="M9.01813 44.5289C9.01813 24.0872 25.5904 7.51487 46.0322 7.51487C52.9271 7.51487 59.3811 9.40377 64.9096 12.6883C58.1238 4.9129 48.1423 0 37.0126 0C16.5708 0 0 16.5723 0 37.0126C0 50.5594 7.27766 62.4037 18.1352 68.8547C12.4583 62.3498 9.01813 53.841 9.01813 44.5289Z" fill="black"/>
<path d="M56.29 33.08C56.29 46.4493 45.4528 57.288 32.0835 57.288C27.5737 57.288 23.352 56.0525 19.7372 53.9045C24.1742 58.9891 30.7025 62.2023 37.9816 62.2023C51.3509 62.2023 62.188 51.3637 62.188 37.9944C62.188 29.1363 57.428 21.3901 50.3278 17.1699C54.0402 21.425 56.29 26.9898 56.29 33.08Z" fill="black"/>
<path d="M159.008 36.8177C159.22 36.8992 159.363 37.001 159.503 37.001C162.525 36.9763 165.549 36.9981 168.569 36.889C171.108 36.7988 173.455 34.6465 173.971 31.7855C174.473 28.9929 173.147 26.1813 170.587 24.9939C169.598 24.5354 168.428 24.3259 167.327 24.2793C164.871 24.176 162.407 24.2429 159.946 24.2517C159.652 24.2531 159.36 24.3201 159.008 24.3637V36.8177ZM164.172 40.3263C168.764 44.5945 173.355 48.8642 178.202 53.3711C176.698 53.3711 175.573 53.4365 174.464 53.3405C174.011 53.2997 173.521 52.9825 173.167 52.6594C169.841 49.6093 166.543 46.5285 163.231 43.4623C161.882 42.2137 160.521 40.9797 158.973 39.5623V53.2503H155.75C155.723 52.7351 155.675 52.2374 155.674 51.7397C155.671 42.1468 155.671 32.5538 155.672 22.9609C155.674 21.2131 155.683 21.2102 157.471 21.2088C160.549 21.2073 163.628 21.1811 166.706 21.2204C168.5 21.2422 170.279 21.3849 171.945 22.2114C175.756 24.1032 177.984 27.8781 177.016 32.7241C176.164 37.0054 172.111 39.9828 168.19 39.9712C166.913 39.9683 165.635 39.9712 164.357 39.9712C164.296 40.0905 164.235 40.2084 164.172 40.3263Z" fill="black"/>
<path d="M206.262 21.2108V53.1592C206.048 53.2334 205.863 53.3527 205.677 53.3556C202.526 53.3876 203.121 53.6554 203.056 50.9472C203.046 50.4961 203.011 50.0435 202.974 49.3624C202.463 49.8645 202.105 50.205 201.759 50.5601C199.688 52.6847 197.168 53.7602 194.205 53.8213C192.405 53.8591 190.611 53.8373 188.899 53.1766C185.123 51.717 183.171 48.8502 182.663 44.9327C182.498 43.6666 182.445 42.3787 182.441 41.101C182.419 34.9992 182.429 28.8988 182.432 22.797C182.434 21.2108 182.442 21.2035 184.06 21.2137C184.56 21.2181 185.062 21.2646 185.709 21.2981V23.0691C185.709 29.4271 185.701 35.785 185.721 42.1415C185.724 43.0583 185.794 43.9868 185.954 44.889C186.482 47.8737 188.276 49.7568 191.198 50.4539C193.544 51.0127 195.899 50.9123 198.106 49.831C201.16 48.335 202.5 45.6603 202.931 42.4442C203.067 41.4328 203.05 40.3981 203.053 39.3737C203.063 34.0417 203.057 28.7097 203.059 23.3776C203.059 23.0706 203.051 22.7621 203.06 22.455C203.091 21.2661 203.111 21.2414 204.264 21.2137C204.868 21.1992 205.473 21.2108 206.262 21.2108Z" fill="black"/>
<path d="M211.429 45.8693C211.608 45.7514 211.723 45.6335 211.861 45.5913C212.69 45.341 213.526 45.1082 214.469 44.8375C214.667 45.3876 214.833 45.9056 215.035 46.4121C216.113 49.1057 218.089 50.5711 221 50.7385C222.994 50.8535 224.901 50.5901 226.528 49.3138C227.007 48.9384 227.477 48.5105 227.828 48.0187C229.36 45.8693 229.123 43.5161 227.041 41.8863C225.846 40.9535 224.44 40.2608 223.069 39.5899C221.276 38.7124 219.386 38.0342 217.609 37.1305C216.573 36.6023 215.599 35.8849 214.728 35.1078C210.893 31.6952 211.298 25.151 215.828 22.2158C218.856 20.2527 224.372 20.0737 227.505 22.875C229.142 24.3375 230.072 26.1377 230.332 28.4762C229.382 28.7323 228.471 28.9797 227.524 29.2359C227.205 28.4006 226.977 27.67 226.655 26.9832C225.558 24.6431 223.576 23.8238 221.129 23.8646C218.728 23.9053 216.816 24.8731 215.768 27.0807C214.876 28.9623 215.189 30.7828 216.569 32.3748C217.641 33.6118 219.073 34.3161 220.53 34.9564C222.032 35.6171 223.589 36.1512 225.064 36.8613C226.351 37.4798 227.647 38.1463 228.781 39.002C233.041 42.2152 233.055 48.055 228.93 51.4501C224.737 54.9005 217.264 54.7506 213.446 50.2423C212.363 48.9631 211.659 47.5326 211.429 45.8693Z" fill="black"/>
<path d="M83.8855 45.8251C84.1591 45.6956 84.3323 45.5821 84.5229 45.5268C85.3058 45.2998 86.0931 45.0888 86.975 44.8457C87.1525 45.3609 87.3068 45.8295 87.4756 46.2937C88.4681 49.0325 90.6044 50.5852 93.5047 50.7467C95.6832 50.8675 97.6841 50.447 99.4057 49.0223C101.816 47.0257 101.922 44.0657 99.6458 41.9454C99.3824 41.7024 99.1088 41.4579 98.8017 41.2804C97.9606 40.7929 97.1209 40.2923 96.2391 39.8892C94.9817 39.3144 93.6807 38.8341 92.4103 38.2884C90.5651 37.4982 88.8028 36.5698 87.2995 35.2062C84.7994 32.939 84.1053 30.0605 84.8867 26.9317C85.6551 23.8641 87.8074 21.9417 90.8649 21.102C92.7843 20.5752 94.7329 20.5709 96.6422 21.1209C99.9383 22.0683 101.947 24.2657 102.735 27.604C102.888 28.2502 102.696 28.5805 102.076 28.7246C101.527 28.8497 100.985 29.0025 100.435 29.1219C100.295 29.1524 100.139 29.1044 99.9543 29.0898C99.7229 28.4685 99.5134 27.8442 99.2601 27.2373C98.3841 25.1258 96.744 24.0649 94.5117 23.8859C92.0378 23.6865 89.9262 24.3909 88.5219 26.5577C87.3737 28.3258 87.5949 30.6513 88.9745 32.2812C90.0339 33.5327 91.4513 34.2574 92.9066 34.905C94.4506 35.5904 96.0368 36.1856 97.5881 36.8565C99.1466 37.5302 100.608 38.367 101.89 39.5065C105.107 42.3631 105.377 47.1872 102.479 50.3946C100.95 52.0885 99.0579 53.1683 96.8212 53.5845C94.0838 54.0938 91.4135 53.9395 88.9017 52.5774C86.1048 51.0611 84.6379 49.1242 83.8855 45.8251Z" fill="black"/>
<path d="M150.207 50.3214V53.1707C148.947 53.4428 133.893 53.4545 132.477 53.1736C132.455 52.7472 132.413 52.2976 132.413 51.8494C132.41 42.2026 132.411 32.5572 132.411 22.9119C132.411 22.7576 132.407 22.6034 132.411 22.4491C132.443 21.2893 132.48 21.2194 133.629 21.2151C137.272 21.1976 140.914 21.2078 144.558 21.2078H149.851C150.126 22.2236 150.044 23.1564 149.919 24.2463H148.351C144.708 24.2463 141.064 24.2449 137.422 24.2463C137.011 24.2463 136.585 24.191 136.198 24.2871C135.964 24.3453 135.745 24.6218 135.61 24.8517C135.518 25.006 135.576 25.2519 135.576 25.4571C135.576 28.5873 135.576 31.7176 135.582 34.8463C135.582 35.0413 135.632 35.2363 135.683 35.606H148.783V38.6038H135.863C135.512 39.7869 135.451 48.4921 135.773 50.3214H150.207Z" fill="black"/>
<path d="M126.067 36.1434C126.431 39.1732 126.431 39.1732 123.804 39.1732H114.569H112.881C112.795 40.8191 112.849 42.3442 112.839 43.8663C112.829 45.4569 112.837 47.0475 112.837 48.6381V53.2876H109.745V21.4367C110.983 21.1471 125.187 21.1107 126.781 21.3945V24.1638C126.253 24.1915 125.758 24.241 125.262 24.241C121.62 24.2482 117.977 24.241 114.333 24.2482C112.859 24.2497 112.845 24.2599 112.84 25.6569C112.83 28.7362 112.834 31.814 112.842 34.8933C112.843 35.2411 112.901 35.5904 112.944 36.0532C114.41 36.2307 115.835 36.1201 117.254 36.139C118.741 36.1594 120.229 36.1434 121.717 36.1434H126.067Z" fill="black"/>
</svg>
