<svg width="309" height="80" viewBox="0 0 309 80" fill="none" xmlns="http://www.w3.org/2000/svg">
<path d="M118.022 42.2198V47.0076H99.1074C99.4561 44.1349 99.5432 40.6529 99.5432 31.9478C99.5432 23.9391 99.4561 20.8052 99.1074 17.9325H117.151V22.2851C112.967 20.7182 110.09 20.6311 105.906 20.6311H105.209V30.4679C108.783 30.4679 110.962 30.2938 114.536 29.5103V34.124C110.962 33.3406 108.783 33.2535 105.209 33.1665V44.3961H106.778C111.136 44.3961 114.448 44.1349 118.022 42.2198Z" fill="black" fill-opacity="0.1"/>
<path d="M145.914 18.0196V22.3721C142.602 21.0664 140.336 20.7182 137.895 20.7182H137.023V32.0348C137.023 40.7399 137.111 44.222 137.459 47.0947H130.922C131.27 44.222 131.358 40.7399 131.358 32.0348V20.7182H130.573C127.871 20.7182 125.692 21.0664 122.467 22.3721V18.0196H145.914Z" fill="black" fill-opacity="0.1"/>
<path d="M175.988 35.6039C175.988 43.1774 171.542 47.5299 164.046 47.5299C156.637 47.5299 151.93 42.9162 151.93 35.6039V26.0283C151.93 22.5462 151.843 21.0664 151.494 18.0196H158.206C157.857 21.0664 157.77 22.4592 157.77 26.0283V35.6039C157.77 41.5234 160.298 44.6572 164.918 44.6572C169.712 44.6572 172.501 41.5234 172.501 35.6039V26.0283C172.501 22.5462 172.327 21.0664 171.716 18.0196H176.859C176.249 21.0664 176.075 22.4592 176.075 26.0283V35.6039H175.988Z" fill="black" fill-opacity="0.1"/>
<path d="M244.499 42.2198V47.0076H225.584C225.933 44.1349 226.02 40.6529 226.02 31.9478C226.02 23.9391 225.933 20.8052 225.584 17.9325H243.627V22.2851C239.443 20.7182 236.567 20.6311 232.383 20.6311H231.686V30.4679C235.259 30.4679 237.438 30.2938 241.012 29.5103V34.124C237.438 33.3406 235.259 33.2535 231.686 33.1665V44.3961H233.254C237.526 44.3961 240.838 44.1349 244.499 42.2198Z" fill="black" fill-opacity="0.1"/>
<path d="M276.75 31.9478C276.75 23.9391 276.663 20.8052 276.314 17.9325H282.852C282.503 20.7182 282.416 23.9391 282.416 31.9478C282.416 40.6529 282.503 44.1349 282.852 47.0076H276.314C276.663 44.1349 276.75 40.6529 276.75 31.9478Z" fill="black" fill-opacity="0.1"/>
<path d="M221.399 42.2198V47.0076H202.484C202.833 43.9608 202.92 42.568 202.92 38.9989V25.9412C202.92 22.4592 202.833 20.9793 202.484 17.9325H209.022C208.586 20.9793 208.586 22.3721 208.586 25.9412V44.1349H210.939C214.949 44.1349 218.087 43.8738 221.399 42.2198Z" fill="black" fill-opacity="0.1"/>
<path d="M270.648 18.0196V22.3721C267.336 21.0664 265.07 20.7182 262.629 20.7182H261.758V32.0348C261.758 40.7399 261.845 44.222 262.194 47.0947H255.656C256.005 44.222 256.092 40.7399 256.092 32.0348V20.7182H255.307C252.605 20.7182 250.426 21.0664 247.201 22.3721V18.0196H270.648Z" fill="black" fill-opacity="0.1"/>
<path d="M53.3457 42.6551C53.4329 43.5256 53.5201 44.5702 53.5201 47.0947C53.5201 49.7933 53.5201 50.9249 53.3457 51.7954H55.3513C55.2641 50.9249 55.1769 49.7933 55.1769 47.0947C55.1769 44.5702 55.1769 43.6126 55.3513 42.6551H53.3457Z" fill="black" fill-opacity="0.1"/>
<path d="M57.1816 49.358C57.1816 51.012 58.402 51.9695 60.4939 51.9695C62.673 51.9695 63.9805 51.012 63.9805 49.2709C63.9805 48.1393 63.3704 47.3558 62.1501 47.0076C63.1089 46.6594 63.6319 45.963 63.6319 44.9184C63.6319 43.4385 62.4987 42.481 60.5811 42.481C58.5763 42.481 57.356 43.3515 57.356 45.0054C57.356 45.963 57.879 46.6594 58.9249 47.0947C57.7918 47.4429 57.1816 48.2263 57.1816 49.358ZM60.5811 43.3515C61.4527 43.3515 61.8886 43.9608 61.8886 45.0054C61.8886 46.0501 61.3656 46.6594 60.6682 46.6594C59.8838 46.6594 59.3608 46.0501 59.3608 45.0054C59.2736 43.9608 59.7966 43.3515 60.5811 43.3515ZM60.5811 47.5299C61.5399 47.5299 62.1501 48.2263 62.1501 49.358C62.1501 50.4897 61.5399 51.099 60.6682 51.099C59.7094 51.099 59.0993 50.4026 59.0993 49.2709C59.0993 48.2263 59.6223 47.5299 60.5811 47.5299Z" fill="black" fill-opacity="0.1"/>
<path d="M65.2871 49.358C65.2871 51.012 66.5074 51.9695 68.5994 51.9695C70.7785 51.9695 72.086 51.012 72.086 49.2709C72.086 48.1393 71.4758 47.3558 70.2555 47.0076C71.2143 46.6594 71.7373 45.963 71.7373 44.9184C71.7373 43.4385 70.6042 42.481 68.6865 42.481C66.6818 42.481 65.4614 43.3515 65.4614 45.0054C65.4614 45.963 65.9844 46.6594 67.0304 47.0947C65.8973 47.4429 65.2871 48.2263 65.2871 49.358ZM68.5994 43.3515C69.471 43.3515 69.9069 43.9608 69.9069 45.0054C69.9069 46.0501 69.3839 46.6594 68.6865 46.6594C67.9021 46.6594 67.3791 46.0501 67.3791 45.0054C67.3791 43.9608 67.8149 43.3515 68.5994 43.3515ZM68.5994 47.5299C69.5582 47.5299 70.1683 48.2263 70.1683 49.358C70.1683 50.4897 69.5582 51.099 68.6865 51.099C67.7277 51.099 67.1176 50.4026 67.1176 49.2709C67.2047 48.2263 67.7277 47.5299 68.5994 47.5299Z" fill="black" fill-opacity="0.1"/>
<path d="M77.4022 45.963C76.3562 45.963 75.746 46.3983 75.3102 46.8335C75.3974 44.7443 76.0075 43.3515 77.4022 43.3515C78.5353 43.3515 79.1455 44.4831 79.1455 44.4831V42.8292C79.1455 42.8292 78.4481 42.481 77.315 42.481C75.0487 42.481 73.3926 44.222 73.3926 47.3558C73.3926 50.4897 74.7001 51.8825 76.8792 51.8825C78.884 51.8825 80.1043 50.6638 80.1043 48.6616C80.0171 46.9206 79.0583 45.963 77.4022 45.963ZM76.8792 51.099C75.9204 51.099 75.3102 50.3156 75.223 47.8781C75.5717 47.5299 76.0075 47.0947 76.7049 47.0947C77.6637 47.0947 78.1867 47.704 78.1867 49.0098C78.2738 50.3156 77.7508 51.099 76.8792 51.099Z" fill="black" fill-opacity="0.1"/>
<path d="M70.9529 16.2786C57.9653 3.30794 36.9586 3.30794 24.0581 16.2786C17.7822 22.5462 14.5571 30.7291 14.3828 38.9119V38.9989C14.3828 39.3471 14.3828 39.6953 14.3828 40.0435C14.3828 39.8694 14.3828 39.7824 14.3828 39.6083C14.3828 42.3939 14.6443 45.2666 15.4288 48.1393C19.9614 65.8977 38.0917 76.518 55.7862 71.9042C64.154 69.728 70.8658 64.5919 75.224 57.889H75.1368C71.2144 63.5473 65.2872 67.9869 58.0525 69.815C41.8398 73.9935 25.2784 64.3308 21.0945 48.1393C20.31 45.0925 20.0485 41.9586 20.2229 38.9119H21.6175C21.5303 41.3493 21.7918 43.8738 22.4892 46.3983C26.1501 60.9358 40.9681 69.6409 55.5247 65.8977C60.8418 64.5049 65.2872 61.6322 68.6866 57.889C64.3284 61.9804 58.4883 64.5049 52.0381 64.5049C45.0649 64.5049 38.789 61.5452 34.3436 56.8444C34.2564 56.7573 34.1693 56.6703 34.0821 56.5832C33.9949 56.5832 33.9949 56.4962 33.9078 56.4091C31.38 53.6235 29.4624 50.2285 28.5035 46.3112C27.8934 43.8738 27.6319 41.3493 27.8062 38.9119H29.3752C29.288 41.0011 29.4624 43.0903 29.9854 45.1795C32.8618 56.3221 44.2804 62.938 55.3504 60.0653C57.268 59.543 59.0985 58.7595 60.6674 57.802H60.2316C58.0525 58.7595 55.6119 59.2818 53.0841 59.2818C43.1473 59.2818 35.0409 51.1861 35.0409 41.2622C35.0409 40.4788 35.1281 39.6953 35.2153 38.9119H39.9222H59.4471H65.8102H67.4663H73.655H74.7882H80.6282C80.4539 30.7291 77.2288 22.5462 70.9529 16.2786ZM24.8426 38.0413C25.4528 34.7334 27.0217 31.5125 29.6367 28.901C36.5227 22.0239 47.6799 22.0239 54.5659 28.901C56.3092 30.642 57.6167 32.7312 58.4883 34.9946L24.8426 38.0413ZM64.8514 34.3852C63.8926 31.4255 62.2364 28.5528 59.7958 26.2024C51.6894 18.1066 38.4404 18.1066 30.334 26.2024C27.0217 29.5103 25.1041 33.6888 24.494 38.0413L19.1769 38.4766C19.8742 33.3406 22.1405 28.3787 26.0629 24.4614C35.5639 14.9728 50.9921 14.9728 60.4931 24.4614C63.3696 27.3341 65.2872 30.642 66.4203 34.2111L64.8514 34.3852ZM72.7834 33.6888C71.6502 29.1621 69.2968 24.8096 65.723 21.2405C55.0017 10.5332 37.743 10.5332 27.0217 21.2405C22.2277 26.0283 19.6127 32.2089 19.1769 38.4766L16.0389 38.7378L14.3828 38.8248C14.7315 31.5996 17.6951 24.5484 23.1865 19.0642C34.9538 7.31229 54.1301 7.31229 65.9845 19.1512C70.0813 23.2427 72.7834 28.2916 74.0037 33.5147L72.7834 33.6888Z" fill="black" fill-opacity="0.1"/>
<path d="M191.328 18.0196H194.727L192.199 25.3319H189.41L191.328 18.0196ZM196.994 18.0196H200.48L197.604 25.3319H194.64L196.994 18.0196Z" fill="black" fill-opacity="0.1"/>
<path d="M287.384 18.0196H290.784L288.256 25.3319H285.467L287.384 18.0196ZM293.05 18.0196H296.537L293.66 25.3319H290.697L293.05 18.0196Z" fill="black" fill-opacity="0.1"/>
<path d="M108.609 59.2818C108.609 57.9761 108.609 57.3667 108.521 56.9315H109.655C109.568 57.3667 109.568 57.9761 109.568 59.2818C109.568 60.7617 109.568 61.3711 109.655 61.8063H108.521C108.609 61.3711 108.609 60.7617 108.609 59.2818Z" fill="black" fill-opacity="0.1"/>
<path d="M99.0208 61.6322V60.6746C99.0208 60.6746 99.5437 61.5451 100.59 61.5451C101.113 61.5451 101.374 61.284 101.374 60.9358C101.374 60.5876 101.287 60.4135 100.764 60.1523L99.8924 59.543C99.1951 59.1077 98.9336 58.7595 98.9336 58.2372C98.9336 57.4538 99.5437 57.0185 100.59 57.0185C101.461 57.0185 101.984 57.2796 101.984 57.2796V58.2372C101.984 58.2372 101.461 57.5408 100.59 57.5408C100.154 57.5408 99.8924 57.802 99.8924 58.1502C99.8924 58.4984 99.9796 58.6725 100.503 59.0207L101.374 59.63C102.072 60.0653 102.333 60.4135 102.333 60.9358C102.333 61.7192 101.723 62.2416 100.59 62.2416C99.6309 61.8934 99.0208 61.6322 99.0208 61.6322Z" fill="black" fill-opacity="0.1"/>
<path d="M120.289 56.9315V57.6279C119.766 57.3667 119.33 57.3667 118.981 57.3667H118.807V59.2818C118.807 60.7617 118.807 61.3711 118.894 61.8063H117.761C117.848 61.284 117.848 60.7617 117.848 59.2818V57.3667H117.674C117.238 57.3667 116.889 57.4538 116.279 57.6279V56.9315H120.289Z" fill="black" fill-opacity="0.1"/>
<path d="M115.494 56.8444C115.407 57.3667 115.407 57.7149 115.407 59.0207V61.7193H114.796L111.833 58.2372V59.4559C111.833 60.7617 111.833 61.1969 112.007 61.7193H111.223C111.31 61.1969 111.31 60.7617 111.31 59.4559V57.802C111.31 57.3667 111.31 57.1926 111.223 56.8444H111.833L114.884 60.4135V59.0207C114.884 57.7149 114.884 57.3667 114.709 56.8444H115.494Z" fill="black" fill-opacity="0.1"/>
<path d="M107.562 61.7192H106.341C106.254 61.1969 106.167 60.7617 105.993 60.2394L105.906 60.1523H103.988V60.2394C103.814 60.7617 103.726 61.1969 103.639 61.7192H102.768C103.029 61.1969 103.029 61.1099 103.203 60.6746L104.772 56.7573H105.557L107.126 60.6746C107.3 61.1969 107.3 61.284 107.562 61.7192ZM105.731 59.8041L104.947 57.8019L104.249 59.8041H105.731Z" fill="black" fill-opacity="0.1"/>
<path d="M177.468 60.9358V61.7193H174.33C174.417 61.1969 174.417 60.6746 174.417 59.1948C174.417 57.889 174.417 57.2796 174.33 56.8444H177.381V57.5408C176.684 57.2796 176.161 57.2796 175.463 57.2796H175.376V58.9336C175.986 58.9336 176.335 58.9336 176.945 58.7595V59.543C176.335 59.4559 175.986 59.3689 175.376 59.3689V61.284H175.638C176.335 61.284 176.858 61.284 177.468 60.9358Z" fill="black" fill-opacity="0.1"/>
<path d="M182.001 60.9358V61.7193H178.775C178.863 61.197 178.863 60.9358 178.863 60.4135V58.2372C178.863 57.6279 178.863 57.3667 178.775 56.9315H179.909C179.821 57.4538 179.821 57.7149 179.821 58.2372V61.284H180.257C180.955 61.284 181.39 61.197 182.001 60.9358Z" fill="black" fill-opacity="0.1"/>
<path d="M186.446 60.9358V61.7193H183.221C183.308 61.1969 183.308 60.6746 183.308 59.1948C183.308 57.889 183.308 57.2796 183.221 56.8444H186.271V57.5408C185.574 57.2796 185.051 57.2796 184.354 57.2796H184.267V58.9336C184.877 58.9336 185.225 58.9336 185.836 58.7595V59.543C185.225 59.4559 184.877 59.3689 184.267 59.3689V61.284H184.528C185.225 61.284 185.836 61.284 186.446 60.9358Z" fill="black" fill-opacity="0.1"/>
<path d="M187.406 59.4559C187.406 57.802 188.539 56.8444 190.108 56.8444C190.893 56.8444 191.503 57.0185 191.503 57.0185V57.9761C191.503 57.9761 191.067 57.3667 190.196 57.3667C189.15 57.3667 188.539 58.1502 188.539 59.4559C188.539 60.7617 189.15 61.5452 190.283 61.5452C191.242 61.5452 191.677 61.0229 191.677 61.0229L191.764 61.6322C191.764 61.6322 191.154 61.9804 190.021 61.9804C188.452 61.8934 187.406 61.0229 187.406 59.4559Z" fill="black" fill-opacity="0.1"/>
<path d="M196.297 56.8444V57.5408C195.774 57.2796 195.338 57.2796 194.989 57.2796H194.815V59.1948C194.815 60.6746 194.815 61.284 194.902 61.7193H193.769C193.856 61.1969 193.856 60.6746 193.856 59.1948V57.2796H193.682C193.246 57.2796 192.897 57.3667 192.287 57.5408V56.8444H196.297Z" fill="black" fill-opacity="0.1"/>
<path d="M200.305 61.7193L198.824 59.63H198.736H198.388C198.388 60.6746 198.388 61.1969 198.475 61.7193H197.342C197.429 61.1969 197.429 60.6746 197.429 59.1948C197.429 57.889 197.429 57.2796 197.342 56.8444H199.085C200.218 56.8444 200.828 57.2796 200.828 58.1502C200.828 58.8466 200.48 59.2818 199.782 59.543L200.131 59.9782C200.741 60.7617 201.09 61.1969 201.613 61.7193H200.305ZM198.736 59.1948C199.521 59.1948 199.87 58.8466 199.87 58.2372C199.87 57.6278 199.521 57.2796 198.911 57.2796H198.475V59.1948H198.736Z" fill="black" fill-opacity="0.1"/>
<path d="M202.223 59.4559C202.223 57.889 203.181 56.8444 204.838 56.8444C206.319 56.8444 207.278 57.802 207.278 59.3689C207.278 60.9358 206.319 61.9804 204.663 61.9804C203.181 61.8934 202.223 61.0229 202.223 59.4559ZM206.232 59.4559C206.232 58.1502 205.622 57.3667 204.75 57.3667C203.879 57.3667 203.269 58.1502 203.269 59.4559C203.269 60.7617 203.879 61.5452 204.75 61.5452C205.709 61.4581 206.232 60.7617 206.232 59.4559Z" fill="black" fill-opacity="0.1"/>
<path d="M211.986 56.8444V57.5408C211.463 57.2796 211.027 57.2796 210.679 57.2796H210.504V59.1948C210.504 60.6746 210.504 61.284 210.591 61.7193H209.458C209.546 61.1969 209.546 60.6746 209.546 59.1948V57.2796H209.371C208.935 57.2796 208.587 57.3667 207.977 57.5408V56.8444H211.986Z" fill="black" fill-opacity="0.1"/>
<path d="M216.344 60.9358V61.7193H213.119C213.206 61.1969 213.206 60.6746 213.206 59.1948C213.206 57.889 213.206 57.2796 213.119 56.8444H216.17V57.5408C215.473 57.2796 214.95 57.2796 214.252 57.2796H214.165V58.9336C214.775 58.9336 215.124 58.9336 215.734 58.7595V59.543C215.124 59.4559 214.775 59.3689 214.165 59.3689V61.284H214.427C215.211 61.284 215.734 61.284 216.344 60.9358Z" fill="black" fill-opacity="0.1"/>
<path d="M217.303 59.4559C217.303 57.802 218.436 56.8444 220.005 56.8444C220.789 56.8444 221.399 57.0185 221.399 57.0185V57.9761C221.399 57.9761 220.964 57.3667 220.092 57.3667C219.046 57.3667 218.436 58.1502 218.436 59.4559C218.436 60.7617 219.046 61.5452 220.179 61.5452C221.138 61.5452 221.574 61.0229 221.574 61.0229L221.661 61.6322C221.661 61.6322 221.051 61.9804 219.918 61.9804C218.349 61.8934 217.303 61.0229 217.303 59.4559Z" fill="black" fill-opacity="0.1"/>
<path d="M226.978 59.1948C226.978 60.6746 226.978 61.284 227.065 61.7193H225.932C226.019 61.284 226.019 60.6746 226.019 59.3689H223.753C223.753 60.6746 223.753 61.1969 223.84 61.7193H222.707C222.794 61.1969 222.794 60.6746 222.794 59.1948C222.794 57.889 222.794 57.2796 222.707 56.8444H223.84C223.753 57.2796 223.753 57.8019 223.753 58.9336H226.019C226.019 57.8019 226.019 57.2796 225.932 56.8444H227.065C226.978 57.3667 226.978 57.889 226.978 59.1948Z" fill="black" fill-opacity="0.1"/>
<path d="M232.906 56.8444C232.819 57.3667 232.819 57.7149 232.819 59.0207V61.7193H232.209L229.245 58.2372V59.4559C229.245 60.7617 229.245 61.1969 229.419 61.7193H228.635C228.722 61.1969 228.722 60.7617 228.722 59.4559V57.802C228.722 57.3667 228.722 57.1926 228.635 56.8444H229.245L232.296 60.4135V59.0207C232.296 57.7149 232.296 57.3667 232.121 56.8444H232.906Z" fill="black" fill-opacity="0.1"/>
<path d="M234.562 59.1948C234.562 57.889 234.562 57.2796 234.475 56.8444H235.608C235.521 57.2796 235.521 57.889 235.521 59.1948C235.521 60.6746 235.521 61.284 235.608 61.7193H234.475C234.562 61.284 234.562 60.6746 234.562 59.1948Z" fill="black" fill-opacity="0.1"/>
<path d="M236.828 59.4559C236.828 57.802 237.961 56.8444 239.53 56.8444C240.315 56.8444 240.925 57.0185 240.925 57.0185V57.9761C240.925 57.9761 240.489 57.3667 239.617 57.3667C238.571 57.3667 237.961 58.1502 237.961 59.4559C237.961 60.7617 238.571 61.5452 239.705 61.5452C240.663 61.5452 241.099 61.0229 241.099 61.0229L241.186 61.6322C241.186 61.6322 240.576 61.9804 239.443 61.9804C237.874 61.8934 236.828 61.0229 236.828 59.4559Z" fill="black" fill-opacity="0.1"/>
<path d="M246.503 61.7192H245.283C245.196 61.1969 245.108 60.7617 244.934 60.2394L244.847 60.1523H242.929V60.2394C242.755 60.7617 242.668 61.1969 242.581 61.7192H241.709C241.97 61.1969 241.97 61.1099 242.145 60.6746L243.714 56.7573H244.498L246.067 60.6746C246.154 61.1969 246.241 61.284 246.503 61.7192ZM244.585 59.8041L243.801 57.8019L243.104 59.8041H244.585Z" fill="black" fill-opacity="0.1"/>
<path d="M250.6 60.9358V61.7193H247.375C247.462 61.197 247.462 60.9358 247.462 60.4135V58.2372C247.462 57.6279 247.462 57.3667 247.375 56.9315H248.508C248.421 57.4538 248.421 57.7149 248.421 58.2372V61.284H248.857C249.554 61.284 250.077 61.197 250.6 60.9358Z" fill="black" fill-opacity="0.1"/>
<path d="M257.312 59.8041C257.312 61.1099 256.527 61.8063 255.307 61.8063C254.086 61.8063 253.302 61.0228 253.302 59.8041V58.1502C253.302 57.5408 253.302 57.2796 253.215 56.8444H254.348C254.261 57.3667 254.261 57.6279 254.261 58.1502V59.8041C254.261 60.7617 254.697 61.371 255.481 61.371C256.266 61.371 256.789 60.8487 256.789 59.8041V58.1502C256.789 57.5408 256.789 57.2796 256.614 56.8444H257.486C257.399 57.3667 257.312 57.6279 257.312 58.1502V59.8041Z" fill="black" fill-opacity="0.1"/>
<path d="M263.24 56.8444C263.153 57.3667 263.153 57.7149 263.153 59.0207V61.7193H262.543L259.579 58.2372V59.4559C259.579 60.7617 259.579 61.1969 259.753 61.7193H258.969C259.056 61.1969 259.056 60.7617 259.056 59.4559V57.802C259.056 57.3667 259.056 57.1926 258.969 56.8444H259.579L262.63 60.4135V59.0207C262.63 57.7149 262.63 57.3667 262.455 56.8444H263.24Z" fill="black" fill-opacity="0.1"/>
<path d="M264.896 59.1948C264.896 57.889 264.896 57.2796 264.809 56.8444H265.942C265.855 57.2796 265.855 57.889 265.855 59.1948C265.855 60.6746 265.855 61.284 265.942 61.7193H264.809C264.896 61.284 264.896 60.6746 264.896 59.1948Z" fill="black" fill-opacity="0.1"/>
<path d="M271.693 56.8444C271.432 57.3667 271.345 57.5408 270.996 58.4983L269.688 61.7192H269.253H268.991L267.596 58.1501C267.335 57.5408 267.248 57.2796 266.986 56.7573H268.207C268.207 57.2796 268.294 57.5408 268.642 58.4113L269.601 60.6746L270.473 58.4113C270.822 57.5408 270.822 57.2796 270.909 56.7573H271.693V56.8444Z" fill="black" fill-opacity="0.1"/>
<path d="M275.878 60.9358V61.7193H272.652C272.74 61.1969 272.74 60.6746 272.74 59.1948C272.74 57.889 272.74 57.2796 272.652 56.8444H275.703V57.5408C275.006 57.2796 274.483 57.2796 273.786 57.2796H273.698V58.9336C274.309 58.9336 274.657 58.9336 275.267 58.7595V59.543C274.657 59.4559 274.309 59.3689 273.698 59.3689V61.284H273.96C274.657 61.284 275.267 61.284 275.878 60.9358Z" fill="black" fill-opacity="0.1"/>
<path d="M280.062 61.7193L278.58 59.63H278.493H278.144C278.144 60.6746 278.144 61.1969 278.232 61.7193H277.186C277.273 61.1969 277.273 60.6746 277.273 59.1948C277.273 57.889 277.273 57.2796 277.186 56.8444H278.929C280.062 56.8444 280.672 57.2796 280.672 58.1502C280.672 58.8466 280.323 59.2818 279.626 59.543L279.975 59.9782C280.585 60.7617 280.934 61.1969 281.457 61.7193H280.062ZM278.493 59.1948C279.277 59.1948 279.626 58.8466 279.626 58.2372C279.626 57.6278 279.277 57.2796 278.667 57.2796H278.232V59.1948H278.493Z" fill="black" fill-opacity="0.1"/>
<path d="M282.066 61.6322V60.6746C282.066 60.6746 282.589 61.5451 283.635 61.5451C284.158 61.5451 284.42 61.284 284.42 60.9358C284.42 60.5876 284.333 60.4135 283.897 60.1523L283.025 59.543C282.328 59.1077 282.066 58.7595 282.066 58.2372C282.066 57.4538 282.677 57.0185 283.723 57.0185C284.594 57.0185 285.117 57.2796 285.117 57.2796V58.2372C285.117 58.2372 284.594 57.5408 283.723 57.5408C283.287 57.5408 283.025 57.802 283.025 58.1502C283.025 58.4984 283.112 58.6725 283.635 59.0207L284.507 59.63C285.204 60.0653 285.466 60.4135 285.466 60.9358C285.466 61.7192 284.856 62.2416 283.723 62.2416C282.764 61.8934 282.066 61.6322 282.066 61.6322Z" fill="black" fill-opacity="0.1"/>
<path d="M286.773 59.1948C286.773 57.889 286.773 57.2796 286.686 56.8444H287.819C287.732 57.2796 287.732 57.889 287.732 59.1948C287.732 60.6746 287.732 61.284 287.819 61.7193H286.686C286.773 61.284 286.773 60.6746 286.773 59.1948Z" fill="black" fill-opacity="0.1"/>
<path d="M292.963 56.8444V57.5408C292.44 57.2796 292.004 57.2796 291.655 57.2796H291.481V59.1948C291.481 60.6746 291.481 61.284 291.568 61.7193H290.435C290.522 61.1969 290.522 60.6746 290.522 59.1948V57.2796H290.348C289.912 57.2796 289.563 57.3667 288.953 57.5408V56.8444H292.963Z" fill="black" fill-opacity="0.1"/>
<path d="M295.665 59.63V60.4135C295.665 61.0228 295.665 61.284 295.752 61.7193H294.619C294.706 61.1969 294.706 60.9358 294.706 60.4135V59.63L293.66 57.889C293.399 57.5408 293.312 57.3667 292.963 56.8444H294.27C294.358 57.3667 294.532 57.5408 294.968 58.2372L295.491 59.1077L295.926 58.3243C296.362 57.6278 296.449 57.3667 296.537 56.8444H297.495C297.147 57.3667 297.06 57.4537 296.798 57.889L295.665 59.63Z" fill="black" fill-opacity="0.1"/>
<path d="M127 58.2372C127 59.2818 126.303 59.8041 124.908 59.8041H124.56C124.56 60.7617 124.56 61.284 124.647 61.8063H123.514C123.601 61.284 123.601 60.7617 123.601 59.2818C123.601 57.889 123.601 57.3667 123.514 56.9315H125.257C126.39 56.8444 127 57.3667 127 58.2372ZM126.041 58.3243C126.041 57.7149 125.693 57.3667 125.083 57.3667H124.647V59.4559H124.908C125.606 59.3689 126.041 59.0207 126.041 58.3243Z" fill="black" fill-opacity="0.1"/>
<path d="M154.979 60.3264C154.979 61.284 154.282 61.7193 152.887 61.7193H151.318C151.406 61.1969 151.406 60.6746 151.406 59.1948C151.406 57.802 151.406 57.2796 151.318 56.8444H153.062C154.195 56.8444 154.718 57.1926 154.718 57.9761C154.718 58.4984 154.369 59.0207 153.585 59.1948C154.631 59.2818 154.979 59.7171 154.979 60.3264ZM152.364 57.2796V58.9336H152.713C153.41 58.9336 153.759 58.6725 153.759 58.0631C153.759 57.5408 153.41 57.2796 152.8 57.2796H152.364ZM154.02 60.4135C154.02 59.7171 153.497 59.4559 152.8 59.4559H152.452V61.371H152.8C153.497 61.284 154.02 61.0228 154.02 60.4135Z" fill="black" fill-opacity="0.1"/>
<path d="M146.698 61.6322V60.6746C146.698 60.6746 147.221 61.5451 148.267 61.5451C148.79 61.5451 149.052 61.284 149.052 60.9358C149.052 60.5876 148.965 60.4135 148.442 60.1523L147.57 59.543C146.873 59.1077 146.611 58.7595 146.611 58.2372C146.611 57.4538 147.221 57.0185 148.267 57.0185C149.139 57.0185 149.662 57.2796 149.662 57.2796V58.2372C149.662 58.2372 149.139 57.5408 148.267 57.5408C147.832 57.5408 147.57 57.802 147.57 58.1502C147.57 58.4984 147.657 58.6725 148.18 59.0207L149.052 59.63C149.749 60.0653 150.011 60.4135 150.011 60.9358C150.011 61.7192 149.401 62.2416 148.267 62.2416C147.309 61.8934 146.698 61.6322 146.698 61.6322Z" fill="black" fill-opacity="0.1"/>
<path d="M140.249 60.9358V61.7193H137.023C137.111 61.1969 137.111 60.6746 137.111 59.1948C137.111 57.889 137.111 57.2796 137.023 56.8444H140.074V57.5408C139.377 57.2796 138.854 57.2796 138.157 57.2796H138.069V58.9336C138.68 58.9336 139.028 58.9336 139.638 58.7595V59.543C139.028 59.4559 138.68 59.3689 138.069 59.3689V61.284H138.331C139.115 61.284 139.638 61.284 140.249 60.9358Z" fill="black" fill-opacity="0.1"/>
<path d="M131.358 60.9358V61.7193H128.133C128.22 61.1969 128.22 60.6746 128.22 59.1948C128.22 57.889 128.22 57.2796 128.133 56.8444H131.184V57.5408C130.486 57.2796 129.963 57.2796 129.266 57.2796H129.179V58.9336C129.789 58.9336 130.138 58.9336 130.748 58.7595V59.543C130.138 59.4559 129.789 59.3689 129.179 59.3689V61.284H129.44C130.225 61.284 130.748 61.284 131.358 60.9358Z" fill="black" fill-opacity="0.1"/>
<path d="M135.89 56.8444V57.5408C135.367 57.2796 134.932 57.2796 134.583 57.2796H134.409V59.1948C134.409 60.6746 134.409 61.284 134.496 61.7193H133.363C133.45 61.1969 133.45 60.6746 133.45 59.1948V57.2796H133.275C132.84 57.2796 132.491 57.3667 131.881 57.5408V56.8444H135.89Z" fill="black" fill-opacity="0.1"/>
<path d="M144.608 61.7193L143.126 59.63H143.039H142.691C142.691 60.6746 142.691 61.1969 142.778 61.7193H141.645C141.732 61.1969 141.732 60.6746 141.732 59.1948C141.732 57.889 141.732 57.2796 141.645 56.8444H143.388C144.521 56.8444 145.131 57.2796 145.131 58.1502C145.131 58.8466 144.782 59.2818 144.085 59.543L144.434 59.9782C145.044 60.7617 145.393 61.1969 145.916 61.7193H144.608ZM142.952 59.1948C143.737 59.1948 144.085 58.8466 144.085 58.2372C144.085 57.6278 143.737 57.2796 143.126 57.2796H142.691V59.1948H142.952Z" fill="black" fill-opacity="0.1"/>
<path d="M164.393 61.7193L162.911 59.63H162.824H162.476C162.476 60.6746 162.476 61.1969 162.563 61.7193H161.43C161.517 61.1969 161.517 60.6746 161.517 59.1948C161.517 57.889 161.517 57.2796 161.43 56.8444H163.173C164.306 56.8444 164.916 57.2796 164.916 58.1502C164.916 58.8466 164.568 59.2818 163.87 59.543L164.219 59.9782C164.829 60.7617 165.178 61.1969 165.701 61.7193H164.393ZM162.824 59.1948C163.609 59.1948 163.957 58.8466 163.957 58.2372C163.957 57.6278 163.609 57.2796 162.999 57.2796H162.563V59.1948H162.824Z" fill="black" fill-opacity="0.1"/>
<path d="M160.21 59.8041C160.21 61.1099 159.426 61.8063 158.205 61.8063C156.985 61.8063 156.2 61.0228 156.2 59.8041V58.1502C156.2 57.5408 156.2 57.2796 156.113 56.8444H157.246C157.159 57.3667 157.159 57.6279 157.159 58.1502V59.8041C157.159 60.7617 157.595 61.371 158.38 61.371C159.164 61.371 159.687 60.8487 159.687 59.8041V58.1502C159.687 57.5408 159.687 57.2796 159.513 56.8444H160.384C160.297 57.3667 160.21 57.6279 160.21 58.1502V59.8041Z" fill="black" fill-opacity="0.1"/>
<path d="M170.757 59.63H169.624C169.711 60.1523 169.711 60.4135 169.711 60.9358V61.1969V61.284C169.537 61.4581 169.275 61.4581 169.014 61.4581C168.752 61.4581 168.578 61.371 168.317 61.284C168.142 61.1969 167.968 61.0228 167.794 60.9358C167.619 60.7617 167.532 60.5876 167.445 60.3264C167.358 60.0653 167.358 59.8041 167.358 59.543C167.358 59.1948 167.358 58.9336 167.445 58.6725C167.619 57.976 168.055 57.2796 169.014 57.2796C169.886 57.2796 170.321 57.889 170.321 57.889V56.9314C170.321 56.9314 169.711 56.7573 168.927 56.7573C168.404 56.7573 167.968 56.8444 167.532 57.1055C167.096 57.2796 166.835 57.6278 166.573 57.976C166.312 58.4113 166.225 58.8466 166.225 59.4559C166.225 59.8912 166.312 60.2394 166.399 60.5005C166.573 60.8487 166.748 61.0228 167.009 61.284C167.271 61.4581 167.532 61.6322 167.881 61.7192C168.229 61.8063 168.491 61.8933 168.84 61.8933C169.101 61.8933 169.363 61.8934 169.624 61.8063C169.886 61.7192 170.234 61.6322 170.583 61.5451V60.7617C170.67 60.4135 170.757 60.1523 170.757 59.63Z" fill="black" fill-opacity="0.1"/>
</svg>
