<svg width="270" height="70" viewBox="0 0 270 70" fill="none" xmlns="http://www.w3.org/2000/svg">
<path d="M103.125 36.9423V41.1317H86.5977C86.9023 38.6181 86.9785 35.5713 86.9785 27.9543C86.9785 20.9467 86.9023 18.2046 86.5977 15.691H102.364V19.4995C98.7077 18.1284 96.1943 18.0522 92.5384 18.0522H91.9291V26.6594C95.0518 26.6594 96.9559 26.5071 100.079 25.8216V29.8585C96.9559 29.173 95.0518 29.0968 91.9291 29.0207V38.8466H93.3001C97.1083 38.8466 100.002 38.6181 103.125 36.9423Z" fill="#D2D2D2"/>
<path d="M127.498 15.7672V19.5756C124.604 18.4331 122.623 18.1284 120.491 18.1284H119.729V28.0305C119.729 35.6475 119.805 38.6942 120.11 41.2078H114.398C114.702 38.6942 114.778 35.6475 114.778 28.0305V18.1284H114.093C111.732 18.1284 109.828 18.4331 107.01 19.5756V15.7672H127.498Z" fill="#D2D2D2"/>
<path d="M153.773 31.1534C153.773 37.7802 149.889 41.5887 143.339 41.5887C136.865 41.5887 132.752 37.5517 132.752 31.1534V22.7748C132.752 19.728 132.676 18.4331 132.371 15.7672H138.236C137.931 18.4331 137.855 19.6518 137.855 22.7748V31.1534C137.855 36.333 140.064 39.0751 144.1 39.0751C148.289 39.0751 150.727 36.333 150.727 31.1534V22.7748C150.727 19.728 150.574 18.4331 150.041 15.7672H154.535C154.002 18.4331 153.849 19.6518 153.849 22.7748V31.1534H153.773Z" fill="#D2D2D2"/>
<path d="M213.639 36.9423V41.1317H197.111C197.416 38.6181 197.492 35.5713 197.492 27.9543C197.492 20.9467 197.416 18.2046 197.111 15.691H212.877V19.4995C209.221 18.1284 206.708 18.0522 203.052 18.0522H202.443V26.6594C205.565 26.6594 207.47 26.5071 210.592 25.8216V29.8585C207.47 29.173 205.565 29.0968 202.443 29.0207V38.8466H203.814C207.546 38.8466 210.44 38.6181 213.639 36.9423Z" fill="#D2D2D2"/>
<path d="M241.818 27.9543C241.818 20.9467 241.742 18.2046 241.438 15.691H247.15C246.845 18.1284 246.769 20.9467 246.769 27.9543C246.769 35.5713 246.845 38.6181 247.15 41.1317H241.438C241.742 38.6181 241.818 35.5713 241.818 27.9543Z" fill="#D2D2D2"/>
<path d="M193.455 36.9423V41.1317H176.928C177.232 38.4657 177.309 37.247 177.309 34.1241V22.6986C177.309 19.6518 177.232 18.3569 176.928 15.691H182.64C182.259 18.3569 182.259 19.5756 182.259 22.6986V38.6181H184.316C187.819 38.6181 190.561 38.3896 193.455 36.9423Z" fill="#D2D2D2"/>
<path d="M236.488 15.7672V19.5756C233.594 18.4331 231.614 18.1284 229.481 18.1284H228.719V28.0305C228.719 35.6475 228.795 38.6942 229.1 41.2078H223.388C223.692 38.6942 223.769 35.6475 223.769 28.0305V18.1284H223.083C220.722 18.1284 218.818 18.4331 216 19.5756V15.7672H236.488Z" fill="#D2D2D2"/>
<path d="M46.6113 37.3232C46.6875 38.0849 46.7637 38.9989 46.7637 41.2078C46.7637 43.5691 46.7637 44.5593 46.6113 45.321H48.3638C48.2876 44.5593 48.2114 43.5691 48.2114 41.2078C48.2114 38.9989 48.2114 38.161 48.3638 37.3232H46.6113Z" fill="#D2D2D2"/>
<path d="M49.9629 43.1882C49.9629 44.6355 51.0292 45.4733 52.8571 45.4733C54.7612 45.4733 55.9037 44.6355 55.9037 43.1121C55.9037 42.1219 55.3705 41.4363 54.3042 41.1317C55.142 40.827 55.599 40.2176 55.599 39.3036C55.599 38.0087 54.6089 37.1708 52.9333 37.1708C51.1815 37.1708 50.1152 37.9325 50.1152 39.3798C50.1152 40.2176 50.5722 40.827 51.4862 41.2078C50.496 41.5125 49.9629 42.198 49.9629 43.1882ZM52.9333 37.9325C53.6949 37.9325 54.0757 38.4657 54.0757 39.3798C54.0757 40.2938 53.6187 40.827 53.0094 40.827C52.324 40.827 51.867 40.2938 51.867 39.3798C51.7908 38.4657 52.2478 37.9325 52.9333 37.9325ZM52.9333 41.5887C53.7711 41.5887 54.3042 42.198 54.3042 43.1882C54.3042 44.1785 53.7711 44.7116 53.0094 44.7116C52.1716 44.7116 51.6385 44.1023 51.6385 43.1121C51.6385 42.198 52.0955 41.5887 52.9333 41.5887Z" fill="#D2D2D2"/>
<path d="M57.0469 43.1882C57.0469 44.6355 58.1132 45.4733 59.9411 45.4733C61.8452 45.4733 62.9876 44.6355 62.9876 43.1121C62.9876 42.1219 62.4545 41.4363 61.3882 41.1317C62.226 40.827 62.683 40.2176 62.683 39.3036C62.683 38.0087 61.6929 37.1708 60.0173 37.1708C58.2655 37.1708 57.1992 37.9325 57.1992 39.3798C57.1992 40.2176 57.6562 40.827 58.5701 41.2078C57.58 41.5125 57.0469 42.198 57.0469 43.1882ZM59.9411 37.9325C60.7027 37.9325 61.0835 38.4657 61.0835 39.3798C61.0835 40.2938 60.6266 40.827 60.0173 40.827C59.3318 40.827 58.8748 40.2938 58.8748 39.3798C58.8748 38.4657 59.2556 37.9325 59.9411 37.9325ZM59.9411 41.5887C60.7789 41.5887 61.312 42.198 61.312 43.1882C61.312 44.1785 60.7789 44.7116 60.0173 44.7116C59.1795 44.7116 58.6463 44.1023 58.6463 43.1121C58.7225 42.198 59.1795 41.5887 59.9411 41.5887Z" fill="#D2D2D2"/>
<path d="M67.6324 40.2176C66.7185 40.2176 66.1853 40.5985 65.8045 40.9793C65.8807 39.1513 66.4138 37.9325 67.6324 37.9325C68.6226 37.9325 69.1557 38.9227 69.1557 38.9227V37.4755C69.1557 37.4755 68.5464 37.1708 67.5563 37.1708C65.576 37.1708 64.1289 38.6942 64.1289 41.4363C64.1289 44.1785 65.2714 45.3972 67.1754 45.3972C68.9272 45.3972 69.9935 44.3308 69.9935 42.5789C69.9173 41.0555 69.0795 40.2176 67.6324 40.2176ZM67.1754 44.7116C66.3376 44.7116 65.8045 44.0261 65.7283 41.8934C66.033 41.5887 66.4138 41.2078 67.0231 41.2078C67.8609 41.2078 68.3179 41.741 68.3179 42.8836C68.3941 44.0261 67.9371 44.7116 67.1754 44.7116Z" fill="#D2D2D2"/>
<path d="M61.9966 14.2438C50.6482 2.89446 32.2928 2.89446 21.0206 14.2438C15.5368 19.728 12.7187 26.8879 12.5664 34.0479V34.1241C12.5664 34.4287 12.5664 34.7334 12.5664 35.0381C12.5664 34.8858 12.5664 34.8096 12.5664 34.6572C12.5664 37.0947 12.7949 39.6083 13.4804 42.1219C17.4409 57.6605 33.2829 66.9532 48.7441 62.9162C56.0558 61.012 61.9204 56.518 65.7286 50.6529H65.6524C62.2251 55.6039 57.046 59.4886 50.7244 61.0882C36.5579 64.7443 22.0869 56.2895 18.431 42.1219C17.7455 39.4559 17.517 36.7138 17.6694 34.0479H18.888C18.8118 36.1806 19.0403 38.3896 19.6496 40.5985C22.8485 53.3188 35.7963 60.9358 48.5156 57.6605C53.1616 56.4418 57.046 53.9282 60.0163 50.6529C56.2082 54.2329 51.1052 56.4418 45.4691 56.4418C39.376 56.4418 33.8922 53.852 30.0079 49.7389C29.9317 49.6627 29.8555 49.5865 29.7794 49.5103C29.7032 49.5103 29.7032 49.4342 29.6271 49.358C27.4183 46.9206 25.7427 43.95 24.9049 40.5223C24.3718 38.3896 24.1433 36.1806 24.2956 34.0479H25.6665C25.5904 35.876 25.7427 37.704 26.1997 39.5321C28.7131 49.2818 38.6905 55.0707 48.3633 52.5571C50.0389 52.1001 51.6383 51.4146 53.0093 50.5767H52.6285C50.7244 51.4146 48.5918 51.8716 46.3831 51.8716C37.7004 51.8716 30.6172 44.7878 30.6172 36.1045C30.6172 35.4189 30.6933 34.7334 30.7695 34.0479H34.8823H51.943H57.5029H58.95H64.3577H65.3478H70.4508C70.2984 26.8879 67.4804 19.728 61.9966 14.2438ZM21.706 33.2862C22.2392 30.3917 23.6101 27.5735 25.895 25.2884C31.912 19.271 41.6609 19.271 47.6778 25.2884C49.2011 26.8118 50.3436 28.6398 51.1052 30.6202L21.706 33.2862ZM56.6651 30.0871C55.8273 27.4973 54.3802 24.9837 52.2476 22.9271C45.1644 15.8433 33.5876 15.8433 26.5043 22.9271C23.6101 25.8216 21.9345 29.4777 21.4014 33.2862L16.7554 33.667C17.3647 29.173 19.345 24.8313 22.7723 21.4037C31.0742 13.1012 44.5551 13.1012 52.857 21.4037C55.3704 23.9173 57.046 26.8118 58.0361 29.9347L56.6651 30.0871ZM63.596 29.4777C62.6059 25.5169 60.5495 21.7084 57.4268 18.5854C48.0587 9.21655 32.9783 9.21655 23.6101 18.5854C19.4211 22.7748 17.1362 28.1828 16.7554 33.667L14.0135 33.8955L12.5664 33.9717C12.8711 27.6496 15.4606 21.4799 20.2589 16.6812C30.541 6.39826 47.297 6.39826 57.6553 16.7574C61.235 20.3373 63.596 24.7552 64.6623 29.3254L63.596 29.4777Z" fill="#D2D2D2"/>
<path d="M167.18 15.7672H170.15L167.941 22.1654H165.504L167.18 15.7672ZM172.13 15.7672H175.177L172.663 22.1654H170.074L172.13 15.7672Z" fill="#D2D2D2"/>
<path d="M251.111 15.7672H254.082L251.873 22.1654H249.436L251.111 15.7672ZM256.062 15.7672H259.108L256.595 22.1654H254.005L256.062 15.7672Z" fill="#D2D2D2"/>
<path d="M94.8985 51.8716C94.8985 50.7291 94.8985 50.1959 94.8223 49.815H95.8128C95.7366 50.1959 95.7366 50.7291 95.7366 51.8716C95.7366 53.1665 95.7366 53.6997 95.8128 54.0805H94.8223C94.8985 53.6997 94.8985 53.1665 94.8985 51.8716Z" fill="#D2D2D2"/>
<path d="M86.5215 53.9282V53.0903C86.5215 53.0903 86.9785 53.852 87.8924 53.852C88.3494 53.852 88.5779 53.6235 88.5779 53.3188C88.5779 53.0142 88.5017 52.8618 88.0447 52.6333L87.2831 52.1001C86.6738 51.7193 86.4453 51.4146 86.4453 50.9576C86.4453 50.2721 86.9785 49.8912 87.8924 49.8912C88.6541 49.8912 89.111 50.1197 89.111 50.1197V50.9576C89.111 50.9576 88.6541 50.3482 87.8924 50.3482C87.5116 50.3482 87.2831 50.5767 87.2831 50.8814C87.2831 51.1861 87.3593 51.3384 87.8163 51.6431L88.5779 52.1763C89.1872 52.5571 89.4157 52.8618 89.4157 53.3188C89.4157 54.0044 88.8825 54.4614 87.8924 54.4614C87.0546 54.1567 86.5215 53.9282 86.5215 53.9282Z" fill="#D2D2D2"/>
<path d="M105.105 49.815V50.4244C104.648 50.1959 104.267 50.1959 103.963 50.1959H103.81V51.8716C103.81 53.1665 103.81 53.6997 103.886 54.0805H102.896C102.973 53.6235 102.973 53.1665 102.973 51.8716V50.1959H102.82C102.439 50.1959 102.135 50.272 101.602 50.4244V49.815H105.105Z" fill="#D2D2D2"/>
<path d="M100.916 49.7389C100.839 50.1959 100.839 50.5006 100.839 51.6431V54.0044H100.306L97.7167 50.9576V52.024C97.7167 53.1665 97.7167 53.5474 97.8691 54.0044H97.1836C97.2598 53.5474 97.2598 53.1665 97.2598 52.024V50.5767C97.2598 50.1959 97.2598 50.0435 97.1836 49.7389H97.7167L100.382 52.8618V51.6431C100.382 50.5006 100.382 50.1959 100.23 49.7389H100.916Z" fill="#D2D2D2"/>
<path d="M93.9859 54.0044H92.9196C92.8434 53.5474 92.7673 53.1665 92.6149 52.7095L92.5388 52.6333H90.8632V52.7095C90.7108 53.1665 90.6347 53.5474 90.5585 54.0044H89.7969C90.0254 53.5474 90.0254 53.4712 90.1777 53.0903L91.5486 49.6627H92.2341L93.6051 53.0903C93.7574 53.5473 93.7574 53.6235 93.9859 54.0044ZM92.3864 52.3286L91.701 50.5767L91.0917 52.3286H92.3864Z" fill="#D2D2D2"/>
<path d="M155.068 53.3188V54.0044H152.326C152.402 53.5474 152.402 53.0903 152.402 51.7954C152.402 50.6529 152.402 50.1197 152.326 49.7389H154.992V50.3482C154.383 50.1197 153.926 50.1197 153.316 50.1197H153.24V51.5669C153.773 51.5669 154.078 51.5669 154.611 51.4146V52.1001C154.078 52.024 153.773 51.9478 153.24 51.9478V53.6235H153.469C154.078 53.6235 154.535 53.6235 155.068 53.3188Z" fill="#D2D2D2"/>
<path d="M159.029 53.3188V54.0044H156.211C156.287 53.5473 156.287 53.3188 156.287 52.8618V50.9576C156.287 50.4244 156.287 50.1959 156.211 49.815H157.201C157.125 50.2721 157.125 50.5006 157.125 50.9576V53.6235H157.506C158.115 53.6235 158.496 53.5473 159.029 53.3188Z" fill="#D2D2D2"/>
<path d="M162.914 53.3188V54.0044H160.096C160.172 53.5474 160.172 53.0903 160.172 51.7954C160.172 50.6529 160.172 50.1197 160.096 49.7389H162.761V50.3482C162.152 50.1197 161.695 50.1197 161.086 50.1197H161.01V51.5669C161.543 51.5669 161.847 51.5669 162.381 51.4146V52.1001C161.847 52.024 161.543 51.9478 161.01 51.9478V53.6235H161.238C161.847 53.6235 162.381 53.6235 162.914 53.3188Z" fill="#D2D2D2"/>
<path d="M163.752 52.024C163.752 50.5767 164.742 49.7389 166.113 49.7389C166.798 49.7389 167.332 49.8912 167.332 49.8912V50.7291C167.332 50.7291 166.951 50.1959 166.189 50.1959C165.275 50.1959 164.742 50.8814 164.742 52.024C164.742 53.1665 165.275 53.852 166.265 53.852C167.103 53.852 167.484 53.395 167.484 53.395L167.56 53.9282C167.56 53.9282 167.027 54.2329 166.037 54.2329C164.666 54.1567 163.752 53.395 163.752 52.024Z" fill="#D2D2D2"/>
<path d="M171.519 49.7389V50.3482C171.062 50.1197 170.681 50.1197 170.377 50.1197H170.224V51.7954C170.224 53.0903 170.224 53.6235 170.301 54.0044H169.31C169.387 53.5474 169.387 53.0903 169.387 51.7954V50.1197H169.234C168.853 50.1197 168.549 50.1959 168.016 50.3482V49.7389H171.519Z" fill="#D2D2D2"/>
<path d="M175.023 54.0044L173.728 52.1763H173.652H173.348C173.348 53.0903 173.348 53.5474 173.424 54.0044H172.434C172.51 53.5474 172.51 53.0903 172.51 51.7954C172.51 50.6529 172.51 50.1197 172.434 49.7389H173.957C174.947 49.7389 175.48 50.1197 175.48 50.8814C175.48 51.4908 175.175 51.8716 174.566 52.1001L174.871 52.481C175.404 53.1665 175.709 53.5474 176.166 54.0044H175.023ZM173.652 51.7954C174.338 51.7954 174.642 51.4908 174.642 50.9576C174.642 50.4244 174.338 50.1197 173.805 50.1197H173.424V51.7954H173.652Z" fill="#D2D2D2"/>
<path d="M176.699 52.024C176.699 50.6529 177.537 49.7389 178.984 49.7389C180.279 49.7389 181.117 50.5767 181.117 51.9478C181.117 53.3188 180.279 54.2329 178.832 54.2329C177.537 54.1567 176.699 53.395 176.699 52.024ZM180.203 52.024C180.203 50.8814 179.67 50.1959 178.908 50.1959C178.146 50.1959 177.613 50.8814 177.613 52.024C177.613 53.1665 178.146 53.852 178.908 53.852C179.746 53.7759 180.203 53.1665 180.203 52.024Z" fill="#D2D2D2"/>
<path d="M185.23 49.7389V50.3482C184.773 50.1197 184.392 50.1197 184.088 50.1197H183.935V51.7954C183.935 53.0903 183.935 53.6235 184.011 54.0044H183.021C183.097 53.5474 183.097 53.0903 183.097 51.7954V50.1197H182.945C182.564 50.1197 182.26 50.1959 181.727 50.3482V49.7389H185.23Z" fill="#D2D2D2"/>
<path d="M189.037 53.3188V54.0044H186.219C186.295 53.5474 186.295 53.0903 186.295 51.7954C186.295 50.6529 186.295 50.1197 186.219 49.7389H188.884V50.3482C188.275 50.1197 187.818 50.1197 187.209 50.1197H187.133V51.5669C187.666 51.5669 187.971 51.5669 188.504 51.4146V52.1001C187.971 52.024 187.666 51.9478 187.133 51.9478V53.6235H187.361C188.047 53.6235 188.504 53.6235 189.037 53.3188Z" fill="#D2D2D2"/>
<path d="M189.875 52.024C189.875 50.5767 190.865 49.7389 192.236 49.7389C192.922 49.7389 193.455 49.8912 193.455 49.8912V50.7291C193.455 50.7291 193.074 50.1959 192.312 50.1959C191.398 50.1959 190.865 50.8814 190.865 52.024C190.865 53.1665 191.398 53.852 192.388 53.852C193.226 53.852 193.607 53.395 193.607 53.395L193.683 53.9282C193.683 53.9282 193.15 54.2329 192.16 54.2329C190.789 54.1567 189.875 53.395 189.875 52.024Z" fill="#D2D2D2"/>
<path d="M198.33 51.7954C198.33 53.0903 198.33 53.6235 198.406 54.0044H197.416C197.492 53.6235 197.492 53.0903 197.492 51.9478H195.512C195.512 53.0903 195.512 53.5474 195.588 54.0044H194.598C194.674 53.5474 194.674 53.0903 194.674 51.7954C194.674 50.6529 194.674 50.1197 194.598 49.7389H195.588C195.512 50.1197 195.512 50.5767 195.512 51.5669H197.492C197.492 50.5767 197.492 50.1197 197.416 49.7389H198.406C198.33 50.1959 198.33 50.6529 198.33 51.7954Z" fill="#D2D2D2"/>
<path d="M203.509 49.7389C203.433 50.1959 203.433 50.5006 203.433 51.6431V54.0044H202.9L200.311 50.9576V52.024C200.311 53.1665 200.311 53.5474 200.463 54.0044H199.777C199.854 53.5474 199.854 53.1665 199.854 52.024V50.5767C199.854 50.1959 199.854 50.0435 199.777 49.7389H200.311L202.976 52.8618V51.6431C202.976 50.5006 202.976 50.1959 202.824 49.7389H203.509Z" fill="#D2D2D2"/>
<path d="M204.955 51.7954C204.955 50.6529 204.955 50.1197 204.879 49.7389H205.869C205.793 50.1197 205.793 50.6529 205.793 51.7954C205.793 53.0903 205.793 53.6235 205.869 54.0044H204.879C204.955 53.6235 204.955 53.0903 204.955 51.7954Z" fill="#D2D2D2"/>
<path d="M206.936 52.024C206.936 50.5767 207.926 49.7389 209.297 49.7389C209.982 49.7389 210.515 49.8912 210.515 49.8912V50.7291C210.515 50.7291 210.134 50.1959 209.373 50.1959C208.459 50.1959 207.926 50.8814 207.926 52.024C207.926 53.1665 208.459 53.852 209.449 53.852C210.287 53.852 210.668 53.395 210.668 53.395L210.744 53.9282C210.744 53.9282 210.211 54.2329 209.22 54.2329C207.85 54.1567 206.936 53.395 206.936 52.024Z" fill="#D2D2D2"/>
<path d="M215.39 54.0044H214.324C214.248 53.5474 214.172 53.1665 214.019 52.7095L213.943 52.6333H212.267V52.7095C212.115 53.1665 212.039 53.5474 211.963 54.0044H211.201C211.43 53.5474 211.43 53.4712 211.582 53.0903L212.953 49.6627H213.638L215.009 53.0903C215.085 53.5473 215.162 53.6235 215.39 54.0044ZM213.715 52.3286L213.029 50.5767L212.42 52.3286H213.715Z" fill="#D2D2D2"/>
<path d="M218.97 53.3188V54.0044H216.152C216.229 53.5473 216.229 53.3188 216.229 52.8618V50.9576C216.229 50.4244 216.229 50.1959 216.152 49.815H217.142C217.066 50.2721 217.066 50.5006 217.066 50.9576V53.6235H217.447C218.056 53.6235 218.513 53.5473 218.97 53.3188Z" fill="#D2D2D2"/>
<path d="M224.834 52.3286C224.834 53.4712 224.148 54.0805 223.082 54.0805C222.016 54.0805 221.33 53.395 221.33 52.3286V50.8814C221.33 50.3482 221.33 50.1197 221.254 49.7389H222.244C222.168 50.1959 222.168 50.4244 222.168 50.8814V52.3286C222.168 53.1665 222.549 53.6997 223.234 53.6997C223.92 53.6997 224.377 53.2427 224.377 52.3286V50.8814C224.377 50.3482 224.377 50.1197 224.224 49.7389H224.986C224.91 50.1959 224.834 50.4244 224.834 50.8814V52.3286Z" fill="#D2D2D2"/>
<path d="M230.013 49.7389C229.937 50.1959 229.937 50.5006 229.937 51.6431V54.0044H229.404L226.814 50.9576V52.024C226.814 53.1665 226.814 53.5474 226.967 54.0044H226.281C226.357 53.5474 226.357 53.1665 226.357 52.024V50.5767C226.357 50.1959 226.357 50.0435 226.281 49.7389H226.814L229.48 52.8618V51.6431C229.48 50.5006 229.48 50.1959 229.328 49.7389H230.013Z" fill="#D2D2D2"/>
<path d="M231.461 51.7954C231.461 50.6529 231.461 50.1197 231.385 49.7389H232.375C232.299 50.1197 232.299 50.6529 232.299 51.7954C232.299 53.0903 232.299 53.6235 232.375 54.0044H231.385C231.461 53.6235 231.461 53.0903 231.461 51.7954Z" fill="#D2D2D2"/>
<path d="M237.402 49.7389C237.173 50.1959 237.097 50.3482 236.793 51.1861L235.65 54.0044H235.269H235.041L233.822 50.8814C233.594 50.3482 233.518 50.1197 233.289 49.6627H234.355C234.355 50.1197 234.432 50.3482 234.736 51.1099L235.574 53.0903L236.336 51.1099C236.64 50.3482 236.64 50.1197 236.716 49.6627H237.402V49.7389Z" fill="#D2D2D2"/>
<path d="M241.056 53.3188V54.0044H238.238C238.314 53.5474 238.314 53.0903 238.314 51.7954C238.314 50.6529 238.314 50.1197 238.238 49.7389H240.904V50.3482C240.295 50.1197 239.838 50.1197 239.228 50.1197H239.152V51.5669C239.685 51.5669 239.99 51.5669 240.523 51.4146V52.1001C239.99 52.024 239.685 51.9478 239.152 51.9478V53.6235H239.381C239.99 53.6235 240.523 53.6235 241.056 53.3188Z" fill="#D2D2D2"/>
<path d="M244.713 54.0044L243.418 52.1763H243.342H243.037C243.037 53.0903 243.037 53.5474 243.113 54.0044H242.199C242.275 53.5474 242.275 53.0903 242.275 51.7954C242.275 50.6529 242.275 50.1197 242.199 49.7389H243.722C244.713 49.7389 245.246 50.1197 245.246 50.8814C245.246 51.4908 244.941 51.8716 244.332 52.1001L244.636 52.481C245.17 53.1665 245.474 53.5474 245.931 54.0044H244.713ZM243.342 51.7954C244.027 51.7954 244.332 51.4908 244.332 50.9576C244.332 50.4244 244.027 50.1197 243.494 50.1197H243.113V51.7954H243.342Z" fill="#D2D2D2"/>
<path d="M246.465 53.9282V53.0903C246.465 53.0903 246.922 53.852 247.836 53.852C248.293 53.852 248.521 53.6235 248.521 53.3188C248.521 53.0142 248.445 52.8618 248.064 52.6333L247.303 52.1001C246.693 51.7193 246.465 51.4146 246.465 50.9576C246.465 50.2721 246.998 49.8912 247.912 49.8912C248.674 49.8912 249.131 50.1197 249.131 50.1197V50.9576C249.131 50.9576 248.674 50.3482 247.912 50.3482C247.531 50.3482 247.303 50.5767 247.303 50.8814C247.303 51.1861 247.379 51.3384 247.836 51.6431L248.597 52.1763C249.207 52.5571 249.435 52.8618 249.435 53.3188C249.435 54.0044 248.902 54.4614 247.912 54.4614C247.074 54.1567 246.465 53.9282 246.465 53.9282Z" fill="#D2D2D2"/>
<path d="M250.578 51.7954C250.578 50.6529 250.578 50.1197 250.502 49.7389H251.492C251.416 50.1197 251.416 50.6529 251.416 51.7954C251.416 53.0903 251.416 53.6235 251.492 54.0044H250.502C250.578 53.6235 250.578 53.0903 250.578 51.7954Z" fill="#D2D2D2"/>
<path d="M255.986 49.7389V50.3482C255.529 50.1197 255.148 50.1197 254.843 50.1197H254.691V51.7954C254.691 53.0903 254.691 53.6235 254.767 54.0044H253.777C253.853 53.5474 253.853 53.0903 253.853 51.7954V50.1197H253.701C253.32 50.1197 253.016 50.1959 252.482 50.3482V49.7389H255.986Z" fill="#D2D2D2"/>
<path d="M258.347 52.1763V52.8618C258.347 53.395 258.347 53.6235 258.424 54.0044H257.433C257.51 53.5473 257.51 53.3188 257.51 52.8618V52.1763L256.596 50.6529C256.367 50.3482 256.291 50.1959 255.986 49.7389H257.129C257.205 50.1959 257.357 50.3482 257.738 50.9576L258.195 51.7193L258.576 51.0337C258.957 50.4244 259.033 50.1959 259.109 49.7389H259.947C259.642 50.1959 259.566 50.272 259.338 50.6529L258.347 52.1763Z" fill="#D2D2D2"/>
<path d="M110.97 50.9576C110.97 51.8716 110.361 52.3286 109.142 52.3286H108.838C108.838 53.1665 108.838 53.6235 108.914 54.0805H107.924C108 53.6235 108 53.1665 108 51.8716C108 50.6529 108 50.1959 107.924 49.815H109.447C110.437 49.7389 110.97 50.1959 110.97 50.9576ZM110.133 51.0338C110.133 50.5006 109.828 50.1959 109.295 50.1959H108.914V52.024H109.142C109.752 51.9478 110.133 51.6431 110.133 51.0338Z" fill="#D2D2D2"/>
<path d="M135.418 52.7857C135.418 53.6235 134.808 54.0044 133.59 54.0044H132.219C132.295 53.5474 132.295 53.0903 132.295 51.7954C132.295 50.5767 132.295 50.1197 132.219 49.7389H133.742C134.732 49.7389 135.189 50.0435 135.189 50.7291C135.189 51.1861 134.884 51.6431 134.199 51.7954C135.113 51.8716 135.418 52.2525 135.418 52.7857ZM133.133 50.1197V51.5669H133.437C134.047 51.5669 134.351 51.3384 134.351 50.8052C134.351 50.3482 134.047 50.1197 133.514 50.1197H133.133ZM134.58 52.8618C134.58 52.2525 134.123 52.024 133.514 52.024H133.209V53.6997H133.514C134.123 53.6235 134.58 53.395 134.58 52.8618Z" fill="#D2D2D2"/>
<path d="M128.184 53.9282V53.0903C128.184 53.0903 128.641 53.852 129.555 53.852C130.012 53.852 130.24 53.6235 130.24 53.3188C130.24 53.0142 130.164 52.8618 129.707 52.6333L128.945 52.1001C128.336 51.7193 128.107 51.4146 128.107 50.9576C128.107 50.2721 128.641 49.8912 129.555 49.8912C130.316 49.8912 130.773 50.1197 130.773 50.1197V50.9576C130.773 50.9576 130.316 50.3482 129.555 50.3482C129.174 50.3482 128.945 50.5767 128.945 50.8814C128.945 51.1861 129.021 51.3384 129.478 51.6431L130.24 52.1763C130.849 52.5571 131.078 52.8618 131.078 53.3188C131.078 54.0044 130.545 54.4614 129.555 54.4614C128.717 54.1567 128.184 53.9282 128.184 53.9282Z" fill="#D2D2D2"/>
<path d="M122.547 53.3188V54.0044H119.729C119.805 53.5474 119.805 53.0903 119.805 51.7954C119.805 50.6529 119.805 50.1197 119.729 49.7389H122.394V50.3482C121.785 50.1197 121.328 50.1197 120.719 50.1197H120.642V51.5669C121.176 51.5669 121.48 51.5669 122.013 51.4146V52.1001C121.48 52.024 121.176 51.9478 120.642 51.9478V53.6235H120.871C121.556 53.6235 122.013 53.6235 122.547 53.3188Z" fill="#D2D2D2"/>
<path d="M114.777 53.3188V54.0044H111.959C112.035 53.5474 112.035 53.0903 112.035 51.7954C112.035 50.6529 112.035 50.1197 111.959 49.7389H114.625V50.3482C114.015 50.1197 113.558 50.1197 112.949 50.1197H112.873V51.5669C113.406 51.5669 113.711 51.5669 114.244 51.4146V52.1001C113.711 52.024 113.406 51.9478 112.873 51.9478V53.6235H113.101C113.787 53.6235 114.244 53.6235 114.777 53.3188Z" fill="#D2D2D2"/>
<path d="M118.738 49.7389V50.3482C118.281 50.1197 117.9 50.1197 117.595 50.1197H117.443V51.7954C117.443 53.0903 117.443 53.6235 117.519 54.0044H116.529C116.605 53.5474 116.605 53.0903 116.605 51.7954V50.1197H116.453C116.072 50.1197 115.768 50.1959 115.234 50.3482V49.7389H118.738Z" fill="#D2D2D2"/>
<path d="M126.355 54.0044L125.06 52.1763H124.984H124.68C124.68 53.0903 124.68 53.5474 124.756 54.0044H123.766C123.842 53.5474 123.842 53.0903 123.842 51.7954C123.842 50.6529 123.842 50.1197 123.766 49.7389H125.289C126.279 49.7389 126.812 50.1197 126.812 50.8814C126.812 51.4908 126.508 51.8716 125.898 52.1001L126.203 52.481C126.736 53.1665 127.041 53.5474 127.498 54.0044H126.355ZM124.908 51.7954C125.594 51.7954 125.898 51.4908 125.898 50.9576C125.898 50.4244 125.594 50.1197 125.06 50.1197H124.68V51.7954H124.908Z" fill="#D2D2D2"/>
<path d="M143.644 54.0044L142.349 52.1763H142.273H141.969C141.969 53.0903 141.969 53.5474 142.045 54.0044H141.055C141.131 53.5474 141.131 53.0903 141.131 51.7954C141.131 50.6529 141.131 50.1197 141.055 49.7389H142.578C143.568 49.7389 144.101 50.1197 144.101 50.8814C144.101 51.4908 143.797 51.8716 143.187 52.1001L143.492 52.481C144.025 53.1665 144.33 53.5474 144.787 54.0044H143.644ZM142.273 51.7954C142.959 51.7954 143.263 51.4908 143.263 50.9576C143.263 50.4244 142.959 50.1197 142.426 50.1197H142.045V51.7954H142.273Z" fill="#D2D2D2"/>
<path d="M139.988 52.3286C139.988 53.4712 139.302 54.0805 138.236 54.0805C137.17 54.0805 136.484 53.395 136.484 52.3286V50.8814C136.484 50.3482 136.484 50.1197 136.408 49.7389H137.398C137.322 50.1959 137.322 50.4244 137.322 50.8814V52.3286C137.322 53.1665 137.703 53.6997 138.388 53.6997C139.074 53.6997 139.531 53.2427 139.531 52.3286V50.8814C139.531 50.3482 139.531 50.1197 139.379 49.7389H140.14C140.064 50.1959 139.988 50.4244 139.988 50.8814V52.3286Z" fill="#D2D2D2"/>
<path d="M149.205 52.1763H148.215C148.291 52.6333 148.291 52.8618 148.291 53.3188V53.5474V53.6235C148.138 53.7759 147.91 53.7759 147.681 53.7759C147.453 53.7759 147.301 53.6997 147.072 53.6235C146.92 53.5474 146.767 53.395 146.615 53.3188C146.463 53.1665 146.387 53.0142 146.31 52.7857C146.234 52.5571 146.234 52.3286 146.234 52.1001C146.234 51.7954 146.234 51.5669 146.31 51.3384C146.463 50.7291 146.844 50.1197 147.681 50.1197C148.443 50.1197 148.824 50.6529 148.824 50.6529V49.815C148.824 49.815 148.291 49.6627 147.605 49.6627C147.148 49.6627 146.767 49.7389 146.387 49.9674C146.006 50.1197 145.777 50.4244 145.549 50.7291C145.32 51.1099 145.244 51.4908 145.244 52.024C145.244 52.4048 145.32 52.7095 145.396 52.938C145.549 53.2427 145.701 53.395 145.93 53.6235C146.158 53.7759 146.387 53.9282 146.691 54.0044C146.996 54.0805 147.224 54.1567 147.529 54.1567C147.758 54.1567 147.986 54.1567 148.215 54.0805C148.443 54.0044 148.748 53.9282 149.052 53.852V53.1665C149.128 52.8618 149.205 52.6333 149.205 52.1763Z" fill="#D2D2D2"/>
</svg>
