<svg width="240" height="240" viewBox="0 0 240 240" fill="none" xmlns="http://www.w3.org/2000/svg">
<g filter="url(#filter0_d_550_311)">
<path d="M120 199.209C163.747 199.209 199.21 163.746 199.21 120C199.21 76.254 163.747 40.7908 120 40.7908C76.2543 40.7908 40.791 76.254 40.791 120C40.791 163.746 76.2543 199.209 120 199.209Z" fill="white"/>
<path d="M120 200C75.8879 200 40 164.112 40 120C40 75.8879 75.8879 40 120 40C164.112 40 200 75.8879 200 120C200 164.112 164.112 200 120 200ZM120 41.5813C76.7599 41.5813 41.5813 76.7599 41.5813 120C41.5813 163.24 76.7599 198.419 120 198.419C163.24 198.419 198.419 163.24 198.419 120C198.419 76.7599 163.24 41.5813 120 41.5813Z" fill="#5AA3FF"/>
<path d="M109.193 161.225C107.825 161.225 106.476 160.906 105.253 160.295C104.029 159.683 102.965 158.794 102.145 157.7L80.5354 128.887C79.8412 127.961 79.3361 126.908 79.049 125.787C78.7619 124.666 78.6984 123.499 78.862 122.354C79.0257 121.209 79.4134 120.107 80.0029 119.111C80.5924 118.116 81.3723 117.246 82.298 116.552C83.2236 115.857 84.277 115.352 85.3978 115.065C86.5187 114.778 87.6851 114.715 88.8305 114.878C89.9759 115.042 91.0779 115.43 92.0735 116.019C93.0691 116.609 93.9388 117.389 94.633 118.314L108.771 137.163L145.081 82.6975C146.378 80.7547 148.394 79.4064 150.684 78.949C152.975 78.4916 155.354 78.9625 157.297 80.2582C159.241 81.554 160.59 83.5685 161.049 85.8589C161.508 88.1493 161.039 90.5281 159.744 92.4725L116.525 157.301C115.743 158.474 114.692 159.441 113.459 160.124C112.226 160.806 110.847 161.183 109.438 161.222C109.356 161.223 109.275 161.225 109.193 161.225Z" fill="#5AA3FF"/>
</g>
<defs>
<filter id="filter0_d_550_311" x="0" y="0" width="240" height="240" filterUnits="userSpaceOnUse" color-interpolation-filters="sRGB">
<feFlood flood-opacity="0" result="BackgroundImageFix"/>
<feColorMatrix in="SourceAlpha" type="matrix" values="0 0 0 0 0 0 0 0 0 0 0 0 0 0 0 0 0 0 127 0" result="hardAlpha"/>
<feOffset/>
<feGaussianBlur stdDeviation="20"/>
<feComposite in2="hardAlpha" operator="out"/>
<feColorMatrix type="matrix" values="0 0 0 0 0.352941 0 0 0 0 0.639216 0 0 0 0 1 0 0 0 0.1 0"/>
<feBlend mode="normal" in2="BackgroundImageFix" result="effect1_dropShadow_550_311"/>
<feBlend mode="normal" in="SourceGraphic" in2="effect1_dropShadow_550_311" result="shape"/>
</filter>
</defs>
</svg>
