<svg width="323" height="248" viewBox="0 0 323 248" fill="none" xmlns="http://www.w3.org/2000/svg">
<path d="M321.5 193.5H1.5V8.1533C1.5 6.38913 2.20137 4.69699 3.45023 3.44916C4.69913 2.20128 6.39326 1.5 8.16 1.5H314.84C315.715 1.5 316.581 1.67216 317.389 2.00663C318.197 2.34108 318.931 2.83127 319.55 3.44915C320.168 4.06704 320.659 4.80048 320.993 5.60758C321.328 6.41469 321.5 7.27972 321.5 8.1533V193.5Z" fill="white" stroke="#020202" stroke-width="3"/>
<rect x="8" y="13" width="99" height="82" rx="4" fill="url(#paint0_angular_394_4124)" fill-opacity="0.7"/>
<rect x="112" y="13" width="99" height="82" rx="4" fill="url(#paint1_angular_394_4124)" fill-opacity="0.7"/>
<rect x="216" y="13" width="99" height="82" rx="4" fill="url(#paint2_angular_394_4124)" fill-opacity="0.7"/>
<rect x="8" y="100" width="99" height="82" rx="4" fill="url(#paint3_angular_394_4124)" fill-opacity="0.7"/>
<rect x="112" y="100" width="99" height="82" rx="4" fill="url(#paint4_angular_394_4124)" fill-opacity="0.7"/>
<rect x="216" y="100" width="99" height="82" rx="4" fill="url(#paint5_angular_394_4124)" fill-opacity="0.7"/>
<path d="M53.0052 56.4609C52.397 55.782 51.3831 55.7143 50.7075 56.2573C50.0315 56.8681 49.9641 57.8864 50.5048 58.5648L52.1269 60.5329C41.7194 60.1257 35.2989 58.5648 32.5956 57.2752C31.7848 56.868 31.7848 55.8496 32.5956 55.4425C34.2467 54.6441 37.2255 53.7902 41.5323 53.1323C42.3345 53.0097 42.9357 52.3255 42.9357 51.5139C42.9357 50.5377 42.0781 49.7815 41.1128 49.9267C34.3235 50.9477 28 52.8354 28 56.325C28 62.1619 45.2335 63.5192 52.5999 63.791L50.167 66.2344C49.5589 66.8451 49.5589 67.9312 50.167 68.5419C50.7751 69.1526 51.8565 69.1526 52.4647 68.5419L57.128 63.9269C57.7361 63.3162 57.804 62.2301 57.2633 61.4835C56.1139 60.1262 54.2214 57.8863 53.0052 56.4609Z" fill="white"/>
<path d="M73.8878 49.9271C72.9217 49.7816 72.0634 50.5384 72.0634 51.5154C72.0634 52.3265 72.6634 53.0107 73.465 53.1345C77.7249 53.7925 80.7541 54.6453 82.4035 55.4425C83.2143 55.8497 83.2143 56.9357 82.4035 57.2752C79.6325 58.6325 72.6715 60.2616 61.5205 60.601C60.6418 60.601 59.8984 61.3476 59.8984 62.2978C59.8984 63.1802 60.6419 63.9268 61.5205 63.8587C68.2788 63.6551 86.999 62.5014 86.999 56.3926C86.999 52.8416 80.6763 50.949 73.8878 49.9271Z" fill="white"/>
<path d="M48.541 49.6748C48.9464 49.4712 49.2844 49.1994 49.5545 48.9282C50.0952 48.3851 50.3654 47.5709 50.3654 46.6207C50.3654 45.6028 50.0273 44.7203 49.2839 44.1096C48.5405 43.4306 47.4591 43.0917 46.0401 43.0917C45.1614 43.0917 44.3505 43.2276 43.6071 43.4988C42.9311 43.7701 42.323 44.1096 41.8501 44.5167C41.6996 44.6302 41.6663 44.8426 41.7749 44.9967L42.5339 46.0729C42.6405 46.2241 42.8512 46.2571 42.999 46.1457C43.4723 45.8745 43.9451 45.6027 44.4184 45.3991C44.8917 45.1956 45.432 45.1278 46.0405 45.1278C46.6487 45.1278 47.1894 45.2637 47.5273 45.535C47.8653 45.8063 48.0006 46.2139 48.0006 46.6888C48.0006 47.2995 47.7979 47.7748 47.3246 48.1819C46.8513 48.589 46.1084 48.7927 45.1618 48.7927H44.5578C43.9955 48.7927 43.5397 49.2485 43.5397 49.8108C43.5397 50.3731 43.9955 50.8289 44.5578 50.8289H45.0939C46.1754 50.8289 46.9862 50.9648 47.5943 51.3042C48.1351 51.5755 48.3378 52.0508 48.3378 52.7298C48.3378 53.4087 48.1351 53.9512 47.6618 54.3588C47.1885 54.766 46.4455 54.9695 45.4315 54.9695C44.8908 54.9695 44.2827 54.9018 43.742 54.766C43.1339 54.6301 42.5932 54.4265 42.0524 54.1552C41.8042 54.0307 41.5117 54.2112 41.5117 54.4889V55.91C41.5117 56.0376 41.5934 56.151 41.7144 56.1914C42.2551 56.4627 42.8633 56.6667 43.4714 56.8021C44.0796 56.938 44.6877 56.938 45.3638 56.938C46.5126 56.938 47.5266 56.7344 48.2695 56.395C49.0804 56.0555 49.6211 55.5125 50.0266 54.9018C50.432 54.2911 50.5673 53.5445 50.5673 52.7297C50.5673 51.7795 50.2972 51.0329 49.6886 50.4222C49.5552 50.15 49.0819 49.8787 48.5411 49.6746L48.541 49.6748Z" fill="white"/>
<path d="M57.1264 48.1129C56.3155 48.1129 55.6396 48.2488 55.0988 48.5882C54.8287 48.7241 54.6255 48.8595 54.4228 49.0636C54.4902 48.7241 54.5581 48.3847 54.6255 48.0457C54.7608 47.435 54.9635 46.9596 55.2336 46.4848C55.5038 46.0776 55.9096 45.7382 56.3825 45.4669C57.0585 45.1275 58.0046 44.9916 59.0182 45.1275C59.2816 45.1628 59.4915 45.1952 59.6942 45.2633C59.9313 45.3314 60.1675 45.1534 60.1675 44.9068V43.6405C60.1675 43.4768 60.0561 43.3341 59.8974 43.2943C59.6947 43.2266 59.4627 43.1542 59.1006 43.1196C58.7989 43.0907 58.4784 43.0907 58.2078 43.0907C56.9236 43.0907 55.9101 43.2943 55.0988 43.7696C54.2879 44.2449 53.612 44.8557 53.2065 45.6022C52.7332 46.3489 52.4631 47.2313 52.2604 48.1134C52.1251 48.9958 51.9902 49.946 51.9902 50.8962C51.9902 52.2535 52.1929 53.3396 52.5984 54.222C53.0038 55.1045 53.6119 55.7829 54.2879 56.2583C54.9639 56.6654 55.7747 56.9372 56.6535 56.9372C58.0051 56.9372 59.0865 56.53 59.8974 55.6475C60.7082 54.8332 61.1136 53.6795 61.1136 52.2539C61.1136 50.8966 60.7082 49.8782 59.9648 49.1316C59.2888 48.4522 58.3427 48.1128 57.1263 48.1128L57.1264 48.1129ZM58.8834 52.3213C58.8834 53.2715 58.6807 53.9503 58.2753 54.3575C57.8699 54.7648 57.3291 54.9683 56.721 54.9683C56.1803 54.9683 55.7749 54.8324 55.4368 54.5611C55.0988 54.2898 54.8287 53.8822 54.626 53.4751C54.4233 52.9997 54.3559 52.5249 54.3559 52.0495C54.3559 51.7101 54.4233 51.4388 54.626 51.0994C54.8287 50.7599 55.0993 50.4886 55.5047 50.2851C55.8427 50.0815 56.3155 49.9456 56.7889 49.9456C57.5323 49.9456 58.0051 50.1492 58.411 50.5563C58.748 51.0317 58.8834 51.6424 58.8834 52.3213Z" fill="white"/>
<path d="M70.2405 44.9911C69.4971 43.7014 68.2809 43.0907 66.7261 43.0907C65.6447 43.0907 64.6985 43.362 64.0231 43.9732C63.3471 44.5162 62.8743 45.3305 62.5363 46.4165C62.2662 47.4344 62.1309 48.6563 62.1309 50.0813C62.1309 52.1852 62.4689 53.882 63.2123 55.1039C63.9557 56.3936 65.1719 57.0043 66.7267 57.0043C67.8081 57.0043 68.7543 56.733 69.4297 56.1219C70.1057 55.5788 70.5786 54.7645 70.9165 53.6785C71.1867 52.6606 71.3898 51.4387 71.3898 50.0137C71.3894 47.9093 70.984 46.2125 70.2405 44.9911ZM69.0917 50.0814C69.0917 51.7782 68.889 53.0679 68.4836 53.8821C68.1456 54.6287 67.5374 54.9681 66.7266 54.9681C65.9157 54.9681 65.3071 54.6287 64.9695 53.8821C64.5641 53.0678 64.4288 51.7782 64.4288 50.0814C64.4288 48.3847 64.6315 47.095 64.9695 46.2808C65.3075 45.5342 65.8482 45.1947 66.7266 45.1947C67.5374 45.1947 68.0781 45.5342 68.4836 46.2808C68.8885 47.0951 69.0917 48.3847 69.0917 50.0814Z" fill="white"/>
<path d="M71.9287 43.294C70.5092 43.294 69.293 42.1402 69.293 40.647C69.293 39.1538 70.4418 38 71.9287 38C73.3481 38 74.5644 39.1538 74.5644 40.647C74.5644 42.1401 73.3477 43.294 71.9287 43.294ZM71.9287 39.4251C71.2527 39.4251 70.7124 39.9681 70.7124 40.6465C70.7124 41.3254 71.2532 41.8679 71.9287 41.8679C72.6047 41.8679 73.1449 41.3249 73.1449 40.6465C73.1449 39.9681 72.6042 39.4251 71.9287 39.4251Z" fill="white"/>
<path d="M157.005 57.0564C156.397 56.3556 155.383 56.2857 154.707 56.8463C154.031 57.4767 153.964 58.5279 154.505 59.2282L156.127 61.2597C145.719 60.8395 139.299 59.2282 136.596 57.897C135.785 57.4767 135.785 56.4254 136.596 56.0052C138.242 55.1834 141.208 54.3047 145.495 53.6264C146.319 53.4959 146.936 52.7914 146.936 51.9567C146.936 50.9468 146.046 50.1656 145.048 50.3214C138.284 51.3778 132 53.3254 132 56.9161C132 62.9413 149.233 64.3424 156.6 64.623L154.167 67.1452C153.559 67.7756 153.559 68.8967 154.167 69.5271C154.775 70.1576 155.857 70.1576 156.465 69.5271L161.128 64.7633C161.736 64.1328 161.804 63.0118 161.263 62.2411C160.114 60.84 158.221 58.5278 157.005 57.0564Z" fill="white"/>
<path d="M177.952 50.3219C176.954 50.1658 176.063 50.9476 176.063 51.9584C176.063 52.7925 176.679 53.497 177.503 53.6288C181.743 54.3071 184.759 55.1847 186.403 56.0052C187.214 56.4255 187.214 57.5465 186.403 57.897C183.632 59.298 176.671 60.9797 165.521 61.3301C164.642 61.3301 163.898 62.1007 163.898 63.0816C163.898 63.9925 164.642 64.7631 165.521 64.6928C172.279 64.4827 190.999 63.2917 190.999 56.9859C190.999 53.3319 184.716 51.3791 177.952 50.3219Z" fill="white"/>
<path d="M152.541 50.0513C152.946 49.8412 153.284 49.5607 153.555 49.2806C154.095 48.7201 154.365 47.8795 154.365 46.8987C154.365 45.848 154.027 44.937 153.284 44.3066C152.541 43.6058 151.459 43.2559 150.04 43.2559C149.161 43.2559 148.351 43.3961 147.607 43.6761C146.931 43.9562 146.323 44.3066 145.85 44.7269C145.698 44.845 145.665 45.0608 145.773 45.2196L146.536 46.336C146.64 46.4892 146.853 46.5223 146.999 46.4084C147.472 46.1284 147.945 45.8479 148.418 45.6377C148.892 45.4276 149.432 45.3577 150.041 45.3577C150.649 45.3577 151.189 45.498 151.527 45.778C151.865 46.058 152.001 46.4788 152.001 46.969C152.001 47.5994 151.798 48.0901 151.325 48.5103C150.851 48.9306 150.108 49.1407 149.162 49.1407H148.591C148.01 49.1407 147.54 49.6113 147.54 50.1917C147.54 50.7721 148.01 51.2427 148.591 51.2427H149.094C150.175 51.2427 150.986 51.3829 151.594 51.7333C152.135 52.0134 152.338 52.504 152.338 53.2049C152.338 53.9057 152.135 54.4657 151.662 54.8864C151.188 55.3067 150.446 55.5169 149.432 55.5169C148.891 55.5169 148.283 55.447 147.742 55.3067C147.134 55.1665 146.593 54.9563 146.052 54.6763C145.806 54.5486 145.512 54.7276 145.512 55.0052V56.4939C145.512 56.6222 145.593 56.7363 145.714 56.7782C146.255 57.0582 146.863 57.2688 147.471 57.4086C148.08 57.5489 148.688 57.5489 149.364 57.5489C150.513 57.5489 151.527 57.3387 152.27 56.9883C153.08 56.6379 153.621 56.0774 154.027 55.447C154.432 54.8165 154.567 54.0459 154.567 53.2048C154.567 52.224 154.297 51.4533 153.689 50.8228C153.555 50.5418 153.082 50.2618 152.541 50.0512L152.541 50.0513Z" fill="white"/>
<path d="M161.126 48.4391C160.316 48.4391 159.64 48.5794 159.099 48.9298C158.829 49.07 158.625 49.2098 158.423 49.4204C158.49 49.07 158.558 48.7196 158.625 48.3697C158.761 47.7393 158.964 47.2486 159.234 46.7584C159.504 46.3382 159.91 45.9878 160.382 45.7077C161.058 45.3573 162.005 45.2171 163.018 45.3573C163.282 45.3938 163.491 45.4272 163.694 45.4976C163.93 45.5676 164.167 45.3906 164.167 45.1442V43.8139C164.167 43.6497 164.056 43.5062 163.897 43.465C163.695 43.3951 163.463 43.3204 163.101 43.2847C162.799 43.2549 162.478 43.2549 162.208 43.2549C160.924 43.2549 159.91 43.465 159.099 43.9557C158.288 44.4464 157.612 45.0768 157.206 45.8475C156.733 46.6181 156.463 47.529 156.26 48.4396C156.125 49.3505 155.99 50.3313 155.99 51.3122C155.99 52.7133 156.193 53.8344 156.598 54.7453C157.004 55.6562 157.612 56.3565 158.288 56.8472C158.964 57.2675 159.775 57.548 160.654 57.548C162.005 57.548 163.087 57.1277 163.897 56.2167C164.708 55.3762 165.114 54.1852 165.114 52.7137C165.114 51.3126 164.708 50.2613 163.965 49.4907C163.289 48.7894 162.343 48.439 161.126 48.439L161.126 48.4391ZM162.883 52.7832C162.883 53.7641 162.681 54.4648 162.275 54.8852C161.87 55.3055 161.329 55.5156 160.721 55.5156C160.18 55.5156 159.775 55.3754 159.437 55.0953C159.099 54.8153 158.829 54.3945 158.626 53.9742C158.423 53.4836 158.356 52.9934 158.356 52.5027C158.356 52.1523 158.423 51.8723 158.626 51.5219C158.829 51.1715 159.099 50.8915 159.505 50.6813C159.843 50.4712 160.316 50.3309 160.789 50.3309C161.532 50.3309 162.005 50.5411 162.411 50.9613C162.748 51.452 162.883 52.0825 162.883 52.7832Z" fill="white"/>
<path d="M174.241 45.2166C173.497 43.8853 172.281 43.2549 170.726 43.2549C169.645 43.2549 168.699 43.5349 168.023 44.1658C167.347 44.7264 166.874 45.5669 166.536 46.688C166.266 47.7387 166.131 49 166.131 50.471C166.131 52.6428 166.469 54.3943 167.212 55.6556C167.956 56.9869 169.172 57.6173 170.727 57.6173C171.808 57.6173 172.754 57.3373 173.43 56.7064C174.106 56.1458 174.579 55.3053 174.917 54.1842C175.187 53.1335 175.39 51.8722 175.39 50.4012C175.389 48.2289 174.984 46.4774 174.241 45.2166ZM173.092 50.4711C173.092 52.2226 172.889 53.5539 172.484 54.3944C172.146 55.1651 171.537 55.5155 170.727 55.5155C169.916 55.5155 169.307 55.1651 168.97 54.3944C168.564 53.5538 168.429 52.2226 168.429 50.4711C168.429 48.7196 168.632 47.3883 168.97 46.5479C169.308 45.7772 169.848 45.4268 170.727 45.4268C171.537 45.4268 172.078 45.7772 172.484 46.5479C172.889 47.3884 173.092 48.7196 173.092 50.4711Z" fill="white"/>
<path d="M175.929 43.4647C174.509 43.4647 173.293 42.2738 173.293 40.7324C173.293 39.191 174.442 38 175.929 38C177.348 38 178.564 39.191 178.564 40.7324C178.564 42.2737 177.348 43.4647 175.929 43.4647ZM175.929 39.471C175.253 39.471 174.712 40.0316 174.712 40.7319C174.712 41.4327 175.253 41.9927 175.929 41.9927C176.605 41.9927 177.145 41.4322 177.145 40.7319C177.145 40.0316 176.604 39.471 175.929 39.471Z" fill="white"/>
<path d="M261.005 56.4609C260.397 55.782 259.383 55.7143 258.707 56.2573C258.031 56.8681 257.964 57.8864 258.505 58.5648L260.127 60.5329C249.719 60.1257 243.299 58.5648 240.596 57.2752C239.785 56.868 239.785 55.8496 240.596 55.4425C242.247 54.6441 245.226 53.7902 249.532 53.1323C250.335 53.0097 250.936 52.3255 250.936 51.5139C250.936 50.5377 250.078 49.7815 249.113 49.9267C242.324 50.9477 236 52.8354 236 56.325C236 62.1619 253.233 63.5192 260.6 63.791L258.167 66.2344C257.559 66.8451 257.559 67.9312 258.167 68.5419C258.775 69.1526 259.857 69.1526 260.465 68.5419L265.128 63.9269C265.736 63.3162 265.804 62.2301 265.263 61.4835C264.114 60.1262 262.221 57.8863 261.005 56.4609Z" fill="white"/>
<path d="M281.888 49.9271C280.922 49.7816 280.063 50.5384 280.063 51.5154C280.063 52.3265 280.663 53.0107 281.465 53.1345C285.725 53.7925 288.754 54.6453 290.403 55.4425C291.214 55.8497 291.214 56.9357 290.403 57.2752C287.632 58.6325 280.671 60.2616 269.521 60.601C268.642 60.601 267.898 61.3476 267.898 62.2978C267.898 63.1802 268.642 63.9268 269.521 63.8587C276.279 63.6551 294.999 62.5014 294.999 56.3926C294.999 52.8416 288.676 50.949 281.888 49.9271Z" fill="white"/>
<path d="M256.541 49.6748C256.946 49.4712 257.284 49.1994 257.555 48.9282C258.095 48.3851 258.365 47.5709 258.365 46.6207C258.365 45.6028 258.027 44.7203 257.284 44.1096C256.541 43.4306 255.459 43.0917 254.04 43.0917C253.161 43.0917 252.351 43.2276 251.607 43.4988C250.931 43.7701 250.323 44.1096 249.85 44.5167C249.7 44.6302 249.666 44.8426 249.775 44.9967L250.534 46.0729C250.641 46.2241 250.851 46.2571 250.999 46.1457C251.472 45.8745 251.945 45.6027 252.418 45.3991C252.892 45.1956 253.432 45.1278 254.041 45.1278C254.649 45.1278 255.189 45.2637 255.527 45.535C255.865 45.8063 256.001 46.2139 256.001 46.6888C256.001 47.2995 255.798 47.7748 255.325 48.1819C254.851 48.589 254.108 48.7927 253.162 48.7927H252.558C251.995 48.7927 251.54 49.2485 251.54 49.8108C251.54 50.3731 251.995 50.8289 252.558 50.8289H253.094C254.175 50.8289 254.986 50.9648 255.594 51.3042C256.135 51.5755 256.338 52.0508 256.338 52.7298C256.338 53.4087 256.135 53.9512 255.662 54.3588C255.188 54.766 254.446 54.9695 253.432 54.9695C252.891 54.9695 252.283 54.9018 251.742 54.766C251.134 54.6301 250.593 54.4265 250.052 54.1552C249.804 54.0307 249.512 54.2112 249.512 54.4889V55.91C249.512 56.0376 249.593 56.151 249.714 56.1914C250.255 56.4627 250.863 56.6667 251.471 56.8021C252.08 56.938 252.688 56.938 253.364 56.938C254.513 56.938 255.527 56.7344 256.27 56.395C257.08 56.0555 257.621 55.5125 258.027 54.9018C258.432 54.2911 258.567 53.5445 258.567 52.7297C258.567 51.7795 258.297 51.0329 257.689 50.4222C257.555 50.15 257.082 49.8787 256.541 49.6746L256.541 49.6748Z" fill="white"/>
<path d="M265.126 48.1129C264.316 48.1129 263.64 48.2488 263.099 48.5882C262.829 48.7241 262.625 48.8595 262.423 49.0636C262.49 48.7241 262.558 48.3847 262.625 48.0457C262.761 47.435 262.964 46.9596 263.234 46.4848C263.504 46.0776 263.91 45.7382 264.382 45.4669C265.058 45.1275 266.005 44.9916 267.018 45.1275C267.282 45.1628 267.491 45.1952 267.694 45.2633C267.931 45.3314 268.167 45.1534 268.167 44.9068V43.6405C268.167 43.4768 268.056 43.3341 267.897 43.2943C267.695 43.2266 267.463 43.1542 267.101 43.1196C266.799 43.0907 266.478 43.0907 266.208 43.0907C264.924 43.0907 263.91 43.2943 263.099 43.7696C262.288 44.2449 261.612 44.8557 261.206 45.6022C260.733 46.3489 260.463 47.2313 260.26 48.1134C260.125 48.9958 259.99 49.946 259.99 50.8962C259.99 52.2535 260.193 53.3396 260.598 54.222C261.004 55.1045 261.612 55.7829 262.288 56.2583C262.964 56.6654 263.775 56.9372 264.654 56.9372C266.005 56.9372 267.087 56.53 267.897 55.6475C268.708 54.8332 269.114 53.6795 269.114 52.2539C269.114 50.8966 268.708 49.8782 267.965 49.1316C267.289 48.4522 266.343 48.1128 265.126 48.1128L265.126 48.1129ZM266.883 52.3213C266.883 53.2715 266.681 53.9503 266.275 54.3575C265.87 54.7648 265.329 54.9683 264.721 54.9683C264.18 54.9683 263.775 54.8324 263.437 54.5611C263.099 54.2898 262.829 53.8822 262.626 53.4751C262.423 52.9997 262.356 52.5249 262.356 52.0495C262.356 51.7101 262.423 51.4388 262.626 51.0994C262.829 50.7599 263.099 50.4886 263.505 50.2851C263.843 50.0815 264.316 49.9456 264.789 49.9456C265.532 49.9456 266.005 50.1492 266.411 50.5563C266.748 51.0317 266.883 51.6424 266.883 52.3213Z" fill="white"/>
<path d="M278.241 44.9911C277.497 43.7014 276.281 43.0907 274.726 43.0907C273.645 43.0907 272.699 43.362 272.023 43.9732C271.347 44.5162 270.874 45.3305 270.536 46.4165C270.266 47.4344 270.131 48.6563 270.131 50.0813C270.131 52.1852 270.469 53.882 271.212 55.1039C271.956 56.3936 273.172 57.0043 274.727 57.0043C275.808 57.0043 276.754 56.733 277.43 56.1219C278.106 55.5788 278.579 54.7645 278.917 53.6785C279.187 52.6606 279.39 51.4387 279.39 50.0137C279.389 47.9093 278.984 46.2125 278.241 44.9911ZM277.092 50.0814C277.092 51.7782 276.889 53.0679 276.484 53.8821C276.146 54.6287 275.537 54.9681 274.727 54.9681C273.916 54.9681 273.307 54.6287 272.97 53.8821C272.564 53.0678 272.429 51.7782 272.429 50.0814C272.429 48.3847 272.632 47.095 272.97 46.2808C273.308 45.5342 273.848 45.1947 274.727 45.1947C275.537 45.1947 276.078 45.5342 276.484 46.2808C276.889 47.0951 277.092 48.3847 277.092 50.0814Z" fill="white"/>
<path d="M279.929 43.294C278.509 43.294 277.293 42.1402 277.293 40.647C277.293 39.1538 278.442 38 279.929 38C281.348 38 282.564 39.1538 282.564 40.647C282.564 42.1401 281.348 43.294 279.929 43.294ZM279.929 39.4251C279.253 39.4251 278.712 39.9681 278.712 40.6465C278.712 41.3254 279.253 41.8679 279.929 41.8679C280.605 41.8679 281.145 41.3249 281.145 40.6465C281.145 39.9681 280.604 39.4251 279.929 39.4251Z" fill="white"/>
<path d="M53.0052 143.461C52.397 142.782 51.3831 142.714 50.7075 143.257C50.0315 143.868 49.9641 144.886 50.5048 145.565L52.1269 147.533C41.7194 147.126 35.2989 145.565 32.5956 144.275C31.7848 143.868 31.7848 142.85 32.5956 142.443C34.2467 141.644 37.2255 140.79 41.5322 140.132C42.3345 140.01 42.9357 139.325 42.9357 138.514C42.9357 137.538 42.0781 136.781 41.1128 136.927C34.3235 137.948 28 139.835 28 143.325C28 149.162 45.2335 150.519 52.5999 150.791L50.167 153.234C49.5589 153.845 49.5589 154.931 50.167 155.542C50.7751 156.153 51.8565 156.153 52.4647 155.542L57.128 150.927C57.7361 150.316 57.804 149.23 57.2633 148.484C56.1139 147.126 54.2214 144.886 53.0052 143.461Z" fill="white"/>
<path d="M73.8878 136.927C72.9217 136.782 72.0634 137.538 72.0634 138.515C72.0634 139.327 72.6634 140.011 73.465 140.135C77.7249 140.792 80.7541 141.645 82.4035 142.443C83.2143 142.85 83.2143 143.936 82.4035 144.275C79.6325 145.632 72.6715 147.262 61.5205 147.601C60.6418 147.601 59.8984 148.348 59.8984 149.298C59.8984 150.18 60.6419 150.927 61.5205 150.859C68.2788 150.655 86.999 149.501 86.999 143.393C86.999 139.842 80.6763 137.949 73.8878 136.927Z" fill="white"/>
<path d="M48.541 136.675C48.9464 136.471 49.2844 136.199 49.5545 135.928C50.0952 135.385 50.3654 134.571 50.3654 133.621C50.3654 132.603 50.0273 131.72 49.2839 131.11C48.5405 130.431 47.4591 130.092 46.0401 130.092C45.1614 130.092 44.3505 130.228 43.6071 130.499C42.9311 130.77 42.323 131.11 41.8501 131.517C41.6996 131.63 41.6663 131.843 41.7749 131.997L42.5339 133.073C42.6405 133.224 42.8512 133.257 42.999 133.146C43.4723 132.874 43.9451 132.603 44.4184 132.399C44.8917 132.196 45.432 132.128 46.0405 132.128C46.6487 132.128 47.1894 132.264 47.5273 132.535C47.8653 132.806 48.0006 133.214 48.0006 133.689C48.0006 134.3 47.7979 134.775 47.3246 135.182C46.8513 135.589 46.1084 135.793 45.1618 135.793H44.5578C43.9955 135.793 43.5397 136.249 43.5397 136.811C43.5397 137.373 43.9955 137.829 44.5578 137.829H45.0939C46.1754 137.829 46.9862 137.965 47.5943 138.304C48.1351 138.576 48.3378 139.051 48.3378 139.73C48.3378 140.409 48.1351 140.951 47.6618 141.359C47.1885 141.766 46.4455 141.97 45.4315 141.97C44.8908 141.97 44.2827 141.902 43.742 141.766C43.1339 141.63 42.5932 141.427 42.0524 141.155C41.8042 141.031 41.5117 141.211 41.5117 141.489V142.91C41.5117 143.038 41.5934 143.151 41.7144 143.191C42.2551 143.463 42.8633 143.667 43.4714 143.802C44.0796 143.938 44.6877 143.938 45.3638 143.938C46.5126 143.938 47.5266 143.734 48.2695 143.395C49.0804 143.056 49.6211 142.513 50.0266 141.902C50.432 141.291 50.5673 140.545 50.5673 139.73C50.5673 138.78 50.2972 138.033 49.6886 137.422C49.5552 137.15 49.0819 136.879 48.5411 136.675L48.541 136.675Z" fill="white"/>
<path d="M57.1264 135.113C56.3155 135.113 55.6396 135.249 55.0988 135.588C54.8287 135.724 54.6255 135.86 54.4228 136.064C54.4902 135.724 54.5581 135.385 54.6255 135.046C54.7608 134.435 54.9635 133.96 55.2336 133.485C55.5038 133.078 55.9096 132.738 56.3825 132.467C57.0585 132.127 58.0046 131.992 59.0182 132.127C59.2816 132.163 59.4915 132.195 59.6942 132.263C59.9313 132.331 60.1675 132.153 60.1675 131.907V130.64C60.1675 130.477 60.0561 130.334 59.8974 130.294C59.6947 130.227 59.4627 130.154 59.1006 130.12C58.7989 130.091 58.4784 130.091 58.2078 130.091C56.9236 130.091 55.9101 130.294 55.0988 130.77C54.2879 131.245 53.612 131.856 53.2065 132.602C52.7332 133.349 52.4631 134.231 52.2604 135.113C52.1251 135.996 51.9902 136.946 51.9902 137.896C51.9902 139.254 52.1929 140.34 52.5984 141.222C53.0038 142.105 53.6119 142.783 54.2879 143.258C54.9639 143.665 55.7747 143.937 56.6535 143.937C58.0051 143.937 59.0865 143.53 59.8974 142.648C60.7082 141.833 61.1136 140.68 61.1136 139.254C61.1136 137.897 60.7082 136.878 59.9648 136.132C59.2888 135.452 58.3427 135.113 57.1263 135.113L57.1264 135.113ZM58.8834 139.321C58.8834 140.272 58.6807 140.95 58.2753 141.358C57.8699 141.765 57.3291 141.968 56.721 141.968C56.1803 141.968 55.7749 141.832 55.4368 141.561C55.0988 141.29 54.8287 140.882 54.626 140.475C54.4233 140 54.3559 139.525 54.3559 139.05C54.3559 138.71 54.4233 138.439 54.626 138.099C54.8287 137.76 55.0993 137.489 55.5047 137.285C55.8427 137.082 56.3155 136.946 56.7889 136.946C57.5323 136.946 58.0051 137.149 58.411 137.556C58.748 138.032 58.8834 138.642 58.8834 139.321Z" fill="white"/>
<path d="M70.2405 131.991C69.4971 130.701 68.2809 130.091 66.7261 130.091C65.6447 130.091 64.6985 130.362 64.0231 130.973C63.3471 131.516 62.8743 132.33 62.5363 133.417C62.2662 134.434 62.1309 135.656 62.1309 137.081C62.1309 139.185 62.4689 140.882 63.2123 142.104C63.9557 143.394 65.1719 144.004 66.7267 144.004C67.8081 144.004 68.7543 143.733 69.4297 143.122C70.1057 142.579 70.5786 141.765 70.9165 140.679C71.1867 139.661 71.3898 138.439 71.3898 137.014C71.3894 134.909 70.984 133.213 70.2405 131.991ZM69.0917 137.081C69.0917 138.778 68.889 140.068 68.4836 140.882C68.1456 141.629 67.5374 141.968 66.7266 141.968C65.9157 141.968 65.3071 141.629 64.9695 140.882C64.5641 140.068 64.4288 138.778 64.4288 137.081C64.4288 135.385 64.6315 134.095 64.9695 133.281C65.3075 132.534 65.8482 132.195 66.7266 132.195C67.5374 132.195 68.0781 132.534 68.4836 133.281C68.8885 134.095 69.0917 135.385 69.0917 137.081Z" fill="white"/>
<path d="M71.9287 130.294C70.5092 130.294 69.293 129.14 69.293 127.647C69.293 126.154 70.4418 125 71.9287 125C73.3481 125 74.5644 126.154 74.5644 127.647C74.5644 129.14 73.3477 130.294 71.9287 130.294ZM71.9287 126.425C71.2527 126.425 70.7124 126.968 70.7124 127.647C70.7124 128.325 71.2532 128.868 71.9287 128.868C72.6047 128.868 73.1449 128.325 73.1449 127.647C73.1449 126.968 72.6042 126.425 71.9287 126.425Z" fill="white"/>
<path d="M157.005 143.461C156.397 142.782 155.383 142.714 154.707 143.257C154.031 143.868 153.964 144.886 154.505 145.565L156.127 147.533C145.719 147.126 139.299 145.565 136.596 144.275C135.785 143.868 135.785 142.85 136.596 142.443C138.247 141.644 141.226 140.79 145.532 140.132C146.335 140.01 146.936 139.325 146.936 138.514C146.936 137.538 146.078 136.781 145.113 136.927C138.324 137.948 132 139.835 132 143.325C132 149.162 149.233 150.519 156.6 150.791L154.167 153.234C153.559 153.845 153.559 154.931 154.167 155.542C154.775 156.153 155.857 156.153 156.465 155.542L161.128 150.927C161.736 150.316 161.804 149.23 161.263 148.484C160.114 147.126 158.221 144.886 157.005 143.461Z" fill="white"/>
<path d="M177.888 136.927C176.922 136.782 176.063 137.538 176.063 138.515C176.063 139.327 176.663 140.011 177.465 140.135C181.725 140.792 184.754 141.645 186.403 142.443C187.214 142.85 187.214 143.936 186.403 144.275C183.632 145.632 176.671 147.262 165.521 147.601C164.642 147.601 163.898 148.348 163.898 149.298C163.898 150.18 164.642 150.927 165.521 150.859C172.279 150.655 190.999 149.501 190.999 143.393C190.999 139.842 184.676 137.949 177.888 136.927Z" fill="white"/>
<path d="M152.541 136.675C152.946 136.471 153.284 136.199 153.555 135.928C154.095 135.385 154.365 134.571 154.365 133.621C154.365 132.603 154.027 131.72 153.284 131.11C152.541 130.431 151.459 130.092 150.04 130.092C149.161 130.092 148.351 130.228 147.607 130.499C146.931 130.77 146.323 131.11 145.85 131.517C145.7 131.63 145.666 131.843 145.775 131.997L146.534 133.073C146.641 133.224 146.851 133.257 146.999 133.146C147.472 132.874 147.945 132.603 148.418 132.399C148.892 132.196 149.432 132.128 150.041 132.128C150.649 132.128 151.189 132.264 151.527 132.535C151.865 132.806 152.001 133.214 152.001 133.689C152.001 134.3 151.798 134.775 151.325 135.182C150.851 135.589 150.108 135.793 149.162 135.793H148.558C147.995 135.793 147.54 136.249 147.54 136.811C147.54 137.373 147.995 137.829 148.558 137.829H149.094C150.175 137.829 150.986 137.965 151.594 138.304C152.135 138.576 152.338 139.051 152.338 139.73C152.338 140.409 152.135 140.951 151.662 141.359C151.188 141.766 150.446 141.97 149.432 141.97C148.891 141.97 148.283 141.902 147.742 141.766C147.134 141.63 146.593 141.427 146.052 141.155C145.804 141.031 145.512 141.211 145.512 141.489V142.91C145.512 143.038 145.593 143.151 145.714 143.191C146.255 143.463 146.863 143.667 147.471 143.802C148.08 143.938 148.688 143.938 149.364 143.938C150.513 143.938 151.527 143.734 152.27 143.395C153.08 143.056 153.621 142.513 154.027 141.902C154.432 141.291 154.567 140.545 154.567 139.73C154.567 138.78 154.297 138.033 153.689 137.422C153.555 137.15 153.082 136.879 152.541 136.675L152.541 136.675Z" fill="white"/>
<path d="M161.126 135.113C160.316 135.113 159.64 135.249 159.099 135.588C158.829 135.724 158.625 135.86 158.423 136.064C158.49 135.724 158.558 135.385 158.625 135.046C158.761 134.435 158.964 133.96 159.234 133.485C159.504 133.078 159.91 132.738 160.382 132.467C161.058 132.127 162.005 131.992 163.018 132.127C163.282 132.163 163.491 132.195 163.694 132.263C163.931 132.331 164.167 132.153 164.167 131.907V130.64C164.167 130.477 164.056 130.334 163.897 130.294C163.695 130.227 163.463 130.154 163.101 130.12C162.799 130.091 162.478 130.091 162.208 130.091C160.924 130.091 159.91 130.294 159.099 130.77C158.288 131.245 157.612 131.856 157.206 132.602C156.733 133.349 156.463 134.231 156.26 135.113C156.125 135.996 155.99 136.946 155.99 137.896C155.99 139.254 156.193 140.34 156.598 141.222C157.004 142.105 157.612 142.783 158.288 143.258C158.964 143.665 159.775 143.937 160.654 143.937C162.005 143.937 163.087 143.53 163.897 142.648C164.708 141.833 165.114 140.68 165.114 139.254C165.114 137.897 164.708 136.878 163.965 136.132C163.289 135.452 162.343 135.113 161.126 135.113L161.126 135.113ZM162.883 139.321C162.883 140.272 162.681 140.95 162.275 141.358C161.87 141.765 161.329 141.968 160.721 141.968C160.18 141.968 159.775 141.832 159.437 141.561C159.099 141.29 158.829 140.882 158.626 140.475C158.423 140 158.356 139.525 158.356 139.05C158.356 138.71 158.423 138.439 158.626 138.099C158.829 137.76 159.099 137.489 159.505 137.285C159.843 137.082 160.316 136.946 160.789 136.946C161.532 136.946 162.005 137.149 162.411 137.556C162.748 138.032 162.883 138.642 162.883 139.321Z" fill="white"/>
<path d="M174.241 131.991C173.497 130.701 172.281 130.091 170.726 130.091C169.645 130.091 168.699 130.362 168.023 130.973C167.347 131.516 166.874 132.33 166.536 133.417C166.266 134.434 166.131 135.656 166.131 137.081C166.131 139.185 166.469 140.882 167.212 142.104C167.956 143.394 169.172 144.004 170.727 144.004C171.808 144.004 172.754 143.733 173.43 143.122C174.106 142.579 174.579 141.765 174.917 140.679C175.187 139.661 175.39 138.439 175.39 137.014C175.389 134.909 174.984 133.213 174.241 131.991ZM173.092 137.081C173.092 138.778 172.889 140.068 172.484 140.882C172.146 141.629 171.537 141.968 170.727 141.968C169.916 141.968 169.307 141.629 168.97 140.882C168.564 140.068 168.429 138.778 168.429 137.081C168.429 135.385 168.632 134.095 168.97 133.281C169.308 132.534 169.848 132.195 170.727 132.195C171.537 132.195 172.078 132.534 172.484 133.281C172.889 134.095 173.092 135.385 173.092 137.081Z" fill="white"/>
<path d="M175.929 130.294C174.509 130.294 173.293 129.14 173.293 127.647C173.293 126.154 174.442 125 175.929 125C177.348 125 178.564 126.154 178.564 127.647C178.564 129.14 177.348 130.294 175.929 130.294ZM175.929 126.425C175.253 126.425 174.712 126.968 174.712 127.647C174.712 128.325 175.253 128.868 175.929 128.868C176.605 128.868 177.145 128.325 177.145 127.647C177.145 126.968 176.604 126.425 175.929 126.425Z" fill="white"/>
<path d="M261.005 143.461C260.397 142.782 259.383 142.714 258.707 143.257C258.031 143.868 257.964 144.886 258.505 145.565L260.127 147.533C249.719 147.126 243.299 145.565 240.596 144.275C239.785 143.868 239.785 142.85 240.596 142.443C242.247 141.644 245.226 140.79 249.532 140.132C250.335 140.01 250.936 139.325 250.936 138.514C250.936 137.538 250.078 136.781 249.113 136.927C242.324 137.948 236 139.835 236 143.325C236 149.162 253.233 150.519 260.6 150.791L258.167 153.234C257.559 153.845 257.559 154.931 258.167 155.542C258.775 156.153 259.857 156.153 260.465 155.542L265.128 150.927C265.736 150.316 265.804 149.23 265.263 148.484C264.114 147.126 262.221 144.886 261.005 143.461Z" fill="white"/>
<path d="M281.888 136.927C280.922 136.782 280.063 137.538 280.063 138.515C280.063 139.327 280.663 140.011 281.465 140.135C285.725 140.792 288.754 141.645 290.403 142.443C291.214 142.85 291.214 143.936 290.403 144.275C287.632 145.632 280.671 147.262 269.521 147.601C268.642 147.601 267.898 148.348 267.898 149.298C267.898 150.18 268.642 150.927 269.521 150.859C276.279 150.655 294.999 149.501 294.999 143.393C294.999 139.842 288.676 137.949 281.888 136.927Z" fill="white"/>
<path d="M256.541 136.675C256.946 136.471 257.284 136.199 257.555 135.928C258.095 135.385 258.365 134.571 258.365 133.621C258.365 132.603 258.027 131.72 257.284 131.11C256.541 130.431 255.459 130.092 254.04 130.092C253.161 130.092 252.351 130.228 251.607 130.499C250.931 130.77 250.323 131.11 249.85 131.517C249.7 131.63 249.666 131.843 249.775 131.997L250.534 133.073C250.641 133.224 250.851 133.257 250.999 133.146C251.472 132.874 251.945 132.603 252.418 132.399C252.892 132.196 253.432 132.128 254.041 132.128C254.649 132.128 255.189 132.264 255.527 132.535C255.865 132.806 256.001 133.214 256.001 133.689C256.001 134.3 255.798 134.775 255.325 135.182C254.851 135.589 254.108 135.793 253.162 135.793H252.558C251.995 135.793 251.54 136.249 251.54 136.811C251.54 137.373 251.995 137.829 252.558 137.829H253.094C254.175 137.829 254.986 137.965 255.594 138.304C256.135 138.576 256.338 139.051 256.338 139.73C256.338 140.409 256.135 140.951 255.662 141.359C255.188 141.766 254.446 141.97 253.432 141.97C252.891 141.97 252.283 141.902 251.742 141.766C251.134 141.63 250.593 141.427 250.052 141.155C249.804 141.031 249.512 141.211 249.512 141.489V142.91C249.512 143.038 249.593 143.151 249.714 143.191C250.255 143.463 250.863 143.667 251.471 143.802C252.08 143.938 252.688 143.938 253.364 143.938C254.513 143.938 255.527 143.734 256.27 143.395C257.08 143.056 257.621 142.513 258.027 141.902C258.432 141.291 258.567 140.545 258.567 139.73C258.567 138.78 258.297 138.033 257.689 137.422C257.555 137.15 257.082 136.879 256.541 136.675L256.541 136.675Z" fill="white"/>
<path d="M265.126 135.113C264.316 135.113 263.64 135.249 263.099 135.588C262.829 135.724 262.625 135.86 262.423 136.064C262.49 135.724 262.558 135.385 262.625 135.046C262.761 134.435 262.964 133.96 263.234 133.485C263.504 133.078 263.91 132.738 264.382 132.467C265.058 132.127 266.005 131.992 267.018 132.127C267.282 132.163 267.491 132.195 267.694 132.263C267.931 132.331 268.167 132.153 268.167 131.907V130.64C268.167 130.477 268.056 130.334 267.897 130.294C267.695 130.227 267.463 130.154 267.101 130.12C266.799 130.091 266.478 130.091 266.208 130.091C264.924 130.091 263.91 130.294 263.099 130.77C262.288 131.245 261.612 131.856 261.206 132.602C260.733 133.349 260.463 134.231 260.26 135.113C260.125 135.996 259.99 136.946 259.99 137.896C259.99 139.254 260.193 140.34 260.598 141.222C261.004 142.105 261.612 142.783 262.288 143.258C262.964 143.665 263.775 143.937 264.654 143.937C266.005 143.937 267.087 143.53 267.897 142.648C268.708 141.833 269.114 140.68 269.114 139.254C269.114 137.897 268.708 136.878 267.965 136.132C267.289 135.452 266.343 135.113 265.126 135.113L265.126 135.113ZM266.883 139.321C266.883 140.272 266.681 140.95 266.275 141.358C265.87 141.765 265.329 141.968 264.721 141.968C264.18 141.968 263.775 141.832 263.437 141.561C263.099 141.29 262.829 140.882 262.626 140.475C262.423 140 262.356 139.525 262.356 139.05C262.356 138.71 262.423 138.439 262.626 138.099C262.829 137.76 263.099 137.489 263.505 137.285C263.843 137.082 264.316 136.946 264.789 136.946C265.532 136.946 266.005 137.149 266.411 137.556C266.748 138.032 266.883 138.642 266.883 139.321Z" fill="white"/>
<path d="M278.241 131.991C277.497 130.701 276.281 130.091 274.726 130.091C273.645 130.091 272.699 130.362 272.023 130.973C271.347 131.516 270.874 132.33 270.536 133.417C270.266 134.434 270.131 135.656 270.131 137.081C270.131 139.185 270.469 140.882 271.212 142.104C271.956 143.394 273.172 144.004 274.727 144.004C275.808 144.004 276.754 143.733 277.43 143.122C278.106 142.579 278.579 141.765 278.917 140.679C279.187 139.661 279.39 138.439 279.39 137.014C279.389 134.909 278.984 133.213 278.241 131.991ZM277.092 137.081C277.092 138.778 276.889 140.068 276.484 140.882C276.146 141.629 275.537 141.968 274.727 141.968C273.916 141.968 273.307 141.629 272.97 140.882C272.564 140.068 272.429 138.778 272.429 137.081C272.429 135.385 272.632 134.095 272.97 133.281C273.308 132.534 273.848 132.195 274.727 132.195C275.537 132.195 276.078 132.534 276.484 133.281C276.889 134.095 277.092 135.385 277.092 137.081Z" fill="white"/>
<path d="M279.929 130.294C278.509 130.294 277.293 129.14 277.293 127.647C277.293 126.154 278.442 125 279.929 125C281.348 125 282.564 126.154 282.564 127.647C282.564 129.14 281.348 130.294 279.929 130.294ZM279.929 126.425C279.253 126.425 278.712 126.968 278.712 127.647C278.712 128.325 279.253 128.868 279.929 128.868C280.605 128.868 281.145 128.325 281.145 127.647C281.145 126.968 280.604 126.425 279.929 126.425Z" fill="white"/>
<rect x="152.592" y="195" width="15.7327" height="40.7874" rx="1" fill="#060606"/>
<path d="M114.435 239.83C112.033 240.097 111.302 236.667 113.605 235.937L153.179 223.386L155.707 235.245L114.435 239.83Z" fill="#060606"/>
<path d="M207.394 235.936C209.698 236.667 208.966 240.096 206.564 239.829L165.292 235.245L167.82 223.386L207.394 235.936Z" fill="#060606"/>
<defs>
<radialGradient id="paint0_angular_394_4124" cx="0" cy="0" r="1" gradientUnits="userSpaceOnUse" gradientTransform="translate(57.5 54) rotate(90) scale(41 49.5)">
<stop offset="0.358326" stop-color="#926BE5"/>
<stop offset="0.877068" stop-color="#5AA3FF"/>
</radialGradient>
<radialGradient id="paint1_angular_394_4124" cx="0" cy="0" r="1" gradientUnits="userSpaceOnUse" gradientTransform="translate(161.5 54) rotate(90) scale(41 49.5)">
<stop offset="0.500001" stop-color="#926BE5"/>
<stop offset="1" stop-color="#5AA3FF"/>
</radialGradient>
<radialGradient id="paint2_angular_394_4124" cx="0" cy="0" r="1" gradientUnits="userSpaceOnUse" gradientTransform="translate(265.5 54) rotate(90) scale(41 49.5)">
<stop offset="0.126903" stop-color="#5AA3FF"/>
<stop offset="0.629858" stop-color="#926BE5"/>
</radialGradient>
<radialGradient id="paint3_angular_394_4124" cx="0" cy="0" r="1" gradientUnits="userSpaceOnUse" gradientTransform="translate(57.5 141) rotate(90) scale(41 49.5)">
<stop offset="0.130034" stop-color="#926BE5"/>
<stop offset="0.624475" stop-color="#5AA3FF"/>
</radialGradient>
<radialGradient id="paint4_angular_394_4124" cx="0" cy="0" r="1" gradientUnits="userSpaceOnUse" gradientTransform="translate(161.5 141) rotate(90) scale(41 49.5)">
<stop offset="0.501121" stop-color="#5AA3FF"/>
<stop offset="0.999999" stop-color="#926BE5"/>
</radialGradient>
<radialGradient id="paint5_angular_394_4124" cx="0" cy="0" r="1" gradientUnits="userSpaceOnUse" gradientTransform="translate(265.5 141) rotate(90) scale(41 49.5)">
<stop offset="0.356115" stop-color="#5AA3FF"/>
<stop offset="0.870589" stop-color="#926BE5"/>
</radialGradient>
</defs>
</svg>
