<svg width="323" height="248" viewBox="0 0 323 248" fill="none" xmlns="http://www.w3.org/2000/svg">
<path d="M321.5 193.5H1.5V8.1533C1.5 6.38913 2.20137 4.69699 3.45023 3.44916C4.69913 2.20128 6.39326 1.5 8.16 1.5H314.84C315.715 1.5 316.581 1.67216 317.389 2.00663C318.197 2.34108 318.931 2.83127 319.55 3.44915C320.168 4.06704 320.659 4.80048 320.993 5.60758C321.328 6.41469 321.5 7.27972 321.5 8.1533V193.5Z" fill="white" stroke="#020202" stroke-width="3"/>
<rect x="8" y="13" width="307" height="169" rx="4" fill="url(#paint0_radial_394_4180)" fill-opacity="0.7"/>
<path d="M150.455 105.259C148.96 103.595 146.468 103.429 144.808 104.76C143.147 106.257 142.981 108.754 144.31 110.417L148.296 115.242C122.718 114.244 106.938 110.417 100.295 107.255C98.3018 106.257 98.3018 103.761 100.295 102.762C104.353 100.805 111.677 98.7106 122.265 97.0975C124.233 96.7978 125.707 95.12 125.707 93.1297C125.707 90.7369 123.606 88.8831 121.239 89.238C104.549 91.7408 89 96.3688 89 104.926C89 119.236 131.355 122.563 149.459 123.23L143.48 129.22C141.985 130.717 141.985 133.38 143.48 134.877C144.974 136.374 147.632 136.374 149.127 134.877L160.588 123.563C162.082 122.066 162.249 119.403 160.92 117.573C158.095 114.245 153.444 108.754 150.455 105.259Z" fill="white"/>
<path d="M201.764 89.2389C199.396 88.8835 197.292 90.7387 197.292 93.1335C197.292 95.1225 198.764 96.8003 200.73 97.1031C211.203 98.7162 218.651 100.808 222.705 102.762C224.698 103.761 224.698 106.423 222.705 107.255C215.895 110.583 198.787 114.577 171.381 115.409C169.222 115.409 167.395 117.239 167.395 119.569C167.395 121.732 169.222 123.563 171.381 123.396C187.991 122.896 234 120.068 234 105.092C234 96.3839 218.453 91.7438 201.764 89.2389Z" fill="white"/>
<path d="M139.487 88.6201C140.483 88.121 141.314 87.4548 141.978 86.7897C143.307 85.4584 143.97 83.4622 143.97 81.1326C143.97 78.6372 143.14 76.4736 141.313 74.9764C139.486 73.312 136.828 72.481 133.34 72.481C131.181 72.481 129.188 72.8141 127.361 73.4791C125.699 74.1442 124.205 74.9764 123.043 75.9746C122.673 76.2525 122.591 76.7741 122.858 77.1519L124.723 79.7892C124.985 80.1605 125.503 80.2416 125.866 79.9683C127.029 79.3032 128.191 78.637 129.355 78.1379C130.518 77.6388 131.846 77.4729 133.341 77.4729C134.836 77.4729 136.165 77.806 136.995 78.471C137.826 79.1361 138.159 80.1354 138.159 81.2996C138.159 82.7969 137.661 83.9621 136.497 84.9602C135.334 85.9583 133.508 86.4575 131.182 86.4575H129.691C128.313 86.4575 127.195 87.575 127.195 88.9536C127.195 90.3321 128.313 91.4496 129.691 91.4496H131.015C133.673 91.4496 135.666 91.7827 137.16 92.6149C138.489 93.28 138.987 94.4453 138.987 96.1098C138.987 97.7742 138.489 99.1043 137.326 100.104C136.163 101.102 134.337 101.601 131.845 101.601C130.516 101.601 129.021 101.435 127.692 101.102C126.198 100.769 124.869 100.27 123.54 99.6044C122.929 99.2989 122.211 99.7428 122.211 100.425V103.905C122.211 104.219 122.412 104.497 122.709 104.596C124.038 105.261 125.533 105.762 127.027 106.094C128.522 106.427 130.016 106.427 131.678 106.427C134.502 106.427 136.994 105.928 138.82 105.095C140.812 104.263 142.141 102.932 143.138 101.435C144.134 99.9375 144.467 98.1072 144.467 96.1096C144.467 93.7801 143.803 91.9497 142.307 90.4525C141.979 89.7851 140.816 89.12 139.487 88.6198L139.487 88.6201Z" fill="white"/>
<path d="M160.578 84.7925C158.585 84.7925 156.924 85.1256 155.595 85.9578C154.931 86.2909 154.432 86.6229 153.934 87.1231C154.099 86.2909 154.266 85.4587 154.432 84.6277C154.764 83.1304 155.262 81.9651 155.926 80.8009C156.59 79.8027 157.588 78.9705 158.75 78.3055C160.411 77.4733 162.736 77.1402 165.228 77.4733C165.875 77.5599 166.391 77.6393 166.889 77.8064C167.472 77.9733 168.052 77.5358 168.052 76.9295V73.8294C168.052 73.4272 167.779 73.0766 167.388 72.9791C166.89 72.8131 166.32 72.6356 165.43 72.5507C164.689 72.48 163.901 72.48 163.236 72.48C160.08 72.48 157.589 72.9791 155.595 74.1444C153.602 75.3097 151.941 76.807 150.944 78.6373C149.781 80.4677 149.117 82.6311 148.619 84.7936C148.286 86.9571 147.955 89.2865 147.955 91.616C147.955 94.9436 148.453 97.6062 149.45 99.7696C150.446 101.933 151.941 103.596 153.602 104.762C155.264 105.76 157.256 106.426 159.416 106.426C162.738 106.426 165.396 105.428 167.388 103.264C169.381 101.268 170.378 98.4395 170.378 94.9447C170.378 91.6171 169.381 89.1203 167.554 87.29C165.893 85.6244 163.567 84.7922 160.578 84.7922L160.578 84.7925ZM164.896 95.1098C164.896 97.4392 164.398 99.1035 163.402 100.102C162.405 101.1 161.077 101.599 159.582 101.599C158.253 101.599 157.257 101.266 156.426 100.601C155.595 99.9359 154.931 98.9366 154.433 97.9384C153.935 96.7731 153.769 95.6089 153.769 94.4435C153.769 93.6113 153.935 92.9463 154.433 92.1141C154.931 91.2819 155.596 90.6168 156.593 90.1177C157.423 89.6186 158.585 89.2855 159.749 89.2855C161.576 89.2855 162.738 89.7846 163.735 90.7828C164.564 91.9481 164.896 93.4455 164.896 95.1098Z" fill="white"/>
<path d="M192.814 77.138C190.987 73.9763 187.998 72.479 184.177 72.479C181.519 72.479 179.193 73.1441 177.533 74.6425C175.872 75.9738 174.71 77.9701 173.879 80.6326C173.215 83.1281 172.883 86.1236 172.883 89.6173C172.883 94.7752 173.714 98.935 175.541 101.931C177.368 105.092 180.357 106.59 184.178 106.59C186.836 106.59 189.161 105.925 190.821 104.426C192.483 103.095 193.645 101.099 194.475 98.4361C195.139 95.9407 195.639 92.9451 195.639 89.4514C195.637 84.2924 194.641 80.1325 192.814 77.138ZM189.99 89.6175C189.99 93.7774 189.492 96.9392 188.496 98.9353C187.665 100.766 186.171 101.598 184.178 101.598C182.185 101.598 180.689 100.766 179.859 98.9353C178.863 96.9389 178.53 93.7774 178.53 89.6175C178.53 85.4577 179.029 82.2959 179.859 80.2998C180.69 78.4694 182.019 77.6372 184.178 77.6372C186.17 77.6372 187.499 78.4694 188.496 80.2998C189.491 82.2962 189.99 85.4577 189.99 89.6175Z" fill="white"/>
<path d="M196.968 72.9787C193.479 72.9787 190.49 70.1502 190.49 66.4894C190.49 62.8287 193.314 60 196.968 60C200.457 60 203.446 62.8285 203.446 66.4894C203.446 70.15 200.455 72.9787 196.968 72.9787ZM196.968 63.4937C195.307 63.4937 193.979 64.825 193.979 66.4882C193.979 68.1526 195.308 69.4826 196.968 69.4826C198.629 69.4826 199.957 68.1514 199.957 66.4882C199.957 64.825 198.628 63.4937 196.968 63.4937Z" fill="white"/>
<rect x="152.592" y="195" width="15.7327" height="40.7874" rx="1" fill="#060606"/>
<path d="M114.435 239.83C112.033 240.097 111.302 236.667 113.605 235.937L153.179 223.386L155.707 235.245L114.435 239.83Z" fill="#060606"/>
<path d="M207.394 235.936C209.698 236.667 208.966 240.096 206.564 239.829L165.292 235.245L167.82 223.386L207.394 235.936Z" fill="#060606"/>
<defs>
<radialGradient id="paint0_radial_394_4180" cx="0" cy="0" r="1" gradientUnits="userSpaceOnUse" gradientTransform="translate(161.5 97.5) rotate(90) scale(89.7268 162.995)">
<stop stop-color="#5AA3FF"/>
<stop offset="1" stop-color="#6BE5DE" stop-opacity="0"/>
</radialGradient>
</defs>
</svg>
