<svg width="323" height="248" viewBox="0 0 323 248" fill="none" xmlns="http://www.w3.org/2000/svg">
<path d="M321.5 193.5H1.5V8.1533C1.5 6.38913 2.20137 4.69699 3.45023 3.44916C4.69913 2.20128 6.39326 1.5 8.16 1.5H314.84C315.715 1.5 316.581 1.67216 317.389 2.00663C318.197 2.34108 318.931 2.83127 319.55 3.44915C320.168 4.06704 320.659 4.80048 320.993 5.60758C321.328 6.41469 321.5 7.27972 321.5 8.1533V193.5Z" fill="white" stroke="#020202" stroke-width="3"/>
<path d="M8 20C8 16.134 11.134 13 15 13H74C77.866 13 81 16.134 81 20V36.7272C81 40.5932 77.866 43.7273 74 43.7273H15C11.134 43.7273 8 40.5932 8 36.7273V20Z" fill="url(#paint0_angular_394_4047)" fill-opacity="0.7"/>
<path d="M8 54.0881C8 50.2221 11.134 47.088 15 47.088H74C77.866 47.088 81 50.2221 81 54.088V70.8153C81 74.6813 77.866 77.8153 74 77.8153H15C11.134 77.8153 8 74.6813 8 70.8153V54.0881Z" fill="url(#paint1_angular_394_4047)" fill-opacity="0.7"/>
<path d="M8 88.6562C8 84.7902 11.134 81.6562 15 81.6562H74C77.866 81.6562 81 84.7902 81 88.6562V105.383C81 109.249 77.866 112.383 74 112.383H15C11.134 112.383 8 109.249 8 105.383V88.6562Z" fill="url(#paint2_angular_394_4047)" fill-opacity="0.7"/>
<path d="M8 123.704C8 119.838 11.134 116.704 15 116.704H74C77.866 116.704 81 119.838 81 123.704V140.432C81 144.298 77.866 147.432 74 147.432H15C11.134 147.432 8 144.298 8 140.432V123.704Z" fill="url(#paint3_angular_394_4047)" fill-opacity="0.7"/>
<path d="M8 158.273C8 154.407 11.134 151.273 15 151.273H74C77.866 151.273 81 154.407 81 158.273V175C81 178.866 77.866 182 74 182H15C11.134 182 8 178.866 8 175V158.273Z" fill="url(#paint4_angular_394_4047)" fill-opacity="0.7"/>
<rect x="86" y="13" width="229" height="82" rx="4" fill="url(#paint5_angular_394_4047)" fill-opacity="0.7"/>
<rect x="86" y="100" width="229" height="82" rx="4" fill="url(#paint6_angular_394_4047)" fill-opacity="0.7"/>
<path d="M53.9274 20.0005H36.0637C35.7331 20.0014 35.4164 20.1234 35.183 20.3398C34.9495 20.5562 34.8184 20.8495 34.8184 21.1551V32.1989C34.8174 32.5048 34.9482 32.7985 35.1818 33.015C35.4156 33.2317 35.7328 33.3534 36.0638 33.3534H43.3029L42.7522 36.4005H41.9911C41.8258 36.4168 41.7004 36.5458 41.7004 36.6994C41.7004 36.8531 41.8258 36.982 41.9911 36.9983H47.9962C48.0879 37.0074 48.1794 36.98 48.2481 36.9229C48.3167 36.8661 48.356 36.7848 48.356 36.6994C48.356 36.6141 48.3167 36.5329 48.2481 36.4758C48.1794 36.4188 48.0879 36.3915 47.9962 36.4005H47.2571L46.7064 33.3534H53.9274C54.2583 33.3534 54.5756 33.2317 54.8093 33.015C55.0429 32.7985 55.1738 32.5048 55.1728 32.1989V21.155C55.1728 20.8494 55.0416 20.5562 54.8082 20.3398C54.5748 20.1234 54.258 20.0014 53.9274 20.0005ZM36.0637 20.5983H53.9274C54.2587 20.6001 54.5261 20.8488 54.5261 21.155V30.9246H35.4651V21.155C35.4651 20.8488 35.7325 20.6001 36.0638 20.5983H36.0637ZM46.5844 36.4002H43.4063L43.957 33.3531H46.0339L46.5844 36.4002ZM53.927 32.7554H36.0633C35.732 32.7535 35.4646 32.5048 35.4646 32.1986L35.4651 30.9246H54.5261L54.5256 32.1986C54.5256 32.5048 54.2582 32.7535 53.9269 32.7554H53.927Z" fill="white"/>
<path d="M35.4512 31.1646V30.5009H54.5176V31.1646H35.4512Z" fill="white"/>
<path d="M53.9274 124H36.0637C35.7331 124.001 35.4164 124.123 35.183 124.34C34.9495 124.556 34.8184 124.849 34.8184 125.155V136.199C34.8174 136.505 34.9482 136.798 35.1818 137.015C35.4156 137.232 35.7328 137.353 36.0638 137.353H43.3029L42.7522 140.4H41.9911C41.8258 140.417 41.7004 140.546 41.7004 140.699C41.7004 140.853 41.8258 140.982 41.9911 140.998H47.9962C48.0879 141.007 48.1794 140.98 48.2481 140.923C48.3167 140.866 48.356 140.785 48.356 140.699C48.356 140.614 48.3167 140.533 48.2481 140.476C48.1794 140.419 48.0879 140.391 47.9962 140.4H47.2571L46.7064 137.353H53.9274C54.2583 137.353 54.5756 137.232 54.8093 137.015C55.0429 136.798 55.1738 136.505 55.1728 136.199V125.155C55.1728 124.849 55.0416 124.556 54.8082 124.34C54.5748 124.123 54.258 124.001 53.9274 124ZM36.0637 124.598H53.9274C54.2587 124.6 54.5261 124.849 54.5261 125.155V134.925H35.4651V125.155C35.4651 124.849 35.7325 124.6 36.0638 124.598H36.0637ZM46.5844 140.4H43.4063L43.957 137.353H46.0339L46.5844 140.4ZM53.927 136.755H36.0633C35.732 136.753 35.4646 136.505 35.4646 136.199L35.4651 134.925H54.5261L54.5256 136.199C54.5256 136.505 54.2582 136.753 53.9269 136.755H53.927Z" fill="white"/>
<path d="M35.4512 135.165V134.501H54.5176V135.165H35.4512Z" fill="white"/>
<path d="M195.514 58.0341C194.772 57.2238 193.535 57.143 192.71 57.7911C191.885 58.5201 191.803 59.7354 192.463 60.5452L194.442 62.8942C181.742 62.4082 173.907 60.5452 170.608 59.0059C169.619 58.52 169.619 57.3045 170.608 56.8186C172.627 55.8637 176.273 54.8423 181.545 54.0565C182.506 53.9133 183.226 53.0952 183.226 52.1241C183.226 50.9608 182.206 50.0587 181.055 50.2274C172.75 51.4442 165 53.698 165 57.8718C165 64.8385 186.03 66.4585 195.02 66.783L192.051 69.6993C191.309 70.4282 191.309 71.7244 192.051 72.4534C192.793 73.1823 194.112 73.1823 194.855 72.4534L200.545 66.9451C201.287 66.2162 201.37 64.9199 200.71 64.0289C199.308 62.4088 196.998 59.7354 195.514 58.0341Z" fill="white"/>
<path d="M220.948 50.2278C219.796 50.0589 218.775 50.9617 218.775 52.1259C218.775 53.0964 219.494 53.9145 220.454 54.0591C225.669 54.845 229.376 55.8651 231.393 56.8186C232.382 57.3046 232.382 58.6008 231.393 59.0059C228.011 60.626 219.517 62.5704 205.909 62.9755C204.837 62.9755 203.93 63.8666 203.93 65.0007C203.93 66.0539 204.837 66.945 205.909 66.8637C214.156 66.6207 237.001 65.2437 237.001 57.9526C237.001 53.7051 229.252 51.4457 220.948 50.2278Z" fill="white"/>
<path d="M190.066 49.9333C190.561 49.6903 190.973 49.366 191.303 49.0422C191.963 48.3941 192.292 47.4222 192.292 46.2881C192.292 45.0732 191.88 44.0199 190.973 43.2909C190.066 42.4806 188.746 42.076 187.014 42.076C185.942 42.076 184.953 42.2382 184.045 42.562C183.22 42.8858 182.478 43.2909 181.901 43.7769C181.719 43.9115 181.678 44.168 181.811 44.352L182.734 45.632C182.866 45.8149 183.122 45.855 183.303 45.7212C183.881 45.3974 184.458 45.0731 185.035 44.8301C185.613 44.5871 186.272 44.5063 187.015 44.5063C187.757 44.5063 188.417 44.6685 188.829 44.9923C189.242 45.3161 189.407 45.8026 189.407 46.3693C189.407 47.0983 189.159 47.6656 188.582 48.1515C188.004 48.6374 187.098 48.8805 185.942 48.8805H185.178C184.507 48.8805 183.963 49.4245 183.963 50.0956C183.963 50.7668 184.507 51.3108 185.178 51.3108H185.86C187.179 51.3108 188.169 51.473 188.911 51.8782C189.571 52.2019 189.818 52.7693 189.818 53.5796C189.818 54.3899 189.571 55.0375 188.993 55.5239C188.416 56.0099 187.509 56.2529 186.272 56.2529C185.612 56.2529 184.87 56.1721 184.21 56.0099C183.468 55.8477 182.808 55.6047 182.148 55.281C181.844 55.1316 181.488 55.3532 181.488 55.6922V57.3702C181.488 57.5254 181.588 57.663 181.736 57.7112C182.395 58.035 183.138 58.2786 183.88 58.4402C184.622 58.6023 185.364 58.6023 186.189 58.6023C187.591 58.6023 188.828 58.3594 189.735 57.9542C190.724 57.5491 191.384 56.9009 191.879 56.172C192.374 55.4431 192.539 54.552 192.539 53.5795C192.539 52.4454 192.209 51.5543 191.467 50.8254C191.304 50.5005 190.726 50.1767 190.066 49.9331L190.066 49.9333Z" fill="white"/>
<path d="M200.541 48.0688C199.552 48.0688 198.727 48.231 198.067 48.6362C197.737 48.7984 197.489 48.96 197.242 49.2035C197.324 48.7984 197.407 48.3932 197.489 47.9886C197.654 47.2597 197.902 46.6924 198.231 46.1256C198.561 45.6396 199.056 45.2345 199.633 44.9107C200.458 44.5056 201.613 44.3434 202.85 44.5056C203.171 44.5477 203.427 44.5864 203.675 44.6677C203.965 44.7492 204.252 44.5312 204.252 44.23V42.7378C204.252 42.5385 204.116 42.365 203.923 42.3176C203.675 42.2368 203.392 42.1503 202.95 42.109C202.582 42.0746 202.191 42.0746 201.861 42.0746C200.294 42.0746 199.057 42.3176 198.067 42.8849C197.077 43.4522 196.252 44.1811 195.758 45.0722C195.18 45.9634 194.85 47.0166 194.603 48.0694C194.438 49.1227 194.273 50.2567 194.273 51.3908C194.273 53.0109 194.521 54.3071 195.016 55.3604C195.51 56.4136 196.252 57.2234 197.077 57.7907C197.902 58.2767 198.892 58.6011 199.964 58.6011C201.613 58.6011 202.933 58.1151 203.923 57.0618C204.912 56.0898 205.407 54.7128 205.407 53.0114C205.407 51.3914 204.912 50.1758 204.005 49.2847C203.18 48.4739 202.025 48.0687 200.541 48.0687L200.541 48.0688ZM202.685 53.0918C202.685 54.2258 202.438 55.0361 201.943 55.5221C201.448 56.0082 200.789 56.2511 200.046 56.2511C199.387 56.2511 198.892 56.0889 198.479 55.7651C198.067 55.4413 197.737 54.9548 197.49 54.4689C197.242 53.9015 197.16 53.3348 197.16 52.7674C197.16 52.3623 197.242 52.0385 197.49 51.6333C197.737 51.2282 198.067 50.9044 198.562 50.6614C198.975 50.4184 199.552 50.2563 200.129 50.2563C201.036 50.2563 201.613 50.4992 202.109 50.9852C202.52 51.5525 202.685 52.2815 202.685 53.0918Z" fill="white"/>
<path d="M216.547 44.3428C215.64 42.8035 214.155 42.0746 212.258 42.0746C210.938 42.0746 209.784 42.3984 208.959 43.1279C208.135 43.776 207.558 44.7479 207.145 46.0441C206.815 47.259 206.65 48.7174 206.65 50.4183C206.65 52.9294 207.063 54.9546 207.97 56.413C208.877 57.9523 210.361 58.6812 212.259 58.6812C213.578 58.6812 214.733 58.3574 215.557 57.6279C216.382 56.9798 216.959 56.0079 217.372 54.7116C217.701 53.4968 217.949 52.0384 217.949 50.3375C217.949 47.8258 217.454 45.8007 216.547 44.3428ZM215.145 50.4184C215.145 52.4436 214.897 53.9829 214.403 54.9547C213.99 55.8458 213.248 56.2509 212.259 56.2509C211.269 56.2509 210.526 55.8458 210.114 54.9547C209.62 53.9828 209.455 52.4436 209.455 50.4184C209.455 48.3932 209.702 46.8539 210.114 45.8821C210.527 44.991 211.187 44.5858 212.259 44.5858C213.248 44.5858 213.908 44.991 214.403 45.8821C214.897 46.854 215.145 48.3932 215.145 50.4184Z" fill="white"/>
<path d="M218.611 42.3186C216.879 42.3186 215.395 40.9415 215.395 39.1593C215.395 37.3771 216.796 36 218.611 36C220.343 36 221.827 37.3771 221.827 39.1593C221.827 40.9415 220.343 42.3186 218.611 42.3186ZM218.611 37.7009C217.786 37.7009 217.127 38.349 217.127 39.1587C217.127 39.969 217.787 40.6166 218.611 40.6166C219.436 40.6166 220.095 39.9684 220.095 39.1587C220.095 38.349 219.435 37.7009 218.611 37.7009Z" fill="white"/>
<path d="M195.514 144.034C194.772 143.224 193.535 143.143 192.71 143.791C191.885 144.52 191.803 145.735 192.463 146.545L194.442 148.894C181.742 148.408 173.907 146.545 170.608 145.006C169.619 144.52 169.619 143.304 170.608 142.818C172.627 141.864 176.273 140.842 181.545 140.056C182.506 139.913 183.226 139.095 183.226 138.124C183.226 136.961 182.206 136.059 181.055 136.227C172.75 137.444 165 139.698 165 143.872C165 150.838 186.03 152.458 195.02 152.783L192.051 155.699C191.309 156.428 191.309 157.724 192.051 158.453C192.793 159.182 194.112 159.182 194.855 158.453L200.545 152.945C201.287 152.216 201.37 150.92 200.71 150.029C199.308 148.409 196.998 145.735 195.514 144.034Z" fill="white"/>
<path d="M220.948 136.228C219.796 136.059 218.775 136.962 218.775 138.126C218.775 139.096 219.494 139.914 220.454 140.059C225.669 140.845 229.376 141.865 231.393 142.818C232.382 143.304 232.382 144.601 231.393 145.006C228.011 146.626 219.517 148.57 205.909 148.975C204.837 148.975 203.93 149.866 203.93 151C203.93 152.054 204.837 152.945 205.909 152.863C214.156 152.62 237.001 151.243 237.001 143.952C237.001 139.705 229.252 137.446 220.948 136.228Z" fill="white"/>
<path d="M190.066 135.933C190.561 135.69 190.973 135.365 191.303 135.042C191.963 134.394 192.292 133.422 192.292 132.288C192.292 131.073 191.88 130.019 190.973 129.29C190.066 128.48 188.746 128.076 187.014 128.076C185.942 128.076 184.953 128.238 184.045 128.562C183.22 128.885 182.478 129.29 181.901 129.776C181.719 129.911 181.678 130.168 181.811 130.352L182.734 131.632C182.866 131.814 183.122 131.854 183.303 131.721C183.881 131.397 184.458 131.073 185.035 130.83C185.613 130.587 186.272 130.506 187.015 130.506C187.757 130.506 188.417 130.668 188.829 130.992C189.242 131.316 189.407 131.802 189.407 132.369C189.407 133.098 189.159 133.665 188.582 134.151C188.004 134.637 187.098 134.88 185.942 134.88H185.178C184.507 134.88 183.963 135.424 183.963 136.095C183.963 136.766 184.507 137.31 185.178 137.31H185.86C187.179 137.31 188.169 137.472 188.911 137.878C189.571 138.201 189.818 138.769 189.818 139.579C189.818 140.389 189.571 141.037 188.993 141.523C188.416 142.009 187.509 142.252 186.272 142.252C185.612 142.252 184.87 142.172 184.21 142.009C183.468 141.847 182.808 141.604 182.148 141.28C181.844 141.131 181.488 141.353 181.488 141.692V143.37C181.488 143.525 181.588 143.662 181.736 143.711C182.395 144.034 183.138 144.278 183.88 144.44C184.622 144.602 185.364 144.602 186.189 144.602C187.591 144.602 188.828 144.359 189.735 143.954C190.724 143.548 191.384 142.9 191.879 142.171C192.374 141.443 192.539 140.551 192.539 139.579C192.539 138.445 192.209 137.554 191.467 136.825C191.304 136.5 190.726 136.176 190.066 135.933L190.066 135.933Z" fill="white"/>
<path d="M200.541 134.068C199.552 134.068 198.727 134.23 198.067 134.636C197.737 134.798 197.489 134.959 197.242 135.203C197.324 134.798 197.407 134.393 197.489 133.988C197.654 133.259 197.902 132.692 198.231 132.125C198.561 131.639 199.056 131.234 199.633 130.91C200.458 130.505 201.613 130.343 202.85 130.505C203.171 130.547 203.427 130.586 203.675 130.667C203.965 130.749 204.252 130.531 204.252 130.229V128.737C204.252 128.538 204.116 128.365 203.923 128.317C203.675 128.236 203.392 128.15 202.95 128.109C202.582 128.074 202.191 128.074 201.861 128.074C200.294 128.074 199.057 128.317 198.067 128.884C197.077 129.452 196.252 130.181 195.758 131.072C195.18 131.963 194.85 133.016 194.603 134.069C194.438 135.122 194.273 136.256 194.273 137.39C194.273 139.01 194.521 140.307 195.016 141.36C195.51 142.413 196.252 143.223 197.077 143.79C197.902 144.276 198.892 144.6 199.964 144.6C201.613 144.6 202.933 144.115 203.923 143.061C204.912 142.089 205.407 140.712 205.407 139.011C205.407 137.391 204.912 136.175 204.005 135.284C203.18 134.473 202.025 134.068 200.541 134.068L200.541 134.068ZM202.685 139.091C202.685 140.225 202.438 141.036 201.943 141.522C201.448 142.008 200.789 142.251 200.046 142.251C199.387 142.251 198.892 142.088 198.479 141.765C198.067 141.441 197.737 140.954 197.49 140.468C197.242 139.901 197.16 139.334 197.16 138.767C197.16 138.362 197.242 138.038 197.49 137.633C197.737 137.228 198.067 136.904 198.562 136.661C198.975 136.418 199.552 136.256 200.129 136.256C201.036 136.256 201.613 136.499 202.109 136.985C202.52 137.552 202.685 138.281 202.685 139.091Z" fill="white"/>
<path d="M216.547 130.342C215.64 128.803 214.155 128.074 212.258 128.074C210.938 128.074 209.784 128.398 208.959 129.127C208.135 129.775 207.558 130.747 207.145 132.044C206.815 133.259 206.65 134.717 206.65 136.418C206.65 138.929 207.063 140.954 207.97 142.412C208.877 143.952 210.361 144.681 212.259 144.681C213.578 144.681 214.733 144.357 215.557 143.627C216.382 142.979 216.959 142.007 217.372 140.711C217.701 139.496 217.949 138.038 217.949 136.337C217.949 133.825 217.454 131.8 216.547 130.342ZM215.145 136.418C215.145 138.443 214.897 139.982 214.403 140.954C213.99 141.845 213.248 142.25 212.259 142.25C211.269 142.25 210.526 141.845 210.114 140.954C209.62 139.982 209.455 138.443 209.455 136.418C209.455 134.393 209.702 132.853 210.114 131.882C210.527 130.99 211.187 130.585 212.259 130.585C213.248 130.585 213.908 130.99 214.403 131.882C214.897 132.853 215.145 134.393 215.145 136.418Z" fill="white"/>
<path d="M218.611 128.319C216.879 128.319 215.395 126.942 215.395 125.159C215.395 123.377 216.796 122 218.611 122C220.343 122 221.827 123.377 221.827 125.159C221.827 126.941 220.343 128.319 218.611 128.319ZM218.611 123.701C217.786 123.701 217.127 124.349 217.127 125.159C217.127 125.969 217.787 126.617 218.611 126.617C219.436 126.617 220.095 125.968 220.095 125.159C220.095 124.349 219.435 123.701 218.611 123.701Z" fill="white"/>
<path d="M48.0466 106C49.1321 106 50.0156 105.176 50.0156 104.163L50.0154 90.8375C50.0154 89.8247 49.1322 89.0005 48.0464 89.0005L41.9592 89.0006C40.8736 89.0006 39.9902 89.8246 39.9902 90.8376V104.163C39.9902 105.176 40.8735 106 41.9592 106L48.0466 106ZM40.4206 104.163V90.8373C40.4206 90.0458 41.1108 89.4019 41.9591 89.4019H48.0463C48.8946 89.4019 49.5848 90.0458 49.5848 90.8373V104.163C49.5848 104.954 48.8946 105.598 48.0463 105.598L41.9591 105.598C41.1108 105.598 40.4206 104.954 40.4206 104.163V104.163Z" fill="white" stroke="white" stroke-width="0.5"/>
<path d="M43.5648 90.6323H46.4428C46.5616 90.6323 46.658 90.5424 46.658 90.4317C46.658 90.321 46.5616 90.2311 46.4428 90.2311H43.5648C43.446 90.2311 43.3496 90.321 43.3496 90.4317C43.3496 90.5424 43.446 90.6323 43.5648 90.6323Z" fill="white" stroke="white" stroke-width="0.5"/>
<path d="M45.0018 102.93C44.459 102.93 44.0176 103.344 44.0176 103.851C44.0176 104.358 44.459 104.771 45.0018 104.771C45.5457 104.771 45.9882 104.358 45.9882 103.851C45.9882 103.344 45.5457 102.93 45.0018 102.93ZM45.0018 104.37C44.6963 104.37 44.4481 104.137 44.4481 103.851C44.4481 103.565 44.6964 103.332 45.0018 103.332C45.3084 103.332 45.5579 103.565 45.5579 103.851C45.5577 104.137 45.3084 104.37 45.0018 104.37Z" fill="white" stroke="white" stroke-width="0.5"/>
<path d="M44.9721 67.883C42.9728 67.883 41.0555 67.1517 39.6415 65.8499C38.2278 64.5482 37.4336 62.7826 37.4336 60.9415C37.4336 59.1004 38.2278 57.3351 39.6415 56.0331C41.0552 54.7313 42.9726 54 44.9721 54C46.9715 54 48.8887 54.7313 50.3026 56.0331C51.7163 57.3348 52.5106 59.1004 52.5106 60.9415C52.5081 62.7818 51.7132 64.546 50.2999 65.8473C48.8867 67.1487 46.9708 67.8807 44.9721 67.8829L44.9721 67.883ZM44.9721 54.5669C43.136 54.5669 41.3751 55.2385 40.0769 56.434C38.7785 57.6296 38.0491 59.2509 38.0491 60.9416C38.0491 62.6323 38.7785 64.2537 40.0769 65.4491C41.3752 66.6447 43.136 67.3163 44.9721 67.3163C46.8081 67.3163 48.569 66.6447 49.8673 65.4491C51.1656 64.2536 51.895 62.6323 51.895 60.9416C51.8925 59.2517 51.1625 57.6314 49.8647 56.4363C48.5669 55.2412 46.8073 54.569 44.9719 54.5668L44.9721 54.5669Z" fill="white"/>
<path d="M44.9736 64.7668C43.8312 64.7668 42.7355 64.349 41.9277 63.6051C41.1198 62.8612 40.666 61.8523 40.666 60.8004C40.666 59.7484 41.1198 58.7395 41.9277 57.9956C42.7355 57.2518 43.8312 56.8339 44.9736 56.8339C46.1161 56.8339 47.2118 57.2518 48.0196 57.9956C48.8274 58.7395 49.2813 59.7484 49.2813 60.8004C49.2813 61.8523 48.8274 62.8612 48.0196 63.6051C47.2118 64.349 46.1161 64.7668 44.9736 64.7668ZM44.9736 57.4005C43.9944 57.4005 43.0553 57.7587 42.3628 58.3963C41.6704 59.0339 41.2814 59.8986 41.2814 60.8004C41.2814 61.7021 41.6704 62.5668 42.3628 63.2044C43.0553 63.842 43.9944 64.2002 44.9736 64.2002C45.9529 64.2002 46.892 63.842 47.5844 63.2044C48.2769 62.5668 48.6659 61.7021 48.6659 60.8004C48.6659 59.8986 48.2769 59.0339 47.5844 58.3963C46.892 57.7587 45.9529 57.4005 44.9736 57.4005Z" fill="white"/>
<path d="M44.9714 63.6347C44.1553 63.6347 43.3728 63.3362 42.7958 62.8048C42.2187 62.2735 41.8945 61.5529 41.8945 60.8015C41.8945 60.05 42.2187 59.3295 42.7958 58.7981C43.3728 58.2668 44.1553 57.9683 44.9714 57.9683C45.7875 57.9683 46.57 58.2668 47.1471 58.7981C47.7241 59.3295 48.0483 60.05 48.0483 60.8015C48.0483 61.5529 47.7241 62.2735 47.1471 62.8048C46.57 63.3362 45.7875 63.6347 44.9714 63.6347ZM44.9714 58.5349C44.3185 58.5349 43.6924 58.7737 43.2309 59.1988C42.7692 59.6238 42.5099 60.2003 42.5099 60.8015C42.5099 61.4026 42.7692 61.9791 43.2309 62.4041C43.6924 62.8292 44.3185 63.068 44.9714 63.068C45.6243 63.068 46.2504 62.8292 46.7119 62.4041C47.1736 61.9791 47.4329 61.4026 47.4329 60.8015C47.4329 60.2003 47.1736 59.6238 46.7119 59.1988C46.2504 58.7737 45.6243 58.5349 44.9714 58.5349Z" fill="white"/>
<path d="M45.2866 55.7015C45.2866 55.8578 45.1485 55.9846 44.9783 55.9846C44.808 55.9846 44.6699 55.8578 44.6699 55.7015C44.6699 55.5451 44.808 55.4183 44.9783 55.4183C45.1485 55.4183 45.2866 55.5451 45.2866 55.7015Z" fill="white"/>
<path d="M53.8968 70.9999H36.0509C35.9443 70.9996 35.8454 70.9484 35.7896 70.8648C35.7339 70.7811 35.729 70.6767 35.777 70.5891L36.2939 69.6372H36.294C36.7892 68.7297 37.6647 68.0472 38.7185 67.7474C39.6402 67.4794 40.6368 67.5328 41.5185 67.8975C42.6028 68.3542 43.7814 68.5907 44.9738 68.5907C46.1662 68.5907 47.3448 68.3543 48.4291 67.8975C49.3107 67.5325 50.3074 67.4791 51.2291 67.7474C52.2829 68.0472 53.1584 68.7297 53.6536 69.6372L54.1705 70.5891H54.1706C54.2186 70.6767 54.2138 70.7811 54.158 70.8648C54.1022 70.9484 54.0033 70.9996 53.8967 70.9999H53.8968ZM36.5495 70.4332H53.3985L53.0908 69.8921C52.6709 69.1231 51.9286 68.5451 51.0355 68.2914C50.2579 68.0645 49.4168 68.1087 48.6725 68.4159C47.5074 68.9067 46.2413 69.1608 44.9602 69.1608C43.679 69.1608 42.4129 68.9067 41.2479 68.4159C40.5035 68.1087 39.6623 68.0645 38.8847 68.2914C37.9916 68.5451 37.2493 69.1231 36.8294 69.8921L36.5495 70.4332Z" fill="white"/>
<path d="M44.4724 170.883C42.5565 170.883 40.719 170.152 39.364 168.85C38.0092 167.548 37.248 165.783 37.248 163.942C37.248 162.101 38.0092 160.335 39.364 159.033C40.7188 157.732 42.5563 157 44.4724 157C46.3886 157 48.2258 157.732 49.5809 159.033C50.9357 160.335 51.6968 162.101 51.6968 163.942C51.6944 165.782 50.9327 167.546 49.5782 168.847C48.2239 170.149 46.3879 170.881 44.4725 170.883L44.4724 170.883ZM44.4724 157.567C42.7128 157.567 41.0253 158.239 39.7812 159.434C38.5369 160.63 37.838 162.251 37.838 163.942C37.838 165.632 38.5369 167.254 39.7812 168.449C41.0254 169.645 42.7129 170.316 44.4724 170.316C46.232 170.316 47.9195 169.645 49.1637 168.449C50.4079 167.254 51.1069 165.632 51.1069 163.942C51.1045 162.252 50.4049 160.632 49.1612 159.437C47.9175 158.242 46.2312 157.57 44.4723 157.567L44.4724 157.567Z" fill="white"/>
<path d="M44.4738 167.767C43.379 167.767 42.329 167.349 41.5548 166.605C40.7806 165.861 40.3457 164.852 40.3457 163.801C40.3457 162.749 40.7806 161.74 41.5548 160.996C42.329 160.252 43.379 159.834 44.4738 159.834C45.5687 159.834 46.6187 160.252 47.3929 160.996C48.1671 161.74 48.602 162.749 48.602 163.801C48.602 164.852 48.1671 165.861 47.3929 166.605C46.6187 167.349 45.5687 167.767 44.4738 167.767ZM44.4738 160.401C43.5354 160.401 42.6354 160.759 41.9718 161.397C41.3083 162.034 40.9354 162.899 40.9354 163.801C40.9354 164.702 41.3082 165.567 41.9718 166.205C42.6354 166.842 43.5354 167.2 44.4738 167.2C45.4123 167.2 46.3123 166.842 46.9759 166.205C47.6394 165.567 48.0123 164.702 48.0123 163.801C48.0123 162.899 47.6395 162.034 46.9759 161.397C46.3123 160.759 45.4123 160.401 44.4738 160.401Z" fill="white"/>
<path d="M44.4721 166.635C43.6901 166.635 42.9401 166.337 42.3871 165.806C41.8341 165.274 41.5234 164.554 41.5234 163.802C41.5234 163.051 41.8341 162.33 42.3871 161.799C42.9401 161.268 43.6901 160.969 44.4721 160.969C45.2542 160.969 46.0041 161.268 46.5571 161.799C47.1101 162.33 47.4208 163.051 47.4208 163.802C47.4208 164.554 47.1101 165.274 46.5571 165.806C46.0041 166.337 45.2542 166.635 44.4721 166.635ZM44.4721 161.536C43.8465 161.536 43.2464 161.775 42.8041 162.2C42.3617 162.625 42.1132 163.201 42.1132 163.802C42.1132 164.403 42.3617 164.98 42.8041 165.405C43.2464 165.83 43.8465 166.069 44.4721 166.069C45.0978 166.069 45.6978 165.83 46.1401 165.405C46.5825 164.98 46.831 164.403 46.831 163.802C46.831 163.201 46.5825 162.625 46.1401 162.2C45.6978 161.775 45.0978 161.536 44.4721 161.536Z" fill="white"/>
<path d="M44.7746 158.702C44.7746 158.858 44.6423 158.985 44.4791 158.985C44.3159 158.985 44.1836 158.858 44.1836 158.702C44.1836 158.546 44.3159 158.419 44.4791 158.419C44.6423 158.419 44.7746 158.546 44.7746 158.702Z" fill="white"/>
<path d="M53.0252 174H35.9229C35.8207 174 35.7259 173.949 35.6725 173.865C35.6191 173.781 35.6144 173.677 35.6604 173.589L36.1557 172.637H36.1559C36.6304 171.73 37.4695 171.047 38.4794 170.748C39.3627 170.48 40.3177 170.533 41.1627 170.898C42.2018 171.354 43.3313 171.591 44.474 171.591C45.6168 171.591 46.7462 171.354 47.7854 170.898C48.6302 170.533 49.5854 170.479 50.4686 170.748C51.4786 171.047 52.3176 171.73 52.7922 172.637L53.2875 173.589H53.2876C53.3336 173.677 53.329 173.781 53.2755 173.865C53.2221 173.949 53.1273 174 53.0252 174H53.0252ZM36.4007 173.433H52.5477L52.2528 172.892C51.8504 172.123 51.139 171.545 50.2831 171.292C49.5379 171.065 48.7319 171.109 48.0186 171.416C46.902 171.907 45.6887 172.161 44.4609 172.161C43.2332 172.161 42.0198 171.907 40.9033 171.416C40.19 171.109 39.3838 171.065 38.6386 171.292C37.7828 171.545 37.0714 172.123 36.669 172.892L36.4007 173.433Z" fill="white"/>
<rect x="152.592" y="195" width="15.7327" height="40.7874" rx="1" fill="#060606"/>
<path d="M114.435 239.83C112.033 240.097 111.302 236.667 113.605 235.937L153.179 223.386L155.707 235.245L114.435 239.83Z" fill="#060606"/>
<path d="M207.394 235.936C209.698 236.667 208.966 240.096 206.564 239.829L165.292 235.245L167.82 223.386L207.394 235.936Z" fill="#060606"/>
<defs>
<radialGradient id="paint0_angular_394_4047" cx="0" cy="0" r="1" gradientUnits="userSpaceOnUse" gradientTransform="translate(44.5 97.4999) rotate(90) scale(84.4999 36.5)">
<stop offset="0.25" stop-color="#926BE5"/>
<stop offset="0.75" stop-color="#5AA3FF"/>
</radialGradient>
<radialGradient id="paint1_angular_394_4047" cx="0" cy="0" r="1" gradientUnits="userSpaceOnUse" gradientTransform="translate(44.5 97.4999) rotate(90) scale(84.4999 36.5)">
<stop offset="0.25" stop-color="#926BE5"/>
<stop offset="0.75" stop-color="#5AA3FF"/>
</radialGradient>
<radialGradient id="paint2_angular_394_4047" cx="0" cy="0" r="1" gradientUnits="userSpaceOnUse" gradientTransform="translate(44.5 97.4999) rotate(90) scale(84.4999 36.5)">
<stop offset="0.25" stop-color="#926BE5"/>
<stop offset="0.75" stop-color="#5AA3FF"/>
</radialGradient>
<radialGradient id="paint3_angular_394_4047" cx="0" cy="0" r="1" gradientUnits="userSpaceOnUse" gradientTransform="translate(44.5 97.4999) rotate(90) scale(84.4999 36.5)">
<stop offset="0.25" stop-color="#926BE5"/>
<stop offset="0.75" stop-color="#5AA3FF"/>
</radialGradient>
<radialGradient id="paint4_angular_394_4047" cx="0" cy="0" r="1" gradientUnits="userSpaceOnUse" gradientTransform="translate(44.5 97.4999) rotate(90) scale(84.4999 36.5)">
<stop offset="0.25" stop-color="#926BE5"/>
<stop offset="0.75" stop-color="#5AA3FF"/>
</radialGradient>
<radialGradient id="paint5_angular_394_4047" cx="0" cy="0" r="1" gradientUnits="userSpaceOnUse" gradientTransform="translate(200.5 54) rotate(90) scale(41 114.5)">
<stop offset="0.348958" stop-color="#926BE5"/>
<stop offset="0.859375" stop-color="#5AA3FF"/>
</radialGradient>
<radialGradient id="paint6_angular_394_4047" cx="0" cy="0" r="1" gradientUnits="userSpaceOnUse" gradientTransform="translate(200.5 141) rotate(90) scale(41 114.5)">
<stop offset="0.140625" stop-color="#926BE5"/>
<stop offset="0.635417" stop-color="#5AA3FF"/>
</radialGradient>
</defs>
</svg>
