<svg width="182" height="141" viewBox="0 0 182 141" fill="none" xmlns="http://www.w3.org/2000/svg">
<path d="M4.59789 1.5H177.402C177.809 1.5 178.212 1.58014 178.587 1.73586C178.963 1.89158 179.305 2.11983 179.592 2.40761C179.88 2.6954 180.108 3.03706 180.264 3.4131C180.42 3.78913 180.5 4.1922 180.5 4.5993V108.5H1.5V4.5993C1.5 3.77717 1.82649 2.98881 2.40751 2.40761C2.98852 1.82642 3.77643 1.5 4.59789 1.5Z" fill="white" stroke="#020202" stroke-width="3"/>
<rect x="5" y="7" width="56" height="46" rx="2" fill="url(#paint0_angular_394_5544)" fill-opacity="0.7"/>
<path d="M42.8033 21H24.1953C23.8509 21.001 23.521 21.1301 23.2779 21.3593C23.0347 21.5884 22.8981 21.8989 22.8981 22.2225V33.9163C22.897 34.2402 23.0333 34.5512 23.2767 34.7805C23.5202 35.01 23.8506 35.1388 24.1954 35.1388H31.7361L31.1625 38.3652H30.3696C30.1974 38.3825 30.0668 38.5191 30.0668 38.6817C30.0668 38.8445 30.1974 38.9809 30.3696 38.9982H36.6249C36.7205 39.0079 36.8159 38.9788 36.8874 38.9184C36.9588 38.8582 36.9997 38.7721 36.9997 38.6817C36.9997 38.5914 36.9588 38.5054 36.8874 38.445C36.8159 38.3846 36.7205 38.3557 36.6249 38.3652H35.8551L35.2815 35.1388H42.8033C43.148 35.1388 43.4785 35.01 43.722 34.7805C43.9653 34.5512 44.1016 34.2402 44.1006 33.9163V22.2225C44.1006 21.8989 43.964 21.5884 43.7208 21.3593C43.4777 21.1301 43.1477 21.001 42.8033 21ZM24.1953 21.633H42.8033C43.1484 21.6349 43.427 21.8983 43.427 22.2225V32.5671H23.5718V22.2225C23.5718 21.8983 23.8503 21.6349 24.1954 21.633H24.1953ZM35.1543 38.3649H31.8439L32.4175 35.1385H34.5809L35.1543 38.3649ZM42.8029 34.5056H24.1949C23.8498 34.5036 23.5712 34.2403 23.5712 33.916L23.5718 32.5671H43.427L43.4264 33.916C43.4264 34.2403 43.1479 34.5036 42.8028 34.5056H42.8029Z" fill="white"/>
<path d="M23.5582 32.8219V32.1184H43.4191V32.8219H23.5582Z" fill="white"/>
<rect x="63" y="7" width="56" height="46" rx="2" fill="url(#paint1_angular_394_5544)" fill-opacity="0.7"/>
<rect x="121" y="7" width="56" height="46" rx="2" fill="url(#paint2_angular_394_5544)" fill-opacity="0.7"/>
<path d="M152.673 38.9999C153.804 38.9999 154.724 38.1274 154.724 37.0548L154.724 22.9451C154.724 21.8727 153.804 21 152.673 21L146.332 21.0001C145.201 21.0001 144.281 21.8726 144.281 22.9452V37.0549C144.281 38.1273 145.201 39 146.332 39L152.673 38.9999ZM144.729 37.0549V22.9449C144.729 22.1069 145.448 21.4251 146.332 21.4251H152.673C153.556 21.4251 154.275 22.1069 154.275 22.9449V37.0546C154.275 37.8926 153.556 38.5744 152.673 38.5744L146.332 38.5745C145.448 38.5745 144.729 37.8926 144.729 37.0547V37.0549Z" fill="white" stroke="white" stroke-width="0.2"/>
<path d="M148.003 22.7274H151.001C151.125 22.7274 151.226 22.6322 151.226 22.5148C151.226 22.3975 151.125 22.3022 151.001 22.3022H148.003C147.88 22.3022 147.779 22.3975 147.779 22.5148C147.779 22.6322 147.88 22.7274 148.003 22.7274V22.7274Z" fill="white" stroke="white" stroke-width="0.2"/>
<path d="M149.502 35.7488C148.936 35.7488 148.477 36.1862 148.477 36.7235C148.477 37.2608 148.936 37.6979 149.502 37.6979C150.068 37.6979 150.529 37.2608 150.529 36.7235C150.529 36.1862 150.068 35.7488 149.502 35.7488ZM149.502 37.2728C149.184 37.2728 148.925 37.0264 148.925 36.7235C148.925 36.4203 149.184 36.1739 149.502 36.1739C149.821 36.1739 150.081 36.4203 150.081 36.7235C150.081 37.0264 149.821 37.2728 149.502 37.2728Z" fill="white" stroke="white" stroke-width="0.2"/>
<rect x="5" y="56" width="56" height="46" rx="2" fill="url(#paint3_angular_394_5544)" fill-opacity="0.7"/>
<rect x="63" y="56" width="56" height="46" rx="2" fill="url(#paint4_angular_394_5544)" fill-opacity="0.7"/>
<path d="M91.4671 84.6998C89.3845 84.6998 87.3873 83.9255 85.9144 82.5471C84.4418 81.1688 83.6145 79.2994 83.6145 77.3499C83.6145 75.4005 84.4418 73.5313 85.9144 72.1527C87.387 70.7744 89.3843 70 91.4671 70C93.5498 70 95.5469 70.7744 97.0198 72.1527C98.4924 73.5311 99.3197 75.4005 99.3197 77.3499C99.3171 79.2985 98.4891 81.1665 97.0169 82.5444C95.5448 83.9223 93.5491 84.6974 91.4672 84.6998L91.4671 84.6998ZM91.4671 70.6003C89.5545 70.6003 87.7203 71.3114 86.3679 72.5773C85.0155 73.8431 84.2557 75.5599 84.2557 77.35C84.2557 79.1402 85.0155 80.857 86.3679 82.1228C87.7203 83.3887 89.5545 84.0998 91.4671 84.0998C93.3797 84.0998 95.2139 83.3887 96.5663 82.1228C97.9187 80.8569 98.6785 79.1402 98.6785 77.35C98.6759 75.5607 97.9154 73.8451 96.5636 72.5797C95.2117 71.3142 93.3788 70.6025 91.4669 70.6001L91.4671 70.6003Z" fill="white"/>
<path d="M91.4671 81.4C90.2771 81.4 89.1357 80.9575 88.2942 80.1699C87.4527 79.3823 86.98 78.314 86.98 77.2001C86.98 76.0863 87.4527 75.018 88.2942 74.2303C89.1357 73.4427 90.2771 73.0002 91.4671 73.0002C92.6571 73.0002 93.7985 73.4427 94.64 74.2303C95.4815 75.018 95.9542 76.0863 95.9542 77.2001C95.9542 78.314 95.4815 79.3823 94.64 80.1699C93.7985 80.9575 92.6571 81.4 91.4671 81.4ZM91.4671 73.6002C90.447 73.6002 89.4688 73.9795 88.7475 74.6546C88.0262 75.3298 87.621 76.2454 87.621 77.2001C87.621 78.1549 88.0262 79.0705 88.7475 79.7456C89.4688 80.4207 90.447 80.8 91.4671 80.8C92.4871 80.8 93.4654 80.4208 94.1867 79.7456C94.908 79.0705 95.3132 78.1549 95.3132 77.2001C95.3132 76.2454 94.908 75.3297 94.1867 74.6546C93.4654 73.9795 92.4871 73.6002 91.4671 73.6002V73.6002Z" fill="white"/>
<path d="M91.468 80.2003C90.618 80.2003 89.8028 79.8842 89.2017 79.3216C88.6006 78.759 88.2629 77.996 88.2629 77.2004C88.2629 76.4047 88.6006 75.6417 89.2017 75.0791C89.8028 74.5165 90.618 74.2004 91.468 74.2004C92.3181 74.2004 93.1332 74.5165 93.7343 75.0791C94.3354 75.6417 94.6731 76.4047 94.6731 77.2004C94.6731 77.996 94.3354 78.759 93.7343 79.3216C93.1332 79.8842 92.3181 80.2003 91.468 80.2003ZM91.468 74.8004C90.788 74.8004 90.1358 75.0533 89.655 75.5034C89.1741 75.9534 88.904 76.5638 88.904 77.2004C88.904 77.8369 89.1741 78.4473 89.655 78.8973C90.1358 79.3474 90.788 79.6003 91.468 79.6003C92.1481 79.6003 92.8003 79.3474 93.281 78.8973C93.7619 78.4473 94.0321 77.8369 94.0321 77.2004C94.0321 76.5638 93.7619 75.9534 93.281 75.5034C92.8003 75.0533 92.1481 74.8004 91.468 74.8004V74.8004Z" fill="white"/>
<path d="M91.789 71.8C91.789 71.9657 91.6455 72.1 91.4685 72.1C91.2915 72.1 91.1479 71.9657 91.1479 71.8C91.1479 71.6343 91.2915 71.5 91.4685 71.5C91.6455 71.5 91.789 71.6343 91.789 71.8Z" fill="white"/>
<path d="M100.762 87.9997H82.1726C82.0615 87.9995 81.9585 87.9452 81.9004 87.8567C81.8423 87.7681 81.8373 87.6576 81.8872 87.5648L82.4257 86.5569H82.4258C82.9416 85.596 83.8536 84.8733 84.9514 84.5559C85.9115 84.2721 86.9495 84.3286 87.868 84.7149C88.9975 85.1985 90.2252 85.4488 91.4673 85.4488C92.7094 85.4488 93.9371 85.1985 95.0666 84.7149C95.9849 84.3284 97.0231 84.2718 97.9832 84.5559C99.0809 84.8733 99.9929 85.596 100.509 86.5569L101.047 87.5648H101.047C101.097 87.6576 101.092 87.7681 101.034 87.8567C100.976 87.9452 100.873 87.9995 100.762 87.9997H100.762ZM82.692 87.3998H100.243L99.9225 86.8268C99.4851 86.0126 98.7118 85.4005 97.7815 85.1319C96.9715 84.8916 96.0954 84.9385 95.32 85.2638C94.1064 85.7834 92.7876 86.0525 91.4531 86.0525C90.1185 86.0525 88.7997 85.7834 87.5861 85.2638C86.8107 84.9385 85.9345 84.8916 85.1245 85.1319C84.1942 85.4005 83.4209 86.0126 82.9835 86.8268L82.692 87.3998Z" fill="white"/>
<rect x="121" y="56" width="56" height="46" rx="2" fill="url(#paint5_angular_394_5544)" fill-opacity="0.7"/>
<path d="M87.9863 31.7193C87.6462 31.3251 87.079 31.2858 86.7012 31.6011C86.323 31.9557 86.2853 32.547 86.5878 32.9409L87.4951 34.0836C81.6738 33.8472 78.0825 32.9409 76.5705 32.1921C76.117 31.9557 76.117 31.3643 76.5705 31.1279C77.4908 30.6659 79.1487 30.1719 81.5442 29.7905C82.0076 29.7167 82.3541 29.3206 82.3541 28.8514V28.8514C82.3541 28.2831 81.8534 27.8436 81.292 27.9319C77.5106 28.5263 74 29.6217 74 31.6403C74 35.0295 83.6393 35.8176 87.7597 35.9755L86.3988 37.3942C86.0587 37.7488 86.0587 38.3794 86.3988 38.734C86.739 39.0886 87.3439 39.0886 87.684 38.734L90.2924 36.0544C90.6325 35.6997 90.6705 35.0691 90.3681 34.6356C89.7252 33.8475 88.6666 32.5469 87.9863 31.7193Z" fill="white"/>
<path d="M99.7089 27.9321C99.147 27.8437 98.6459 28.2835 98.6459 28.8523V28.8523C98.6459 29.3212 98.9917 29.7173 99.4546 29.7918C101.824 30.1733 103.51 30.6666 104.429 31.1279C104.883 31.3644 104.883 31.9949 104.429 32.1921C102.88 32.9802 98.986 33.9261 92.7489 34.1232C92.2574 34.1232 91.8416 34.5567 91.8416 35.1084C91.8416 35.6208 92.2574 36.0543 92.7489 36.0147C96.529 35.8965 107 35.2266 107 31.6796C107 29.6254 103.49 28.527 99.7089 27.9321Z" fill="white"/>
<path d="M85.4898 27.7787C85.7166 27.6605 85.9057 27.5027 86.0567 27.3452C86.3592 27.0299 86.5103 26.5571 86.5103 26.0054C86.5103 25.4144 86.3212 24.9019 85.9054 24.5473C85.4896 24.1531 84.8847 23.9563 84.091 23.9563C83.5995 23.9563 83.146 24.0352 82.7302 24.1927C82.352 24.3502 82.0119 24.5473 81.7474 24.7837V24.7837C81.6624 24.8503 81.6434 24.9713 81.7041 25.0606L82.1311 25.6891C82.1894 25.775 82.3082 25.7936 82.39 25.7296V25.7296C82.6547 25.5721 82.9192 25.4143 83.1839 25.2961C83.4487 25.1779 83.7509 25.1386 84.0912 25.1386C84.4314 25.1386 84.7338 25.2175 84.9229 25.375C85.1119 25.5325 85.1876 25.7692 85.1876 26.0449C85.1876 26.3995 85.0742 26.6755 84.8095 26.9119C84.5447 27.1483 84.1292 27.2665 83.5997 27.2665H83.2836C82.9571 27.2665 82.6924 27.5312 82.6924 27.8577V27.8577C82.6924 28.1842 82.9571 28.4489 83.2836 28.4489H83.5618C84.1667 28.4489 84.6202 28.5278 84.9604 28.7249C85.2628 28.8824 85.3762 29.1584 85.3762 29.5526C85.3762 29.9468 85.2628 30.2618 84.9981 30.4985C84.7333 30.7349 84.3178 30.8531 83.7506 30.8531C83.4482 30.8531 83.108 30.8138 82.8056 30.7349C82.4654 30.656 82.163 30.5378 81.8605 30.3803V30.3803C81.7228 30.3086 81.5581 30.4085 81.5581 30.5638V31.4033C81.5581 31.4751 81.6036 31.5391 81.6715 31.5626V31.5626C81.9739 31.7201 82.3141 31.8386 82.6543 31.9172C82.9944 31.9961 83.3345 31.9961 83.7127 31.9961C84.3553 31.9961 84.9225 31.8779 85.338 31.6808C85.7916 31.4837 86.094 31.1684 86.3208 30.8138C86.5476 30.4592 86.6232 30.0257 86.6232 29.5526C86.6232 29.0008 86.4721 28.5673 86.1317 28.2127C86.0571 28.0547 85.7924 27.8971 85.4899 27.7787L85.4898 27.7787Z" fill="white"/>
<path d="M90.2903 26.8719C89.8368 26.8719 89.4587 26.9508 89.1562 27.1479C89.0051 27.2268 88.8915 27.3054 88.7781 27.4239C88.8158 27.2268 88.8538 27.0297 88.8915 26.8329C88.9672 26.4783 89.0805 26.2023 89.2316 25.9266C89.3827 25.6902 89.6098 25.493 89.8742 25.3355C90.2523 25.1384 90.7815 25.0595 91.3485 25.1384C91.4958 25.1589 91.6132 25.1777 91.7266 25.2173V25.2173C91.8586 25.2567 91.9913 25.1578 91.9913 25.02V24.2694C91.9913 24.1775 91.9292 24.0972 91.8402 24.074V24.074C91.7269 24.0347 91.5971 23.9927 91.3946 23.9726C91.2258 23.9558 91.0466 23.9558 90.8952 23.9558C90.1769 23.9558 89.61 24.074 89.1562 24.35C88.7027 24.626 88.3246 24.9806 88.0978 25.4141C87.833 25.8476 87.6819 26.36 87.5686 26.8722C87.4929 27.3846 87.4175 27.9363 87.4175 28.488C87.4175 29.2761 87.5309 29.9068 87.7576 30.4191C87.9844 30.9315 88.3245 31.3255 88.7027 31.6015C89.0808 31.8379 89.5343 31.9957 90.0258 31.9957C90.7818 31.9957 91.3867 31.7593 91.8402 31.2468C92.2938 30.774 92.5205 30.1041 92.5205 29.2764C92.5205 28.4883 92.2938 27.8969 91.8779 27.4634C91.4998 27.069 90.9706 26.8719 90.2903 26.8719L90.2903 26.8719ZM91.2731 29.3155C91.2731 29.8672 91.1597 30.2614 90.9329 30.4978C90.7062 30.7343 90.4037 30.8525 90.0636 30.8525C89.7611 30.8525 89.5344 30.7736 89.3453 30.616C89.1562 30.4585 89.0051 30.2218 88.8918 29.9854C88.7784 29.7094 88.7407 29.4337 88.7407 29.1577C88.7407 28.9606 88.7784 28.8031 88.8918 28.606C89.0051 28.4089 89.1565 28.2514 89.3833 28.1332C89.5723 28.015 89.8368 27.9361 90.1015 27.9361C90.5174 27.9361 90.7818 28.0543 91.0088 28.2907C91.1974 28.5667 91.2731 28.9213 91.2731 29.3155Z" fill="white"/>
<path d="M97.6264 25.0593C97.2106 24.3104 96.5303 23.9558 95.6606 23.9558C95.0558 23.9558 94.5265 24.1133 94.1487 24.4682C93.7706 24.7835 93.5061 25.2563 93.3171 25.8869C93.166 26.478 93.0903 27.1874 93.0903 28.0149C93.0903 29.2365 93.2794 30.2217 93.6952 30.9312C94.111 31.6801 94.7913 32.0347 95.661 32.0347C96.2658 32.0347 96.7951 31.8772 97.1729 31.5223C97.551 31.207 97.8155 30.7342 98.0045 30.1035C98.1556 29.5125 98.2692 28.8031 98.2692 27.9756C98.269 26.7537 98.0422 25.7685 97.6264 25.0593V25.0593ZM96.9838 28.0149C96.9838 29.0002 96.8704 29.749 96.6436 30.2218C96.4546 30.6553 96.1144 30.8524 95.6609 30.8524C95.2073 30.8524 94.8669 30.6553 94.6781 30.2218C94.4513 29.749 94.3757 29.0002 94.3757 28.0149C94.3757 27.0297 94.489 26.2809 94.6781 25.8081C94.8672 25.3746 95.1696 25.1775 95.6609 25.1775C96.1144 25.1775 96.4168 25.3746 96.6436 25.8081C96.8702 26.2809 96.9838 27.0297 96.9838 28.0149V28.0149Z" fill="white"/>
<path d="M98.5717 24.0739C97.7777 24.0739 97.0974 23.404 97.0974 22.537C97.0974 21.67 97.74 21 98.5717 21C99.3656 21 100.046 21.6699 100.046 22.537C100.046 23.404 99.3654 24.0739 98.5717 24.0739ZM98.5717 21.8274C98.1935 21.8274 97.8914 22.1428 97.8914 22.5367C97.8914 22.9309 98.1938 23.2459 98.5717 23.2459C98.9498 23.2459 99.252 22.9306 99.252 22.5367C99.252 22.1428 98.9495 21.8274 98.5717 21.8274Z" fill="white"/>
<path d="M29.9863 80.7193C29.6462 80.3251 29.079 80.2858 28.7012 80.6011C28.323 80.9557 28.2853 81.547 28.5878 81.9409L29.4951 83.0836C23.6738 82.8472 20.0825 81.9409 18.5705 81.1921C18.117 80.9557 18.117 80.3643 18.5705 80.1279C19.4908 79.6659 21.1487 79.1719 23.5442 78.7905C24.0076 78.7167 24.3541 78.3206 24.3541 77.8514V77.8514C24.3541 77.2831 23.8534 76.8436 23.292 76.9319C19.5106 77.5263 16 78.6217 16 80.6403C16 84.0295 25.6393 84.8176 29.7597 84.9755L28.3988 86.3942C28.0587 86.7488 28.0587 87.3794 28.3988 87.734C28.739 88.0886 29.3439 88.0886 29.684 87.734L32.2924 85.0544C32.6325 84.6997 32.6705 84.0691 32.3681 83.6356C31.7252 82.8475 30.6666 81.5469 29.9863 80.7193Z" fill="white"/>
<path d="M41.7089 76.9321C41.147 76.8437 40.6459 77.2835 40.6459 77.8523V77.8523C40.6459 78.3212 40.9917 78.7173 41.4546 78.7918C43.8243 79.1733 45.5101 79.6666 46.4295 80.1279C46.883 80.3644 46.883 80.9949 46.4295 81.1921C44.8796 81.9802 40.986 82.9261 34.7489 83.1232C34.2574 83.1232 33.8416 83.5567 33.8416 84.1084C33.8416 84.6208 34.2574 85.0543 34.7489 85.0147C38.529 84.8965 49 84.2266 49 80.6796C49 78.6254 45.4898 77.527 41.7089 76.9321Z" fill="white"/>
<path d="M27.4898 76.7785C27.7166 76.6603 27.9057 76.5025 28.0567 76.345C28.3592 76.0297 28.5103 75.5569 28.5103 75.0051C28.5103 74.4141 28.3212 73.9017 27.9054 73.5471C27.4896 73.1529 26.8847 72.9561 26.091 72.9561C25.5995 72.9561 25.146 73.035 24.7302 73.1925C24.352 73.35 24.0119 73.5471 23.7474 73.7835V73.7835C23.6624 73.85 23.6434 73.9711 23.7041 74.0604L24.1311 74.6889C24.1894 74.7748 24.3082 74.7933 24.39 74.7294V74.7294C24.6547 74.5719 24.9192 74.4141 25.1839 74.2959C25.4487 74.1777 25.7509 74.1383 26.0912 74.1383C26.4314 74.1383 26.7338 74.2172 26.9229 74.3748C27.1119 74.5323 27.1876 74.769 27.1876 75.0447C27.1876 75.3993 27.0742 75.6753 26.8095 75.9117C26.5447 76.1481 26.1292 76.2663 25.5997 76.2663H25.2836C24.9571 76.2663 24.6924 76.531 24.6924 76.8575V76.8575C24.6924 77.184 24.9571 77.4486 25.2836 77.4486H25.5618C26.1667 77.4486 26.6202 77.5275 26.9604 77.7246C27.2628 77.8821 27.3762 78.1581 27.3762 78.5524C27.3762 78.9466 27.2628 79.2616 26.9981 79.4983C26.7333 79.7347 26.3178 79.8529 25.7506 79.8529C25.4482 79.8529 25.108 79.8136 24.8056 79.7347C24.4654 79.6558 24.163 79.5376 23.8605 79.38V79.38C23.7228 79.3083 23.5581 79.4082 23.5581 79.5635V80.403C23.5581 80.4749 23.6036 80.5388 23.6715 80.5623V80.5623C23.9739 80.7199 24.3141 80.8383 24.6543 80.917C24.9944 80.9959 25.3345 80.9959 25.7127 80.9959C26.3553 80.9959 26.9225 80.8776 27.338 80.6805C27.7916 80.4834 28.094 80.1681 28.3208 79.8135C28.5476 79.4589 28.6232 79.0254 28.6232 78.5523C28.6232 78.0006 28.4721 77.5671 28.1317 77.2125C28.0571 77.0544 27.7924 76.8969 27.4899 76.7784L27.4898 76.7785Z" fill="white"/>
<path d="M32.2903 75.8717C31.8368 75.8717 31.4587 75.9506 31.1562 76.1477C31.0051 76.2266 30.8915 76.3052 30.7781 76.4237C30.8158 76.2266 30.8538 76.0295 30.8915 75.8327C30.9672 75.478 31.0805 75.202 31.2316 74.9263C31.3827 74.6899 31.6098 74.4928 31.8742 74.3353C32.2523 74.1382 32.7815 74.0593 33.3485 74.1382C33.4958 74.1587 33.6132 74.1775 33.7266 74.2171V74.2171C33.8586 74.2564 33.9913 74.1575 33.9913 74.0197V73.2692C33.9913 73.1773 33.9292 73.0969 33.8402 73.0738V73.0738C33.7269 73.0345 33.5971 72.9924 33.3946 72.9723C33.2258 72.9556 33.0466 72.9556 32.8952 72.9556C32.1769 72.9556 31.61 73.0738 31.1562 73.3498C30.7027 73.6258 30.3246 73.9804 30.0978 74.4139C29.833 74.8474 29.6819 75.3598 29.5686 75.8719C29.4929 76.3843 29.4175 76.9361 29.4175 77.4878C29.4175 78.2759 29.5309 78.9065 29.7576 79.4189C29.9844 79.9313 30.3245 80.3252 30.7027 80.6012C31.0808 80.8377 31.5343 80.9954 32.0258 80.9954C32.7818 80.9954 33.3867 80.759 33.8402 80.2466C34.2938 79.7738 34.5205 79.1039 34.5205 78.2762C34.5205 77.488 34.2938 76.8967 33.8779 76.4632C33.4998 76.0687 32.9706 75.8716 32.2903 75.8716L32.2903 75.8717ZM33.2731 78.3153C33.2731 78.867 33.1597 79.2611 32.9329 79.4976C32.7062 79.7341 32.4037 79.8522 32.0636 79.8522C31.7611 79.8522 31.5344 79.7733 31.3453 79.6158C31.1562 79.4583 31.0051 79.2216 30.8918 78.9852C30.7784 78.7092 30.7407 78.4335 30.7407 78.1575C30.7407 77.9604 30.7784 77.8028 30.8918 77.6058C31.0051 77.4087 31.1565 77.2511 31.3833 77.1329C31.5723 77.0147 31.8368 76.9358 32.1015 76.9358C32.5174 76.9358 32.7818 77.054 33.0088 77.2904C33.1974 77.5664 33.2731 77.9211 33.2731 78.3153Z" fill="white"/>
<path d="M39.6264 74.059C39.2106 73.3102 38.5303 72.9556 37.6606 72.9556C37.0558 72.9556 36.5265 73.1131 36.1487 73.468C35.7706 73.7833 35.5061 74.2561 35.3171 74.8867C35.166 75.4777 35.0903 76.1872 35.0903 77.0146C35.0903 78.2363 35.2794 79.2215 35.6952 79.931C36.111 80.6798 36.7913 81.0344 37.661 81.0344C38.2658 81.0344 38.7951 80.8769 39.1729 80.522C39.551 80.2067 39.8155 79.7339 40.0045 79.1033C40.1556 78.5123 40.2692 77.8028 40.2692 76.9754C40.269 75.7535 40.0422 74.7682 39.6264 74.059V74.059ZM38.9838 77.0147C38.9838 77.9999 38.8704 78.7488 38.6436 79.2215C38.4546 79.655 38.1144 79.8521 37.6609 79.8521C37.2073 79.8521 36.8669 79.655 36.6781 79.2215C36.4513 78.7487 36.3757 77.9999 36.3757 77.0147C36.3757 76.0295 36.489 75.2806 36.6781 74.8079C36.8672 74.3743 37.1696 74.1773 37.6609 74.1773C38.1144 74.1773 38.4168 74.3744 38.6436 74.8079C38.8702 75.2807 38.9838 76.0295 38.9838 77.0147V77.0147Z" fill="white"/>
<path d="M40.5717 73.0739C39.7777 73.0739 39.0974 72.404 39.0974 71.537C39.0974 70.67 39.74 70 40.5717 70C41.3656 70 42.0459 70.6699 42.0459 71.537C42.0459 72.404 41.3654 73.0739 40.5717 73.0739ZM40.5717 70.8274C40.1935 70.8274 39.8914 71.1428 39.8914 71.5367C39.8914 71.9309 40.1938 72.2459 40.5717 72.2459C40.9498 72.2459 41.252 71.9306 41.252 71.5367C41.252 71.1428 40.9495 70.8274 40.5717 70.8274Z" fill="white"/>
<path d="M146.986 80.7193C146.646 80.3251 146.079 80.2858 145.701 80.6011C145.323 80.9557 145.285 81.547 145.588 81.9409L146.495 83.0836C140.674 82.8472 137.083 81.9409 135.57 81.1921C135.117 80.9557 135.117 80.3643 135.57 80.1279C136.491 79.6659 138.149 79.1719 140.544 78.7905C141.008 78.7167 141.354 78.3206 141.354 77.8514V77.8514C141.354 77.2831 140.853 76.8436 140.292 76.9319C136.511 77.5263 133 78.6217 133 80.6403C133 84.0295 142.639 84.8176 146.76 84.9755L145.399 86.3942C145.059 86.7488 145.059 87.3794 145.399 87.734C145.739 88.0886 146.344 88.0886 146.684 87.734L149.292 85.0544C149.633 84.6997 149.671 84.0691 149.368 83.6356C148.725 82.8475 147.667 81.5469 146.986 80.7193Z" fill="white"/>
<path d="M158.709 76.9321C158.147 76.8437 157.646 77.2835 157.646 77.8523V77.8523C157.646 78.3212 157.992 78.7173 158.455 78.7918C160.824 79.1733 162.51 79.6666 163.429 80.1279C163.883 80.3644 163.883 80.9949 163.429 81.1921C161.88 81.9802 157.986 82.9261 151.749 83.1232C151.257 83.1232 150.842 83.5567 150.842 84.1084C150.842 84.6208 151.257 85.0543 151.749 85.0147C155.529 84.8965 166 84.2266 166 80.6796C166 78.6254 162.49 77.527 158.709 76.9321Z" fill="white"/>
<path d="M144.49 76.7785C144.717 76.6603 144.906 76.5025 145.057 76.345C145.359 76.0297 145.51 75.5569 145.51 75.0051C145.51 74.4141 145.321 73.9017 144.905 73.5471C144.49 73.1529 143.885 72.9561 143.091 72.9561C142.6 72.9561 142.146 73.035 141.73 73.1925C141.352 73.35 141.012 73.5471 140.747 73.7835V73.7835C140.662 73.85 140.643 73.9711 140.704 74.0604L141.131 74.6889C141.189 74.7748 141.308 74.7933 141.39 74.7294V74.7294C141.655 74.5719 141.919 74.4141 142.184 74.2959C142.449 74.1777 142.751 74.1383 143.091 74.1383C143.431 74.1383 143.734 74.2172 143.923 74.3748C144.112 74.5323 144.188 74.769 144.188 75.0447C144.188 75.3993 144.074 75.6753 143.809 75.9117C143.545 76.1481 143.129 76.2663 142.6 76.2663H142.284C141.957 76.2663 141.692 76.531 141.692 76.8575V76.8575C141.692 77.184 141.957 77.4486 142.284 77.4486H142.562C143.167 77.4486 143.62 77.5275 143.96 77.7246C144.263 77.8821 144.376 78.1581 144.376 78.5524C144.376 78.9466 144.263 79.2616 143.998 79.4983C143.733 79.7347 143.318 79.8529 142.751 79.8529C142.448 79.8529 142.108 79.8136 141.806 79.7347C141.465 79.6558 141.163 79.5376 140.861 79.38V79.38C140.723 79.3083 140.558 79.4082 140.558 79.5635V80.403C140.558 80.4749 140.604 80.5388 140.671 80.5623V80.5623C140.974 80.7199 141.314 80.8383 141.654 80.917C141.994 80.9959 142.335 80.9959 142.713 80.9959C143.355 80.9959 143.922 80.8776 144.338 80.6805C144.792 80.4834 145.094 80.1681 145.321 79.8135C145.548 79.4589 145.623 79.0254 145.623 78.5523C145.623 78.0006 145.472 77.5671 145.132 77.2125C145.057 77.0544 144.792 76.8969 144.49 76.7784L144.49 76.7785Z" fill="white"/>
<path d="M149.29 75.8717C148.837 75.8717 148.459 75.9506 148.156 76.1477C148.005 76.2266 147.891 76.3052 147.778 76.4237C147.816 76.2266 147.854 76.0295 147.891 75.8327C147.967 75.478 148.081 75.202 148.232 74.9263C148.383 74.6899 148.61 74.4928 148.874 74.3353C149.252 74.1382 149.782 74.0593 150.348 74.1382C150.496 74.1587 150.613 74.1775 150.727 74.2171V74.2171C150.859 74.2564 150.991 74.1575 150.991 74.0197V73.2692C150.991 73.1773 150.929 73.0969 150.84 73.0738V73.0738C150.727 73.0345 150.597 72.9924 150.395 72.9723C150.226 72.9556 150.047 72.9556 149.895 72.9556C149.177 72.9556 148.61 73.0738 148.156 73.3498C147.703 73.6258 147.325 73.9804 147.098 74.4139C146.833 74.8474 146.682 75.3598 146.569 75.8719C146.493 76.3843 146.417 76.9361 146.417 77.4878C146.417 78.2759 146.531 78.9065 146.758 79.4189C146.984 79.9313 147.325 80.3252 147.703 80.6012C148.081 80.8377 148.534 80.9954 149.026 80.9954C149.782 80.9954 150.387 80.759 150.84 80.2466C151.294 79.7738 151.521 79.1039 151.521 78.2762C151.521 77.488 151.294 76.8967 150.878 76.4632C150.5 76.0687 149.971 75.8716 149.29 75.8716L149.29 75.8717ZM150.273 78.3153C150.273 78.867 150.16 79.2611 149.933 79.4976C149.706 79.7341 149.404 79.8522 149.064 79.8522C148.761 79.8522 148.534 79.7733 148.345 79.6158C148.156 79.4583 148.005 79.2216 147.892 78.9852C147.778 78.7092 147.741 78.4335 147.741 78.1575C147.741 77.9604 147.778 77.8028 147.892 77.6058C148.005 77.4087 148.156 77.2511 148.383 77.1329C148.572 77.0147 148.837 76.9358 149.102 76.9358C149.517 76.9358 149.782 77.054 150.009 77.2904C150.197 77.5664 150.273 77.9211 150.273 78.3153Z" fill="white"/>
<path d="M156.626 74.059C156.211 73.3102 155.53 72.9556 154.661 72.9556C154.056 72.9556 153.527 73.1131 153.149 73.468C152.771 73.7833 152.506 74.2561 152.317 74.8867C152.166 75.4777 152.09 76.1872 152.09 77.0146C152.09 78.2363 152.279 79.2215 152.695 79.931C153.111 80.6798 153.791 81.0344 154.661 81.0344C155.266 81.0344 155.795 80.8769 156.173 80.522C156.551 80.2067 156.815 79.7339 157.005 79.1033C157.156 78.5123 157.269 77.8028 157.269 76.9754C157.269 75.7535 157.042 74.7682 156.626 74.059V74.059ZM155.984 77.0147C155.984 77.9999 155.87 78.7488 155.644 79.2215C155.455 79.655 155.114 79.8521 154.661 79.8521C154.207 79.8521 153.867 79.655 153.678 79.2215C153.451 78.7487 153.376 77.9999 153.376 77.0147C153.376 76.0295 153.489 75.2806 153.678 74.8079C153.867 74.3743 154.17 74.1773 154.661 74.1773C155.114 74.1773 155.417 74.3744 155.644 74.8079C155.87 75.2807 155.984 76.0295 155.984 77.0147V77.0147Z" fill="white"/>
<path d="M157.572 73.0739C156.778 73.0739 156.097 72.404 156.097 71.537C156.097 70.67 156.74 70 157.572 70C158.366 70 159.046 70.6699 159.046 71.537C159.046 72.404 158.365 73.0739 157.572 73.0739ZM157.572 70.8274C157.194 70.8274 156.891 71.1428 156.891 71.5367C156.891 71.9309 157.194 72.2459 157.572 72.2459C157.95 72.2459 158.252 71.9306 158.252 71.5367C158.252 71.1428 157.95 70.8274 157.572 70.8274Z" fill="white"/>
<rect x="85.5483" y="111" width="8.85689" height="23.0875" rx="1" fill="#060606"/>
<path d="M62.7445 136.523C61.5443 136.657 61.1809 134.943 62.3317 134.576L85.8788 127.068L87.3019 133.78L62.7445 136.523Z" fill="#060606"/>
<path d="M117.668 134.576C118.819 134.943 118.456 136.657 117.256 136.523L92.6982 133.78L94.1213 127.068L117.668 134.576Z" fill="#060606"/>
<defs>
<radialGradient id="paint0_angular_394_5544" cx="0" cy="0" r="1" gradientUnits="userSpaceOnUse" gradientTransform="translate(33 30) rotate(90) scale(23 28)">
<stop offset="0.358326" stop-color="#926BE5"/>
<stop offset="0.877068" stop-color="#5AA3FF"/>
</radialGradient>
<radialGradient id="paint1_angular_394_5544" cx="0" cy="0" r="1" gradientUnits="userSpaceOnUse" gradientTransform="translate(91 30) rotate(90) scale(23 28)">
<stop offset="0.500001" stop-color="#926BE5"/>
<stop offset="1" stop-color="#5AA3FF"/>
</radialGradient>
<radialGradient id="paint2_angular_394_5544" cx="0" cy="0" r="1" gradientUnits="userSpaceOnUse" gradientTransform="translate(149 30) rotate(90) scale(23 28)">
<stop offset="0.126903" stop-color="#5AA3FF"/>
<stop offset="0.629858" stop-color="#926BE5"/>
</radialGradient>
<radialGradient id="paint3_angular_394_5544" cx="0" cy="0" r="1" gradientUnits="userSpaceOnUse" gradientTransform="translate(33 79) rotate(90) scale(23 28)">
<stop offset="0.130034" stop-color="#926BE5"/>
<stop offset="0.624475" stop-color="#5AA3FF"/>
</radialGradient>
<radialGradient id="paint4_angular_394_5544" cx="0" cy="0" r="1" gradientUnits="userSpaceOnUse" gradientTransform="translate(91 79) rotate(90) scale(23 28)">
<stop offset="0.501121" stop-color="#5AA3FF"/>
<stop offset="0.999999" stop-color="#926BE5"/>
</radialGradient>
<radialGradient id="paint5_angular_394_5544" cx="0" cy="0" r="1" gradientUnits="userSpaceOnUse" gradientTransform="translate(149 79) rotate(90) scale(23 28)">
<stop offset="0.356115" stop-color="#5AA3FF"/>
<stop offset="0.870589" stop-color="#926BE5"/>
</radialGradient>
</defs>
</svg>
